Exo2-ExtraLight.ufo
<glyph name="exclam" format="2">
  <advance width="258.2705882352941"/>
  <unicode hex="0021"/>
  <outline>
    <contour>
      <point x="149.35294117647058" y="695.0" type="line"/>
      <point x="108.91764705882353" y="695.0" type="line"/>
      <point x="108.91764705882353" y="363.035294117647" type="line"/>
      <point x="112.61176470588235" y="205.0705882352941" type="line"/>
      <point x="145.65882352941176" y="205.0705882352941" type="line"/>
      <point x="149.35294117647058" y="363.035294117647" type="line"/>
    </contour>
    <contour>
      <point x="136.14117647058822" y="94.28235294117647" type="curve" smooth="yes"/>
      <point x="123.12941176470588" y="94.28235294117647" type="line" smooth="yes"/>
      <point x="111.17647058823529" y="94.28235294117647"/>
      <point x="106.04705882352941" y="89.15294117647059"/>
      <point x="106.04705882352941" y="77.2" type="curve" smooth="yes"/>
      <point x="106.04705882352941" y="17.08235294117647" type="line" smooth="yes"/>
      <point x="106.04705882352941" y="5.129411764705882"/>
      <point x="111.17647058823529" y="0.0"/>
      <point x="123.12941176470588" y="0.0" type="curve" smooth="yes"/>
      <point x="136.14117647058822" y="0.0" type="line" smooth="yes"/>
      <point x="148.09411764705882" y="0.0"/>
      <point x="153.2235294117647" y="5.129411764705882"/>
      <point x="153.2235294117647" y="17.08235294117647" type="curve" smooth="yes"/>
      <point x="153.2235294117647" y="77.2" type="line" smooth="yes"/>
      <point x="153.2235294117647" y="89.15294117647059"/>
      <point x="148.09411764705882" y="94.28235294117647"/>
    </contour>
  </outline>
</glyph>
<glyph name="quotedbl" format="2">
  <advance width="333.77647058823527"/>
  <unicode hex="0022"/>
  <outline>
    <contour>
      <point x="250.4823529411765" y="690.0" type="line"/>
      <point x="214.81176470588235" y="690.0" type="line"/>
      <point x="217.75294117647059" y="480.3058823529412" type="line"/>
      <point x="247.54117647058823" y="480.3058823529412" type="line"/>
    </contour>
    <contour>
      <point x="119.15294117647059" y="690.0" type="line"/>
      <point x="83.48235294117647" y="690.0" type="line"/>
      <point x="86.23529411764706" y="480.3058823529412" type="line"/>
      <point x="116.21176470588236" y="480.3058823529412" type="line"/>
    </contour>
  </outline>
</glyph>
<glyph name="numbersign" format="2">
  <advance width="671.5176470588235"/>
  <unicode hex="0023"/>
  <outline>
    <contour>
      <point x="288.71764705882356" y="690.0" type="line"/>
      <point x="252.61176470588236" y="690.0" type="line"/>
      <point x="132.61176470588236" y="0.0" type="line"/>
      <point x="168.71764705882353" y="0.0" type="line"/>
    </contour>
    <contour>
      <point x="539.7176470588236" y="690.0" type="line"/>
      <point x="503.61176470588236" y="690.0" type="line"/>
      <point x="383.61176470588236" y="0.0" type="line"/>
      <point x="419.71764705882356" y="0.0" type="line"/>
    </contour>
    <contour>
      <point x="615.4705882352941" y="494.8235294117647" type="line"/>
      <point x="103.55294117647058" y="494.8235294117647" type="line"/>
      <point x="97.85882352941177" y="464.3529411764706" type="line"/>
      <point x="609.7764705882353" y="464.3529411764706" type="line"/>
    </contour>
    <contour>
      <point x="573.4705882352941" y="254.5176470588235" type="line"/>
      <point x="61.55294117647059" y="254.5176470588235" type="line"/>
      <point x="55.858823529411765" y="224.04705882352943" type="line"/>
      <point x="567.7764705882353" y="224.04705882352943" type="line"/>
    </contour>
  </outline>
</glyph>
<glyph name="ampersand" format="2">
  <advance width="780.1764705882352"/>
  <unicode hex="0026"/>
  <outline>
    <contour>
      <point x="354.5529411764706" y="698.564705882353" type="curve" smooth="yes"/>
      <point x="176.04705882352943" y="698.564705882353"/>
      <point x="96.61176470588235" y="681.0"/>
      <point x="96.61176470588235" y="521.0" type="curve" smooth="yes"/>
      <point x="96.61176470588235" y="422.6235294117647"/>
      <point x="126.8" y="367.18823529411765"/>
      <point x="213.23529411764707" y="360.0" type="curve"/>
      <point x="213.23529411764707" y="356.0" type="line"/>
      <point x="109.8" y="347.0"/>
      <point x="76.61176470588235" y="280.0"/>
      <point x="76.61176470588235" y="174.18823529411765" type="curve" smooth="yes"/>
      <point x="76.61176470588235" y="35.188235294117646"/>
      <point x="132.98823529411766" y="-8.564705882352941"/>
      <point x="276.36470588235295" y="-8.564705882352941" type="curve" smooth="yes"/>
      <point x="398.0470588235294" y="-8.564705882352941"/>
      <point x="473.78823529411767" y="22.68235294117647"/>
      <point x="544.0941176470589" y="117.72941176470589" type="curve"/>
      <point x="530.0941176470589" y="143.5176470588235" type="line"/>
      <point x="469.54117647058825" y="64.72941176470587"/>
      <point x="400.29411764705884" y="28.364705882352943"/>
      <point x="280.2" y="28.176470588235297" type="curve" smooth="yes"/>
      <point x="160.35294117647058" y="28.176470588235297"/>
      <point x="119.74117647058824" y="63.72941176470588"/>
      <point x="119.74117647058824" y="177.95294117647057" type="curve" smooth="yes"/>
      <point x="119.74117647058824" y="305.0470588235294"/>
      <point x="169.6" y="340.9764705882353"/>
      <point x="302.94117647058823" y="340.9764705882353" type="curve" smooth="yes"/>
      <point x="695.2588235294118" y="340.9764705882353" type="line"/>
      <point x="697.6941176470589" y="373.83529411764704" type="line"/>
      <point x="304.0705882352941" y="373.83529411764704" type="line" smooth="yes"/>
      <point x="181.78823529411764" y="373.83529411764704"/>
      <point x="138.98823529411766" y="402.32941176470587"/>
      <point x="138.98823529411766" y="517.1764705882352" type="curve" smooth="yes"/>
      <point x="138.98823529411766" y="644.7058823529412"/>
      <point x="192.65882352941176" y="662.7647058823529"/>
      <point x="353.1764705882353" y="662.7647058823529" type="curve" smooth="yes"/>
      <point x="394.43529411764706" y="662.7647058823529"/>
      <point x="487.16470588235296" y="661.7647058823529"/>
      <point x="508.0470588235294" y="659.7647058823529" type="curve"/>
      <point x="513.7411764705882" y="690.0" type="line"/>
      <point x="452.11764705882354" y="697.564705882353"/>
      <point x="397.36470588235295" y="698.564705882353"/>
    </contour>
    <contour>
      <point x="560.6470588235294" y="522.6823529411764" type="line"/>
      <point x="529.0941176470589" y="522.6823529411764" type="line"/>
      <point x="522.1529411764706" y="362.81176470588235" type="line"/>
      <point x="522.1529411764706" y="97.63529411764706" type="line" smooth="yes"/>
      <point x="522.1529411764706" y="30.75294117647059"/>
      <point x="559.8470588235294" y="-6.752941176470588"/>
      <point x="635.3529411764706" y="-6.752941176470588" type="curve" smooth="yes"/>
      <point x="654.4235294117647" y="-6.752941176470588"/>
      <point x="697.6823529411764" y="-4.188235294117647"/>
      <point x="725.6235294117647" y="0.9411764705882355" type="curve"/>
      <point x="720.9294117647058" y="28.799999999999997" type="line"/>
      <point x="636.5058823529412" y="28.799999999999997" type="line" smooth="yes"/>
      <point x="586.8235294117648" y="28.799999999999997"/>
      <point x="560.6470588235294" y="53.54117647058823"/>
      <point x="560.6470588235294" y="105.03529411764706" type="curve" smooth="yes"/>
    </contour>
  </outline>
</glyph>
<glyph name="quotesingle" format="2">
  <advance width="202.4470588235294"/>
  <unicode hex="0027"/>
  <outline>
    <contour>
      <point x="119.15294117647059" y="690.0" type="line"/>
      <point x="83.48235294117647" y="690.0" type="line"/>
      <point x="86.23529411764706" y="480.3058823529412" type="line"/>
      <point x="116.21176470588236" y="480.3058823529412" type="line"/>
    </contour>
  </outline>
</glyph>
<glyph name="parenleft" format="2">
  <advance width="356.1294117647059"/>
  <unicode hex="0028"/>
  <outline>
    <contour>
      <point x="308.8235294117647" y="790.0" type="line"/>
      <point x="141.11764705882354" y="715.6941176470589"/>
      <point x="65.04705882352941" y="565.6941176470589"/>
      <point x="65.04705882352941" y="312.0" type="curve" smooth="yes"/>
      <point x="65.04705882352941" y="60.305882352941175"/>
      <point x="141.11764705882354" y="-89.69411764705882"/>
      <point x="308.8235294117647" y="-165.0" type="curve"/>
      <point x="314.5176470588235" y="-141.16470588235293" type="line"/>
      <point x="171.09411764705882" y="-63.98823529411764"/>
      <point x="105.91764705882352" y="81.01176470588236"/>
      <point x="105.91764705882352" y="313.0" type="curve" smooth="yes"/>
      <point x="105.91764705882352" y="548.9882352941177"/>
      <point x="171.09411764705882" y="692.9882352941177"/>
      <point x="314.5176470588235" y="766.1647058823529" type="curve"/>
    </contour>
  </outline>
</glyph>
<glyph name="parenright" format="2">
  <advance width="356.1294117647059"/>
  <unicode hex="0029"/>
  <outline>
    <contour>
      <point x="47.305882352941175" y="790.0" type="curve"/>
      <point x="41.61176470588235" y="766.1647058823529" type="line"/>
      <point x="185.03529411764706" y="692.9882352941177"/>
      <point x="250.21176470588236" y="548.9882352941177"/>
      <point x="250.21176470588236" y="313.0" type="curve" smooth="yes"/>
      <point x="250.21176470588236" y="81.01176470588236"/>
      <point x="185.03529411764706" y="-63.98823529411764"/>
      <point x="41.61176470588235" y="-141.16470588235293" type="curve"/>
      <point x="47.305882352941175" y="-165.0" type="line"/>
      <point x="215.01176470588234" y="-89.69411764705882"/>
      <point x="291.08235294117645" y="60.305882352941175"/>
      <point x="291.08235294117645" y="312.0" type="curve" smooth="yes"/>
      <point x="291.08235294117645" y="565.6941176470589"/>
      <point x="215.01176470588234" y="715.6941176470589"/>
    </contour>
  </outline>
</glyph>
<glyph name="asterisk" format="2">
  <advance width="452.2470588235294"/>
  <unicode hex="002A"/>
  <outline>
    <contour>
      <point x="242.2" y="690.1882352941177" type="line"/>
      <point x="210.85882352941178" y="690.1882352941177" type="line"/>
      <point x="214.98823529411766" y="535.3058823529411" type="line"/>
      <point x="119.29411764705883" y="407.3058823529412" type="line"/>
      <point x="144.31764705882352" y="389.78823529411767" type="line"/>
      <point x="225.6235294117647" y="513.4117647058823" type="line"/>
      <point x="307.9294117647059" y="388.78823529411767" type="line"/>
      <point x="331.9529411764706" y="406.3058823529412" type="line"/>
      <point x="236.25882352941176" y="535.3058823529411" type="line"/>
    </contour>
    <contour>
      <point x="77.55294117647058" y="594.4470588235295" type="line"/>
      <point x="67.29411764705883" y="565.4823529411765" type="line"/>
      <point x="192.10588235294117" y="527.8" type="line"/>
      <point x="197.8" y="537.4941176470588" type="line"/>
      <point x="198.8" y="549.8823529411765" type="line"/>
    </contour>
    <contour>
      <point x="375.50588235294117" y="592.8235294117648" type="line"/>
      <point x="253.4470588235294" y="549.8823529411765" type="line"/>
      <point x="253.4470588235294" y="537.4941176470588" type="line"/>
      <point x="259.32941176470587" y="527.8" type="line"/>
      <point x="385.7647058823529" y="563.6705882352941" type="line"/>
    </contour>
  </outline>
</glyph>
<glyph name="plus" format="2">
  <advance width="552.435294117647"/>
  <unicode hex="002B"/>
  <outline>
    <contour>
      <point x="487.25882352941176" y="313.83529411764704" type="line"/>
      <point x="64.98823529411764" y="313.83529411764704" type="line"/>
      <point x="64.98823529411764" y="281.1058823529412" type="line"/>
      <point x="487.25882352941176" y="281.1058823529412" type="line"/>
    </contour>
    <contour>
      <point x="293.08235294117645" y="498.2" type="line"/>
      <point x="258.9764705882353" y="498.2" type="line"/>
      <point x="259.9764705882353" y="96.74117647058824" type="line"/>
      <point x="292.2705882352941" y="96.74117647058824" type="line"/>
    </contour>
  </outline>
</glyph>
<glyph name="comma" format="2">
  <advance width="213.08235294117648"/>
  <unicode hex="002C"/>
  <outline>
    <contour>
      <point x="113.70588235294117" y="94.28235294117647" type="curve" smooth="yes"/>
      <point x="100.56470588235294" y="94.28235294117647" type="line" smooth="yes"/>
      <point x="88.8" y="94.28235294117647"/>
      <point x="83.48235294117647" y="89.15294117647059"/>
      <point x="83.91764705882353" y="77.2" type="curve" smooth="yes"/>
      <point x="83.10588235294118" y="14.517647058823528" type="line" smooth="yes"/>
      <point x="82.29411764705883" y="5.694117647058824"/>
      <point x="87.61176470588235" y="0.0"/>
      <point x="94.43529411764706" y="0.0" type="curve"/>
      <point x="94.43529411764706" y="-50.43529411764706"/>
      <point x="92.87058823529412" y="-73.88235294117646"/>
      <point x="88.92941176470589" y="-114.07058823529411" type="curve"/>
      <point x="108.27058823529411" y="-120.76470588235294" type="line"/>
      <point x="121.90588235294118" y="-80.25882352941176"/>
      <point x="129.6" y="-28.258823529411764"/>
      <point x="130.6" y="13.2" type="curve" smooth="yes"/>
      <point x="131.2235294117647" y="77.2" type="line" smooth="yes"/>
      <point x="130.6" y="89.15294117647059"/>
      <point x="125.65882352941176" y="94.28235294117647"/>
    </contour>
  </outline>
</glyph>
<glyph name="period" format="2">
  <advance width="211.83529411764707"/>
  <unicode hex="002E"/>
  <outline>
    <contour>
      <point x="113.27058823529411" y="94.28235294117647" type="curve" smooth="yes"/>
      <point x="98.56470588235294" y="94.28235294117647" type="line" smooth="yes"/>
      <point x="86.61176470588235" y="94.28235294117647"/>
      <point x="81.48235294117647" y="89.15294117647059"/>
      <point x="81.48235294117647" y="77.2" type="curve" smooth="yes"/>
      <point x="81.48235294117647" y="17.08235294117647" type="line" smooth="yes"/>
      <point x="81.48235294117647" y="5.129411764705882"/>
      <point x="86.61176470588235" y="0.0"/>
      <point x="98.56470588235294" y="0.0" type="curve" smooth="yes"/>
      <point x="113.27058823529411" y="0.0" type="line" smooth="yes"/>
      <point x="125.2235294117647" y="0.0"/>
      <point x="130.35294117647058" y="5.129411764705882"/>
      <point x="130.35294117647058" y="17.08235294117647" type="curve" smooth="yes"/>
      <point x="130.35294117647058" y="77.2" type="line" smooth="yes"/>
      <point x="130.35294117647058" y="89.15294117647059"/>
      <point x="125.2235294117647" y="94.28235294117647"/>
    </contour>
  </outline>
</glyph>
<glyph name="slash" format="2">
  <advance width="500.0235294117647"/>
  <unicode hex="002F"/>
  <outline>
    <contour>
      <point x="464.84705882352944" y="690.0" type="line"/>
      <point x="428.1764705882353" y="690.0" type="line"/>
      <point x="35.17647058823529" y="-60.694117647058825" type="line"/>
      <point x="71.84705882352941" y="-60.694117647058825" type="line"/>
    </contour>
  </outline>
</glyph>
<glyph name="zero" format="2">
  <advance width="588.8941176470588"/>
  <unicode hex="0030"/>
  <outline>
    <contour>
      <point x="294.4470588235294" y="702.1882352941177" type="curve" smooth="yes"/>
      <point x="129.30588235294118" y="702.1882352941177"/>
      <point x="73.61176470588235" y="590.4470588235295"/>
      <point x="73.61176470588235" y="345.0" type="curve" smooth="yes"/>
      <point x="73.61176470588235" y="99.55294117647058"/>
      <point x="129.30588235294118" y="-12.188235294117646"/>
      <point x="294.4470588235294" y="-12.188235294117646" type="curve" smooth="yes"/>
      <point x="459.5882352941176" y="-12.188235294117646"/>
      <point x="515.2823529411764" y="99.55294117647058"/>
      <point x="515.2823529411764" y="345.0" type="curve" smooth="yes"/>
      <point x="515.2823529411764" y="590.4470588235295"/>
      <point x="459.5882352941176" y="702.1882352941177"/>
    </contour>
    <contour>
      <point x="294.25882352941176" y="665.4470588235295" type="curve" smooth="yes"/>
      <point x="429.4823529411765" y="665.4470588235295"/>
      <point x="473.84705882352944" y="566.7882352941176"/>
      <point x="473.84705882352944" y="345.0" type="curve" smooth="yes"/>
      <point x="473.84705882352944" y="123.21176470588236"/>
      <point x="429.4823529411765" y="24.55294117647059"/>
      <point x="294.25882352941176" y="24.55294117647059" type="curve" smooth="yes"/>
      <point x="159.41176470588235" y="24.55294117647059"/>
      <point x="115.04705882352941" y="123.21176470588236"/>
      <point x="115.04705882352941" y="345.0" type="curve" smooth="yes"/>
      <point x="115.04705882352941" y="566.7882352941176"/>
      <point x="159.41176470588235" y="665.4470588235295"/>
    </contour>
  </outline>
</glyph>
<glyph name="one" format="2">
  <advance width="383.2705882352941"/>
  <unicode hex="0031"/>
  <outline>
    <contour>
      <point x="260.035294117647" y="690.0" type="line"/>
      <point x="218.8470588235294" y="690.0" type="line"/>
      <point x="33.23529411764706" y="617.564705882353" type="line"/>
      <point x="39.92941176470588" y="588.9529411764706" type="line"/>
      <point x="222.2235294117647" y="649.3176470588236" type="line"/>
      <point x="219.8470588235294" y="633.0"/>
      <point x="218.8470588235294" y="616.0588235294117"/>
      <point x="218.8470588235294" y="599.7411764705882" type="curve" smooth="yes"/>
      <point x="218.8470588235294" y="0.0" type="line"/>
      <point x="260.035294117647" y="0.0" type="line"/>
    </contour>
  </outline>
</glyph>
<glyph name="two" format="2">
  <advance width="558.3176470588236"/>
  <unicode hex="0032"/>
  <outline>
    <contour>
      <point x="265.88235294117646" y="702.0" type="curve" smooth="yes"/>
      <point x="208.3764705882353" y="702.0"/>
      <point x="160.9294117647059" y="698.0"/>
      <point x="66.11764705882354" y="675.3764705882353" type="curve"/>
      <point x="72.11764705882354" y="644.3882352941176" type="line"/>
      <point x="157.49411764705883" y="661.2588235294118"/>
      <point x="204.49411764705883" y="664.8823529411765"/>
      <point x="267.8705882352941" y="664.8823529411765" type="curve" smooth="yes"/>
      <point x="361.16470588235296" y="664.8823529411765"/>
      <point x="423.08235294117645" y="655.4470588235295"/>
      <point x="426.70588235294116" y="566.1647058823529" type="curve" smooth="yes"/>
      <point x="429.5176470588235" y="487.49411764705883"/>
      <point x="388.5176470588235" y="413.3764705882353"/>
      <point x="297.0235294117647" y="308.5764705882353" type="curve" smooth="yes"/>
      <point x="67.37647058823529" y="44.752941176470586" type="line" smooth="yes"/>
      <point x="62.49411764705882" y="38.87058823529412"/>
      <point x="60.305882352941175" y="32.98823529411764"/>
      <point x="60.305882352941175" y="24.541176470588233" type="curve" smooth="yes"/>
      <point x="60.305882352941175" y="0.0" type="line"/>
      <point x="499.2" y="0.0" type="line"/>
      <point x="499.2" y="38.188235294117646" type="line"/>
      <point x="229.43529411764706" y="38.188235294117646" type="line" smooth="yes"/>
      <point x="190.56470588235294" y="38.188235294117646"/>
      <point x="150.3764705882353" y="38.0"/>
      <point x="111.50588235294117" y="37.247058823529414" type="curve"/>
      <point x="334.84705882352944" y="293.01176470588234" type="line" smooth="yes"/>
      <point x="427.47058823529414" y="399.50588235294117"/>
      <point x="469.70588235294116" y="469.05882352941177"/>
      <point x="469.70588235294116" y="561.1764705882352" type="curve" smooth="yes"/>
      <point x="469.70588235294116" y="680.8705882352941"/>
      <point x="394.8235294117647" y="702.0"/>
    </contour>
  </outline>
</glyph>
<glyph name="three" format="2">
  <advance width="553.1294117647059"/>
  <unicode hex="0033"/>
  <outline>
    <contour>
      <point x="249.8235294117647" y="702.1882352941177" type="curve" smooth="yes"/>
      <point x="188.69411764705882" y="702.1882352941177"/>
      <point x="133.43529411764706" y="696.1882352941177"/>
      <point x="69.11764705882354" y="685.0" type="curve"/>
      <point x="76.11764705882354" y="654.0117647058823" type="line"/>
      <point x="121.49411764705883" y="659.635294117647"/>
      <point x="183.87058823529412" y="665.0705882352942"/>
      <point x="247.43529411764706" y="665.0705882352942" type="curve" smooth="yes"/>
      <point x="374.28235294117644" y="665.0705882352942"/>
      <point x="415.45882352941175" y="639.0235294117647"/>
      <point x="418.08235294117645" y="537.1058823529412" type="curve" smooth="yes"/>
      <point x="418.2705882352941" y="471.67058823529413"/>
      <point x="405.0235294117647" y="384.70588235294116"/>
      <point x="273.36470588235295" y="382.2705882352941" type="curve" smooth="yes"/>
      <point x="144.74117647058824" y="379.83529411764704" type="line"/>
      <point x="144.74117647058824" y="348.84705882352944" type="line"/>
      <point x="273.36470588235295" y="348.0352941176471" type="line" smooth="yes"/>
      <point x="408.83529411764704" y="347.22352941176473"/>
      <point x="435.5176470588235" y="275.3764705882353"/>
      <point x="435.5176470588235" y="194.4470588235294" type="curve" smooth="yes"/>
      <point x="435.5176470588235" y="70.97647058823529"/>
      <point x="384.52941176470586" y="25.11764705882353"/>
      <point x="260.2352941176471" y="25.11764705882353" type="curve" smooth="yes"/>
      <point x="191.74117647058824" y="25.11764705882353"/>
      <point x="124.56470588235294" y="30.55294117647059"/>
      <point x="64.74117647058824" y="36.55294117647059" type="curve"/>
      <point x="58.741176470588236" y="5.0" type="line"/>
      <point x="124.87058823529412" y="-4.188235294117647"/>
      <point x="196.18823529411765" y="-12.188235294117646"/>
      <point x="267.3176470588235" y="-12.188235294117646" type="curve" smooth="yes"/>
      <point x="424.38823529411764" y="-12.188235294117646"/>
      <point x="479.32941176470587" y="55.05882352941177"/>
      <point x="476.5176470588235" y="192.0" type="curve" smooth="yes"/>
      <point x="474.5176470588235" y="281.6941176470588"/>
      <point x="445.08235294117645" y="350.0"/>
      <point x="350.5882352941176" y="365.0" type="curve"/>
      <point x="350.5882352941176" y="369.0" type="line"/>
      <point x="432.6470588235294" y="385.6235294117647"/>
      <point x="457.70588235294116" y="459.3058823529412"/>
      <point x="457.70588235294116" y="543.0" type="curve" smooth="yes"/>
      <point x="457.70588235294116" y="664.1882352941177"/>
      <point x="402.25882352941176" y="702.1882352941177"/>
    </contour>
  </outline>
</glyph>
<glyph name="four" format="2">
  <advance width="600.0823529411765"/>
  <unicode hex="0034"/>
  <outline>
    <contour>
      <point x="313.6470588235294" y="690.0" type="line"/>
      <point x="272.0235294117647" y="690.0" type="line"/>
      <point x="55.98823529411764" y="274.56470588235294" type="line" smooth="yes"/>
      <point x="35.04705882352941" y="233.8"/>
      <point x="61.92941176470588" y="189.03529411764706"/>
      <point x="107.07058823529411" y="189.03529411764706" type="curve" smooth="yes"/>
      <point x="452.4117647058824" y="189.03529411764706" type="line"/>
      <point x="547.9058823529411" y="194.35294117647058" type="line"/>
      <point x="547.9058823529411" y="223.83529411764707" type="line"/>
      <point x="124.1764705882353" y="223.83529411764707" type="line" smooth="yes"/>
      <point x="98.11764705882354" y="223.83529411764707"/>
      <point x="83.49411764705883" y="246.2"/>
      <point x="96.30588235294118" y="270.7647058823529" type="curve" smooth="yes"/>
    </contour>
    <contour>
      <point x="464.21176470588233" y="559.435294117647" type="line"/>
      <point x="433.4117647058824" y="559.435294117647" type="line"/>
      <point x="424.15294117647056" y="443.3764705882353" type="line"/>
      <point x="424.15294117647056" y="0.0" type="line"/>
      <point x="464.21176470588233" y="0.0" type="line"/>
    </contour>
  </outline>
</glyph>
<glyph name="five" format="2">
  <advance width="528.635294117647"/>
  <unicode hex="0035"/>
  <outline>
    <contour>
      <point x="443.6470588235294" y="690.0" type="line"/>
      <point x="101.55294117647058" y="690.0" type="line"/>
      <point x="87.17647058823529" y="394.81176470588235" type="line" smooth="yes"/>
      <point x="86.17647058823529" y="383.4235294117647"/>
      <point x="94.24705882352941" y="374.78823529411767"/>
      <point x="105.44705882352942" y="374.4117647058824" type="curve" smooth="yes"/>
      <point x="127.54117647058823" y="373.47058823529414" type="line" smooth="yes"/>
      <point x="341.98823529411766" y="370.6470588235294"/>
      <point x="424.21176470588233" y="361.77647058823527"/>
      <point x="423.6470588235294" y="203.94117647058823" type="curve" smooth="yes"/>
      <point x="423.2705882352941" y="95.96470588235294"/>
      <point x="396.21176470588233" y="24.49411764705882"/>
      <point x="242.9294117647059" y="24.49411764705882" type="curve" smooth="yes"/>
      <point x="196.9294117647059" y="24.49411764705882"/>
      <point x="129.9294117647059" y="32.92941176470588"/>
      <point x="68.74117647058824" y="46.98823529411764" type="curve"/>
      <point x="61.61176470588235" y="15.24705882352941" type="line"/>
      <point x="131.30588235294118" y="-3.1882352941176473"/>
      <point x="199.75294117647059" y="-12.0"/>
      <point x="249.63529411764705" y="-12.0" type="curve" smooth="yes"/>
      <point x="439.4470588235294" y="-12.0"/>
      <point x="463.6470588235294" y="95.37647058823529"/>
      <point x="463.6470588235294" y="203.94117647058823" type="curve" smooth="yes"/>
      <point x="463.83529411764704" y="371.54117647058825"/>
      <point x="379.91764705882355" y="402.0705882352941"/>
      <point x="184.81176470588235" y="407.70588235294116" type="curve" smooth="yes"/>
      <point x="124.91764705882352" y="409.21176470588233" type="line"/>
      <point x="136.35294117647058" y="654.2588235294118" type="line"/>
      <point x="440.45882352941175" y="654.2588235294118" type="line"/>
    </contour>
  </outline>
</glyph>
<glyph name="six" format="2">
  <advance width="566.0705882352942"/>
  <unicode hex="0036"/>
  <outline>
    <contour>
      <point x="334.0" y="702.0" type="curve" smooth="yes"/>
      <point x="151.18823529411765" y="702.0"/>
      <point x="77.23529411764706" y="651.3764705882353"/>
      <point x="77.23529411764706" y="308.5882352941176" type="curve" smooth="yes"/>
      <point x="77.23529411764706" y="71.49411764705883"/>
      <point x="109.30588235294118" y="-12.0"/>
      <point x="294.50588235294117" y="-12.0" type="curve" smooth="yes"/>
      <point x="474.5764705882353" y="-12.0"/>
      <point x="502.2705882352941" y="72.82352941176471"/>
      <point x="502.2705882352941" y="210.32941176470587" type="curve" smooth="yes"/>
      <point x="502.2705882352941" y="384.0705882352941"/>
      <point x="458.08235294117645" y="443.4470588235294"/>
      <point x="314.5176470588235" y="443.4470588235294" type="curve" smooth="yes"/>
      <point x="218.5176470588235" y="443.4470588235294"/>
      <point x="166.27058823529413" y="416.4470588235294"/>
      <point x="100.45882352941176" y="326.1294117647059" type="curve"/>
      <point x="104.45882352941176" y="302.78823529411767" type="line"/>
      <point x="179.64705882352942" y="387.21176470588233"/>
      <point x="231.4470588235294" y="408.6470588235294"/>
      <point x="307.2470588235294" y="408.6470588235294" type="curve" smooth="yes"/>
      <point x="430.71764705882356" y="408.6470588235294"/>
      <point x="462.0235294117647" y="353.78823529411767"/>
      <point x="462.0235294117647" y="212.57647058823528" type="curve" smooth="yes"/>
      <point x="462.0235294117647" y="92.6"/>
      <point x="441.09411764705885" y="23.741176470588236"/>
      <point x="295.50588235294117" y="23.741176470588236" type="curve" smooth="yes"/>
      <point x="137.2235294117647" y="23.741176470588236"/>
      <point x="118.85882352941177" y="101.71764705882353"/>
      <point x="118.85882352941177" y="305.5882352941176" type="curve" smooth="yes"/>
      <point x="118.85882352941177" y="616.6470588235294"/>
      <point x="170.41176470588235" y="665.635294117647"/>
      <point x="334.0" y="665.635294117647" type="curve" smooth="yes"/>
      <point x="386.63529411764705" y="665.635294117647"/>
      <point x="410.5764705882353" y="665.635294117647"/>
      <point x="450.2705882352941" y="659.3882352941176" type="curve"/>
      <point x="458.2705882352941" y="689.2470588235294" type="line"/>
      <point x="408.2" y="702.0"/>
      <point x="358.94117647058823" y="702.0"/>
    </contour>
  </outline>
</glyph>
<glyph name="seven" format="2">
  <advance width="506.88235294117646"/>
  <unicode hex="0037"/>
  <outline>
    <contour>
      <point x="426.1294117647059" y="690.0" type="curve" smooth="yes"/>
      <point x="45.55294117647059" y="690.0" type="line"/>
      <point x="48.11764705882353" y="654.4470588235295" type="line"/>
      <point x="423.38823529411764" y="654.4470588235295" type="line"/>
      <point x="418.25882352941176" y="640.5058823529412"/>
      <point x="412.6941176470588" y="627.1882352941177"/>
      <point x="408.3176470588235" y="613.0588235294117" type="curve" smooth="yes"/>
      <point x="195.71764705882353" y="0.0" type="line"/>
      <point x="236.90588235294118" y="0.0" type="line"/>
      <point x="460.08235294117645" y="643.9176470588235" type="line" smooth="yes"/>
      <point x="470.6470588235294" y="675.9882352941177"/>
      <point x="461.2" y="690.0"/>
    </contour>
  </outline>
</glyph>
<glyph name="eight" format="2">
  <advance width="610.0588235294117"/>
  <unicode hex="0038"/>
  <outline>
    <contour>
      <point x="305.43529411764706" y="698.564705882353" type="curve" smooth="yes"/>
      <point x="138.61176470588236" y="698.564705882353"/>
      <point x="95.23529411764706" y="642.564705882353"/>
      <point x="95.23529411764706" y="518.0" type="curve" smooth="yes"/>
      <point x="95.23529411764706" y="421.4470588235294"/>
      <point x="124.04705882352941" y="368.0"/>
      <point x="194.04705882352943" y="360.0" type="curve"/>
      <point x="194.04705882352943" y="356.0" type="line"/>
      <point x="109.29411764705883" y="347.0"/>
      <point x="80.85882352941177" y="286.5529411764706"/>
      <point x="80.85882352941177" y="172.0" type="curve" smooth="yes"/>
      <point x="80.85882352941177" y="42.31764705882353"/>
      <point x="127.4235294117647" y="-8.564705882352941"/>
      <point x="305.43529411764706" y="-8.564705882352941" type="curve" smooth="yes"/>
      <point x="486.4470588235294" y="-8.564705882352941"/>
      <point x="529.2" y="42.31764705882353"/>
      <point x="529.2" y="172.0" type="curve" smooth="yes"/>
      <point x="529.2" y="286.5529411764706"/>
      <point x="500.7647058823529" y="347.0"/>
      <point x="416.01176470588234" y="356.0" type="curve"/>
      <point x="416.01176470588234" y="360.0" type="line"/>
      <point x="486.01176470588234" y="368.0"/>
      <point x="514.8235294117648" y="421.4470588235294"/>
      <point x="514.8235294117648" y="518.0" type="curve" smooth="yes"/>
      <point x="514.8235294117648" y="642.564705882353"/>
      <point x="473.25882352941176" y="699.1882352941177"/>
    </contour>
    <contour>
      <point x="306.6235294117647" y="340.78823529411767" type="curve" smooth="yes"/>
      <point x="453.5882352941176" y="340.78823529411767"/>
      <point x="488.9529411764706" y="319.0352941176471"/>
      <point x="488.9529411764706" y="176.7058823529412" type="curve" smooth="yes"/>
      <point x="488.9529411764706" y="68.78823529411764"/>
      <point x="455.21176470588233" y="28.799999999999997"/>
      <point x="305.6235294117647" y="28.799999999999997" type="curve" smooth="yes"/>
      <point x="157.47058823529412" y="28.799999999999997"/>
      <point x="120.91764705882352" y="68.78823529411764"/>
      <point x="120.91764705882352" y="176.7058823529412" type="curve" smooth="yes"/>
      <point x="120.91764705882352" y="317.0352941176471"/>
      <point x="155.8470588235294" y="339.78823529411767"/>
    </contour>
    <contour>
      <point x="305.6235294117647" y="663.1411764705882" type="curve" smooth="yes"/>
      <point x="445.5882352941176" y="663.1411764705882"/>
      <point x="475.5176470588235" y="625.1529411764706"/>
      <point x="475.5176470588235" y="515.9294117647058" type="curve" smooth="yes"/>
      <point x="475.5176470588235" y="397.5882352941176"/>
      <point x="448.5882352941176" y="375.21176470588233"/>
      <point x="306.6235294117647" y="375.21176470588233" type="curve" smooth="yes"/>
      <point x="168.28235294117647" y="375.21176470588233"/>
      <point x="134.54117647058823" y="395.77647058823527"/>
      <point x="134.54117647058823" y="515.9294117647058" type="curve" smooth="yes"/>
      <point x="134.54117647058823" y="625.1529411764706"/>
      <point x="167.28235294117647" y="663.1411764705882"/>
    </contour>
  </outline>
</glyph>
<glyph name="nine" format="2">
  <advance width="566.8823529411765"/>
  <unicode hex="0039"/>
  <outline>
    <contour>
      <point x="271.50588235294117" y="702.0" type="curve" smooth="yes"/>
      <point x="108.56470588235294" y="702.0"/>
      <point x="63.8" y="617.6941176470589"/>
      <point x="63.98823529411764" y="471.5529411764706" type="curve" smooth="yes"/>
      <point x="63.98823529411764" y="329.6941176470588"/>
      <point x="110.4235294117647" y="246.5529411764706"/>
      <point x="249.36470588235295" y="246.5529411764706" type="curve" smooth="yes"/>
      <point x="344.5529411764706" y="246.5529411764706"/>
      <point x="396.8" y="273.5529411764706"/>
      <point x="462.61176470588236" y="363.8705882352941" type="curve"/>
      <point x="458.61176470588236" y="387.0235294117647" type="line"/>
      <point x="383.4235294117647" y="302.78823529411767"/>
      <point x="331.81176470588235" y="281.16470588235296"/>
      <point x="256.8235294117647" y="281.16470588235296" type="curve" smooth="yes"/>
      <point x="137.78823529411764" y="281.16470588235296"/>
      <point x="103.85882352941177" y="350.2705882352941"/>
      <point x="104.04705882352941" y="470.11764705882354" type="curve" smooth="yes"/>
      <point x="103.85882352941177" y="592.7176470588236"/>
      <point x="134.2235294117647" y="666.4470588235295"/>
      <point x="271.3176470588235" y="666.4470588235295" type="curve" smooth="yes"/>
      <point x="438.964705882353" y="666.4470588235295"/>
      <point x="444.77647058823527" y="589.0941176470589"/>
      <point x="444.77647058823527" y="352.1294117647059" type="curve" smooth="yes"/>
      <point x="444.77647058823527" y="69.62352941176471"/>
      <point x="386.2352941176471" y="24.55294117647059"/>
      <point x="229.25882352941176" y="24.55294117647059" type="curve" smooth="yes"/>
      <point x="168.43529411764706" y="24.55294117647059"/>
      <point x="148.9294117647059" y="26.176470588235297"/>
      <point x="106.23529411764706" y="30.799999999999997" type="curve"/>
      <point x="98.23529411764706" y="0.7529411764705882" type="line"/>
      <point x="152.68235294117648" y="-12.0"/>
      <point x="202.12941176470588" y="-12.0"/>
      <point x="229.4470588235294" y="-12.0" type="curve" smooth="yes"/>
      <point x="411.6470588235294" y="-12.0"/>
      <point x="485.83529411764704" y="38.88235294117647"/>
      <point x="486.0235294117647" y="353.81176470588235" type="curve" smooth="yes"/>
      <point x="486.0235294117647" y="617.564705882353"/>
      <point x="468.01176470588234" y="702.0"/>
    </contour>
  </outline>
</glyph>
<glyph name="less" format="2">
  <advance width="538.1764705882352"/>
  <unicode hex="003C"/>
  <outline>
    <contour>
      <point x="458.3764705882353" y="493.32941176470587" type="line"/>
      <point x="61.98823529411764" y="312.5882352941176" type="line"/>
      <point x="61.98823529411764" y="278.91764705882355" type="line"/>
      <point x="458.3764705882353" y="103.4235294117647" type="line"/>
      <point x="458.3764705882353" y="137.28235294117647" type="line"/>
      <point x="98.78823529411764" y="295.7529411764706" type="line"/>
      <point x="458.3764705882353" y="459.47058823529414" type="line"/>
    </contour>
  </outline>
</glyph>
<glyph name="equal" format="2">
  <advance width="588.0588235294117"/>
  <unicode hex="003D"/>
  <outline>
    <contour>
      <point x="505.25882352941176" y="413.0235294117647" type="line"/>
      <point x="82.8" y="413.0235294117647" type="line"/>
      <point x="82.8" y="380.29411764705884" type="line"/>
      <point x="505.25882352941176" y="380.29411764705884" type="line"/>
    </contour>
    <contour>
      <point x="505.25882352941176" y="201.21176470588236" type="line"/>
      <point x="82.8" y="201.21176470588236" type="line"/>
      <point x="82.8" y="168.4823529411765" type="line"/>
      <point x="505.25882352941176" y="168.4823529411765" type="line"/>
    </contour>
  </outline>
</glyph>
<glyph name="greater" format="2">
  <advance width="538.1764705882352"/>
  <unicode hex="003E"/>
  <outline>
    <contour>
      <point x="79.8" y="493.32941176470587" type="line"/>
      <point x="79.8" y="459.47058823529414" type="line"/>
      <point x="439.38823529411764" y="295.7529411764706" type="line"/>
      <point x="79.8" y="137.28235294117647" type="line"/>
      <point x="79.8" y="103.4235294117647" type="line"/>
      <point x="476.18823529411765" y="278.91764705882355" type="line"/>
      <point x="476.18823529411765" y="312.5882352941176" type="line"/>
    </contour>
  </outline>
</glyph>
<glyph name="question" format="2">
  <advance width="506.43529411764706"/>
  <unicode hex="003F"/>
  <outline>
    <contour>
      <point x="254.69411764705882" y="712.0" type="curve" smooth="yes"/>
      <point x="142.43529411764706" y="712.0"/>
      <point x="112.68235294117648" y="703.6235294117647"/>
      <point x="47.36470588235294" y="693.2470588235294" type="curve"/>
      <point x="52.36470588235294" y="664.1411764705882" type="line"/>
      <point x="119.36470588235294" y="672.3882352941176"/>
      <point x="149.5529411764706" y="677.0117647058823"/>
      <point x="250.1764705882353" y="677.0117647058823" type="curve" smooth="yes"/>
      <point x="360.77647058823527" y="677.0117647058823"/>
      <point x="411.2" y="637.8352941176471"/>
      <point x="410.63529411764705" y="553.2352941176471" type="curve" smooth="yes"/>
      <point x="409.88235294117646" y="419.32941176470587"/>
      <point x="226.90588235294118" y="396.6235294117647"/>
      <point x="227.8470588235294" y="205.0705882352941" type="curve"/>
      <point x="264.45882352941175" y="205.0705882352941" type="line"/>
      <point x="265.9647058823529" y="380.94117647058823"/>
      <point x="452.38823529411764" y="404.7529411764706"/>
      <point x="452.38823529411764" y="557.0" type="curve" smooth="yes"/>
      <point x="452.38823529411764" y="663.0"/>
      <point x="384.38823529411764" y="712.0"/>
    </contour>
    <contour>
      <point x="251.94117647058823" y="94.28235294117647" type="curve" smooth="yes"/>
      <point x="238.74117647058824" y="94.28235294117647" type="line" smooth="yes"/>
      <point x="226.78823529411764" y="94.28235294117647"/>
      <point x="221.65882352941176" y="89.15294117647059"/>
      <point x="221.65882352941176" y="77.2" type="curve" smooth="yes"/>
      <point x="221.65882352941176" y="17.08235294117647" type="line" smooth="yes"/>
      <point x="221.65882352941176" y="5.129411764705882"/>
      <point x="226.78823529411764" y="0.0"/>
      <point x="238.74117647058824" y="0.0" type="curve" smooth="yes"/>
      <point x="251.94117647058823" y="0.0" type="line" smooth="yes"/>
      <point x="263.8941176470588" y="0.0"/>
      <point x="269.0235294117647" y="5.129411764705882"/>
      <point x="269.0235294117647" y="17.08235294117647" type="curve" smooth="yes"/>
      <point x="269.0235294117647" y="77.2" type="line" smooth="yes"/>
      <point x="269.0235294117647" y="89.15294117647059"/>
      <point x="263.8941176470588" y="94.28235294117647"/>
    </contour>
  </outline>
</glyph>
<glyph name="at" format="2">
  <advance width="699.4"/>
  <unicode hex="0040"/>
  <outline>
    <contour>
      <point x="481.70588235294116" y="571.5176470588235" type="curve" smooth="yes"/>
      <point x="340.7647058823529" y="571.5176470588235" type="line" smooth="yes"/>
      <point x="114.04705882352941" y="569.7058823529412"/>
      <point x="89.10588235294118" y="536.3882352941176"/>
      <point x="89.10588235294118" y="264.56470588235294" type="curve" smooth="yes"/>
      <point x="89.10588235294118" y="-17.50588235294118"/>
      <point x="117.23529411764706" y="-53.44705882352941"/>
      <point x="369.0235294117647" y="-49.82352941176471" type="curve" smooth="yes"/>
      <point x="450.52941176470586" y="-49.82352941176471"/>
      <point x="532.035294117647" y="-48.258823529411764"/>
      <point x="613.3529411764706" y="-45.50588235294118" type="curve"/>
      <point x="613.3529411764706" y="-15.023529411764706" type="line"/>
      <point x="368.0235294117647" y="-15.023529411764706" type="line" smooth="yes"/>
      <point x="152.6" y="-15.023529411764706"/>
      <point x="127.78823529411764" y="-0.470588235294116"/>
      <point x="127.78823529411764" y="265.3764705882353" type="curve" smooth="yes"/>
      <point x="127.78823529411764" y="522.2235294117647"/>
      <point x="153.03529411764706" y="536.9058823529411"/>
      <point x="341.5764705882353" y="536.9058823529411" type="curve" smooth="yes"/>
      <point x="476.94117647058823" y="536.9058823529411" type="line" smooth="yes"/>
      <point x="557.8588235294118" y="537.7176470588236"/>
      <point x="580.7294117647059" y="500.36470588235295"/>
      <point x="580.7294117647059" y="447.36470588235295" type="curve" smooth="yes"/>
      <point x="580.7294117647059" y="385.1411764705882" type="line"/>
      <point x="348.5764705882353" y="385.1411764705882" type="line" smooth="yes"/>
      <point x="275.63529411764705" y="385.1411764705882"/>
      <point x="234.38823529411764" y="349.2"/>
      <point x="234.38823529411764" y="285.8235294117647" type="curve" smooth="yes"/>
      <point x="234.38823529411764" y="232.57647058823528" type="line" smooth="yes"/>
      <point x="234.38823529411764" y="162.56470588235294"/>
      <point x="282.2705882352941" y="124.0"/>
      <point x="360.08235294117645" y="124.0" type="curve" smooth="yes"/>
      <point x="449.2" y="124.0"/>
      <point x="543.1176470588235" y="173.05882352941177"/>
      <point x="582.8" y="209.24705882352941" type="curve"/>
      <point x="588.7411764705882" y="129.75294117647059" type="line"/>
      <point x="617.7882352941176" y="129.75294117647059" type="line"/>
      <point x="617.7882352941176" y="448.11764705882354" type="line" smooth="yes"/>
      <point x="617.7882352941176" y="537.2"/>
      <point x="566.4705882352941" y="571.5176470588235"/>
    </contour>
    <contour>
      <point x="580.7294117647059" y="359.1058823529412" type="line"/>
      <point x="580.7294117647059" y="237.96470588235294" type="line"/>
      <point x="526.7411764705882" y="192.90588235294118"/>
      <point x="434.32941176470587" y="157.04705882352943"/>
      <point x="363.4117647058824" y="157.85882352941178" type="curve" smooth="yes"/>
      <point x="304.05882352941177" y="158.67058823529413"/>
      <point x="272.6941176470588" y="184.8470588235294"/>
      <point x="272.6941176470588" y="237.1529411764706" type="curve" smooth="yes"/>
      <point x="272.6941176470588" y="283.18823529411765" type="line" smooth="yes"/>
      <point x="272.6941176470588" y="329.74117647058824"/>
      <point x="300.9294117647059" y="353.1058823529412"/>
      <point x="356.1058823529412" y="355.1058823529412" type="curve" smooth="yes"/>
    </contour>
  </outline>
</glyph>
<glyph name="A" format="2">
  <advance width="607.8941176470588"/>
  <unicode hex="0041"/>
  <anchor x="303.4470588235294" y="-12.0" name="bottom"/>
  <anchor x="591.1529411764706" y="0.0" name="ogonek"/>
  <anchor x="304.4470588235294" y="736.6117647058824" name="top"/>
  <outline>
    <contour>
      <point x="331.84705882352944" y="690.0" type="curve" smooth="yes"/>
      <point x="276.0470588235294" y="690.0" type="line" smooth="yes"/>
      <point x="267.6" y="690.0"/>
      <point x="260.52941176470586" y="685.4941176470588"/>
      <point x="257.964705882353" y="677.0470588235294" type="curve" smooth="yes"/>
      <point x="16.741176470588236" y="0.0" type="line"/>
      <point x="60.11764705882353" y="0.0" type="line"/>
      <point x="270.38823529411764" y="600.1411764705882" type="line" smooth="yes"/>
      <point x="277.01176470588234" y="618.9529411764706"/>
      <point x="283.01176470588234" y="637.3294117647059"/>
      <point x="289.63529411764705" y="656.1411764705882" type="curve"/>
      <point x="318.25882352941176" y="656.1411764705882" type="line"/>
      <point x="324.6941176470588" y="637.3294117647059"/>
      <point x="330.88235294117646" y="618.9529411764706"/>
      <point x="337.50588235294117" y="600.1411764705882" type="curve" smooth="yes"/>
      <point x="547.7764705882353" y="0.0" type="line"/>
      <point x="591.1529411764706" y="0.0" type="line"/>
      <point x="349.9294117647059" y="677.0470588235294" type="line" smooth="yes"/>
      <point x="347.36470588235295" y="685.4941176470588"/>
      <point x="340.29411764705884" y="690.0"/>
    </contour>
    <contour>
      <point x="478.4470588235294" y="278.5176470588235" type="line"/>
      <point x="128.4470588235294" y="278.5176470588235" type="line"/>
      <point x="128.4470588235294" y="242.58823529411765" type="line"/>
      <point x="478.4470588235294" y="242.58823529411765" type="line"/>
    </contour>
  </outline>
</glyph>
<glyph name="B" format="2">
  <advance width="614.0705882352942"/>
  <unicode hex="0042"/>
  <outline>
    <contour>
      <point x="300.5764705882353" y="698.0" type="curve" smooth="yes"/>
      <point x="207.56470588235294" y="698.0"/>
      <point x="162.74117647058824" y="697.0"/>
      <point x="98.85882352941177" y="690.0" type="curve"/>
      <point x="112.85882352941177" y="658.635294117647" type="line"/>
      <point x="141.0" y="661.0117647058823"/>
      <point x="209.0" y="661.635294117647"/>
      <point x="299.63529411764705" y="661.635294117647" type="curve" smooth="yes"/>
      <point x="434.9764705882353" y="661.635294117647"/>
      <point x="483.4" y="634.5176470588235"/>
      <point x="483.4" y="515.364705882353" type="curve" smooth="yes"/>
      <point x="483.4" y="402.32941176470587"/>
      <point x="439.6" y="374.83529411764704"/>
      <point x="318.1294117647059" y="374.0235294117647" type="curve" smooth="yes"/>
      <point x="111.85882352941177" y="374.0235294117647" type="line"/>
      <point x="111.85882352941177" y="340.9764705882353" type="line"/>
      <point x="318.3176470588235" y="340.9764705882353" type="line" smooth="yes"/>
      <point x="454.22352941176473" y="339.16470588235296"/>
      <point x="502.6470588235294" y="305.0470588235294"/>
      <point x="502.6470588235294" y="175.76470588235293" type="curve" smooth="yes"/>
      <point x="502.6470588235294" y="55.67058823529412"/>
      <point x="457.0352941176471" y="28.364705882352943"/>
      <point x="327.3764705882353" y="28.364705882352943" type="curve" smooth="yes"/>
      <point x="223.30588235294118" y="28.364705882352943"/>
      <point x="141.23529411764707" y="29.364705882352943"/>
      <point x="112.85882352941177" y="31.364705882352943" type="curve"/>
      <point x="98.85882352941177" y="0.0" type="line"/>
      <point x="171.74117647058824" y="-7.0"/>
      <point x="223.3764705882353" y="-8.0"/>
      <point x="330.7647058823529" y="-8.0" type="curve" smooth="yes"/>
      <point x="487.32941176470587" y="-8.0"/>
      <point x="544.8352941176471" y="30.0"/>
      <point x="544.8352941176471" y="172.0" type="curve" smooth="yes"/>
      <point x="544.8352941176471" y="282.0"/>
      <point x="510.6470588235294" y="347.0"/>
      <point x="407.6470588235294" y="356.0" type="curve"/>
      <point x="407.6470588235294" y="360.0" type="line"/>
      <point x="489.83529411764704" y="368.0"/>
      <point x="524.6470588235294" y="419.0"/>
      <point x="524.6470588235294" y="518.0" type="curve" smooth="yes"/>
      <point x="524.6470588235294" y="660.0"/>
      <point x="465.2705882352941" y="698.0"/>
    </contour>
    <contour>
      <point x="139.67058823529413" y="690.0" type="line"/>
      <point x="98.85882352941177" y="690.0" type="line"/>
      <point x="98.85882352941177" y="0.0" type="line"/>
      <point x="139.67058823529413" y="0.0" type="line"/>
    </contour>
  </outline>
</glyph>
<glyph name="C" format="2">
  <advance width="563.4470588235295"/>
  <unicode hex="0043"/>
  <anchor x="329.3058823529412" y="-12.0" name="bottom"/>
  <anchor x="321.6235294117647" y="738.4941176470588" name="top"/>
  <outline>
    <contour>
      <point x="331.18823529411765" y="702.0" type="curve" smooth="yes"/>
      <point x="139.5529411764706" y="702.0"/>
      <point x="72.23529411764706" y="608.0"/>
      <point x="72.23529411764706" y="345.0" type="curve" smooth="yes"/>
      <point x="72.23529411764706" y="82.0"/>
      <point x="139.5529411764706" y="-12.0"/>
      <point x="331.18823529411765" y="-12.0" type="curve" smooth="yes"/>
      <point x="416.88235294117646" y="-12.0"/>
      <point x="468.63529411764705" y="-5.811764705882353"/>
      <point x="522.9529411764706" y="7.317647058823529" type="curve"/>
      <point x="516.0117647058823" y="37.741176470588236" type="line"/>
      <point x="463.0705882352941" y="28.929411764705883"/>
      <point x="412.50588235294117" y="25.305882352941175"/>
      <point x="331.18823529411765" y="25.305882352941175" type="curve" smooth="yes"/>
      <point x="170.41176470588235" y="25.305882352941175"/>
      <point x="115.36470588235295" y="106.78823529411764"/>
      <point x="115.36470588235295" y="345.0" type="curve" smooth="yes"/>
      <point x="115.36470588235295" y="583.2117647058824"/>
      <point x="170.41176470588235" y="664.6941176470589"/>
      <point x="331.18823529411765" y="664.6941176470589" type="curve" smooth="yes"/>
      <point x="407.50588235294117" y="664.6941176470589"/>
      <point x="445.0705882352941" y="661.8823529411765"/>
      <point x="502.01176470588234" y="653.635294117647" type="curve"/>
      <point x="508.9529411764706" y="684.2470588235294" type="line"/>
      <point x="455.63529411764705" y="696.8117647058823"/>
      <point x="412.25882352941176" y="702.0"/>
    </contour>
  </outline>
</glyph>
<glyph name="D" format="2">
  <advance width="660.3176470588236"/>
  <unicode hex="0044"/>
  <anchor x="321.56470588235294" y="-12.0" name="bottom"/>
  <anchor x="322.49411764705883" y="738.4941176470588" name="top"/>
  <outline>
    <contour>
      <point x="332.18823529411765" y="699.0" type="curve" smooth="yes"/>
      <point x="243.11764705882354" y="699.0"/>
      <point x="166.36470588235295" y="695.0"/>
      <point x="98.85882352941177" y="690.0" type="curve"/>
      <point x="116.2" y="658.635294117647" type="line"/>
      <point x="180.4470588235294" y="660.2588235294118"/>
      <point x="247.12941176470588" y="662.2588235294118"/>
      <point x="332.18823529411765" y="662.2588235294118" type="curve" smooth="yes"/>
      <point x="489.52941176470586" y="662.2588235294118"/>
      <point x="544.7647058823529" y="580.5882352941177"/>
      <point x="544.7647058823529" y="345.0" type="curve" smooth="yes"/>
      <point x="544.7647058823529" y="109.41176470588235"/>
      <point x="489.52941176470586" y="27.929411764705883"/>
      <point x="332.18823529411765" y="27.929411764705883" type="curve" smooth="yes"/>
      <point x="247.56470588235294" y="27.929411764705883"/>
      <point x="180.18823529411765" y="29.929411764705883"/>
      <point x="118.25882352941176" y="31.11764705882353" type="curve"/>
      <point x="98.85882352941177" y="0.0" type="line"/>
      <point x="167.1764705882353" y="-5.0"/>
      <point x="242.49411764705883" y="-9.0"/>
      <point x="332.18823529411765" y="-9.0" type="curve" smooth="yes"/>
      <point x="520.5764705882353" y="-9.0"/>
      <point x="587.8941176470588" y="83.30588235294118"/>
      <point x="587.8941176470588" y="345.0" type="curve" smooth="yes"/>
      <point x="587.8941176470588" y="606.6941176470589"/>
      <point x="520.5764705882353" y="699.0"/>
    </contour>
    <contour>
      <point x="140.04705882352943" y="690.0" type="line"/>
      <point x="98.85882352941177" y="690.0" type="line"/>
      <point x="98.85882352941177" y="0.0" type="line"/>
      <point x="140.04705882352943" y="0.0" type="line"/>
    </contour>
  </outline>
</glyph>
<glyph name="E" format="2">
  <advance width="553.4470588235295"/>
  <unicode hex="0045"/>
  <guideline x="164.91764705882352" y="576.964705882353" angle="0.0"/>
  <anchor x="297.7529411764706" y="0.0" name="bottom"/>
  <anchor x="497.32941176470587" y="4.376470588235295" name="ogonek"/>
  <anchor x="310.0" y="760.4823529411765" name="top"/>
  <outline>
    <contour>
      <point x="202.95294117647057" y="690.3764705882353" type="curve" smooth="yes"/>
      <point x="138.30588235294118" y="690.3764705882353"/>
      <point x="93.04705882352941" y="646.435294117647"/>
      <point x="92.85882352941177" y="583.6705882352941" type="curve" smooth="yes"/>
      <point x="92.85882352941177" y="106.32941176470588" type="line" smooth="yes"/>
      <point x="93.04705882352941" y="43.56470588235294"/>
      <point x="138.11764705882354" y="-0.3764705882352941"/>
      <point x="202.95294117647057" y="-0.3764705882352941" type="curve" smooth="yes"/>
      <point x="301.1411764705882" y="-0.3764705882352941"/>
      <point x="400.83529411764704" y="-0.3764705882352941"/>
      <point x="497.32941176470587" y="4.376470588235295" type="curve"/>
      <point x="494.7647058823529" y="35.1764705882353" type="line"/>
      <point x="210.4" y="35.1764705882353" type="line" smooth="yes"/>
      <point x="164.28235294117647" y="35.1764705882353"/>
      <point x="134.23529411764707" y="65.6"/>
      <point x="134.23529411764707" y="113.2235294117647" type="curve" smooth="yes"/>
      <point x="134.23529411764707" y="576.5882352941177" type="line" smooth="yes"/>
      <point x="134.23529411764707" y="624.2117647058824"/>
      <point x="164.28235294117647" y="654.635294117647"/>
      <point x="210.4" y="654.635294117647" type="curve" smooth="yes"/>
      <point x="494.7647058823529" y="654.635294117647" type="line"/>
      <point x="497.32941176470587" y="685.6235294117647" type="line"/>
      <point x="400.83529411764704" y="690.3764705882353"/>
      <point x="301.1411764705882" y="690.3764705882353"/>
    </contour>
    <contour>
      <point x="110.04705882352941" y="385.8941176470588" type="line"/>
      <point x="110.04705882352941" y="351.28235294117644" type="line"/>
      <point x="454.32941176470587" y="352.09411764705885" type="line"/>
      <point x="454.32941176470587" y="385.08235294117645" type="line"/>
    </contour>
  </outline>
</glyph>
<glyph name="F" format="2">
  <advance width="532.2588235294118"/>
  <unicode hex="0046"/>
  <outline>
    <contour>
      <point x="206.14117647058822" y="690.3764705882353" type="curve" smooth="yes"/>
      <point x="141.49411764705883" y="690.3764705882353"/>
      <point x="96.04705882352941" y="646.6235294117647"/>
      <point x="96.04705882352941" y="582.5411764705882" type="curve" smooth="yes"/>
      <point x="96.04705882352941" y="0.0" type="line"/>
      <point x="137.42352941176472" y="0.0" type="line"/>
      <point x="137.42352941176472" y="576.5882352941177" type="line" smooth="yes"/>
      <point x="137.42352941176472" y="624.2117647058824"/>
      <point x="167.8470588235294" y="654.635294117647"/>
      <point x="215.47058823529412" y="654.635294117647" type="curve" smooth="yes"/>
      <point x="490.2" y="654.635294117647" type="line"/>
      <point x="492.9529411764706" y="685.435294117647" type="line"/>
      <point x="398.6470588235294" y="690.3764705882353"/>
      <point x="302.1411764705882" y="690.3764705882353"/>
    </contour>
    <contour>
      <point x="113.04705882352941" y="380.38823529411764" type="line"/>
      <point x="113.04705882352941" y="345.5882352941176" type="line"/>
      <point x="449.9529411764706" y="346.4" type="line"/>
      <point x="449.9529411764706" y="379.5764705882353" type="line"/>
    </contour>
  </outline>
</glyph>
<glyph name="H" format="2">
  <advance width="659.8235294117648"/>
  <unicode hex="0048"/>
  <anchor x="331.1294117647059" y="0.0" name="bottom"/>
  <anchor x="329.0" y="345.0" name="center"/>
  <anchor x="331.1294117647059" y="744.2470588235294" name="top"/>
  <outline>
    <contour>
      <point x="140.04705882352943" y="690.0" type="line"/>
      <point x="98.85882352941177" y="690.0" type="line"/>
      <point x="98.85882352941177" y="0.0" type="line"/>
      <point x="140.04705882352943" y="0.0" type="line"/>
    </contour>
    <contour>
      <point x="530.5882352941177" y="387.5882352941176" type="line"/>
      <point x="132.04705882352943" y="387.5882352941176" type="line"/>
      <point x="132.04705882352943" y="351.6588235294118" type="line"/>
      <point x="530.5882352941177" y="351.6588235294118" type="line"/>
    </contour>
    <contour>
      <point x="560.964705882353" y="690.0" type="line"/>
      <point x="519.7764705882353" y="690.0" type="line"/>
      <point x="519.7764705882353" y="0.0" type="line"/>
      <point x="560.964705882353" y="0.0" type="line"/>
    </contour>
  </outline>
</glyph>
<glyph name="I" format="2">
  <advance width="238.90588235294118"/>
  <unicode hex="0049"/>
  <anchor x="118.38823529411765" y="0.0" name="bottom"/>
  <anchor x="137.6" y="0.0" name="ogonek"/>
  <anchor x="119.14117647058823" y="738.4941176470588" name="top"/>
  <outline>
    <contour>
      <point x="140.04705882352943" y="690.0" type="line"/>
      <point x="98.85882352941177" y="690.0" type="line"/>
      <point x="98.85882352941177" y="0.0" type="line"/>
      <point x="140.04705882352943" y="0.0" type="line"/>
    </contour>
  </outline>
</glyph>
<glyph name="J" format="2">
  <advance width="328.1411764705882"/>
  <unicode hex="004A"/>
  <anchor x="204.94117647058823" y="-0.8117647058823529" name="bottom"/>
  <anchor x="208.94117647058823" y="742.5529411764705" name="top"/>
  <outline>
    <contour>
      <point x="232.28235294117647" y="690.0" type="line"/>
      <point x="191.09411764705882" y="690.0" type="line"/>
      <point x="191.09411764705882" y="122.58823529411765" type="line" smooth="yes"/>
      <point x="191.09411764705882" y="60.10588235294118"/>
      <point x="159.9764705882353" y="28.988235294117644"/>
      <point x="96.55294117647058" y="28.988235294117644" type="curve" smooth="yes"/>
      <point x="40.62352941176471" y="28.988235294117644" type="line"/>
      <point x="35.92941176470588" y="0.9411764705882355" type="line"/>
      <point x="55.05882352941177" y="-3.1882352941176473"/>
      <point x="87.2" y="-6.752941176470588"/>
      <point x="107.27058823529411" y="-6.752941176470588" type="curve" smooth="yes"/>
      <point x="190.4" y="-7.564705882352941"/>
      <point x="232.28235294117647" y="37.44705882352941"/>
      <point x="232.28235294117647" y="122.71764705882353" type="curve" smooth="yes"/>
    </contour>
  </outline>
</glyph>
<glyph name="K" format="2">
  <advance width="569.5294117647059"/>
  <unicode hex="004B"/>
  <anchor x="287.63529411764705" y="0.0" name="bottom"/>
  <anchor x="288.38823529411764" y="697.9058823529411" name="top"/>
  <outline>
    <contour>
      <point x="523.8588235294118" y="690.0" type="line"/>
      <point x="476.7294117647059" y="690.0" type="line"/>
      <point x="230.24705882352941" y="360.18823529411765" type="line"/>
      <point x="492.4117647058824" y="0.0" type="line"/>
      <point x="540.1058823529412" y="0.0" type="line"/>
      <point x="301.8941176470588" y="329.22352941176473" type="line" smooth="yes"/>
      <point x="293.1411764705882" y="340.91764705882355"/>
      <point x="282.63529411764705" y="350.98823529411766"/>
      <point x="274.43529411764706" y="358.6235294117647" type="curve"/>
      <point x="274.43529411764706" y="360.81176470588235" type="line"/>
      <point x="282.4470588235294" y="367.8235294117647"/>
      <point x="291.63529411764705" y="377.2"/>
      <point x="300.5764705882353" y="389.8941176470588" type="curve" smooth="yes"/>
    </contour>
    <contour>
      <point x="139.23529411764707" y="690.0" type="line"/>
      <point x="98.85882352941177" y="690.0" type="line"/>
      <point x="98.85882352941177" y="0.0" type="line"/>
      <point x="139.23529411764707" y="0.0" type="line"/>
      <point x="139.23529411764707" y="259.8" type="line" smooth="yes"/>
      <point x="139.23529411764707" y="293.36470588235295"/>
      <point x="137.91764705882352" y="324.43529411764706"/>
      <point x="133.78823529411764" y="361.0" type="curve"/>
      <point x="137.4823529411765" y="396.94117647058823"/>
      <point x="139.23529411764707" y="422.9529411764706"/>
      <point x="139.23529411764707" y="459.2705882352941" type="curve" smooth="yes"/>
    </contour>
    <contour>
      <point x="261.8941176470588" y="377.21176470588233" type="line"/>
      <point x="120.09411764705882" y="377.21176470588233" type="line"/>
      <point x="120.09411764705882" y="342.6" type="line"/>
      <point x="261.8941176470588" y="342.6" type="line"/>
    </contour>
  </outline>
</glyph>
<glyph name="L" format="2">
  <advance width="508.6941176470588"/>
  <unicode hex="004C"/>
  <anchor x="297.94117647058823" y="0.0" name="bottom"/>
  <anchor x="119.76470588235294" y="742.5529411764705" name="top"/>
  <outline>
    <contour>
      <point x="137.23529411764707" y="690.0" type="line"/>
      <point x="96.04705882352941" y="690.0" type="line"/>
      <point x="96.04705882352941" y="108.96470588235294" type="line" smooth="yes"/>
      <point x="96.04705882352941" y="45.82352941176471"/>
      <point x="137.72941176470587" y="-0.3764705882352941"/>
      <point x="207.83529411764707" y="-0.3764705882352941" type="curve" smooth="yes"/>
      <point x="299.2705882352941" y="-0.3764705882352941"/>
      <point x="391.70588235294116" y="-0.18823529411764706"/>
      <point x="482.38823529411764" y="4.564705882352941" type="curve"/>
      <point x="481.4470588235294" y="35.36470588235294" type="line"/>
      <point x="215.28235294117647" y="35.36470588235294" type="line" smooth="yes"/>
      <point x="167.65882352941176" y="35.36470588235294"/>
      <point x="137.23529411764707" y="65.78823529411764"/>
      <point x="137.23529411764707" y="113.41176470588235" type="curve" smooth="yes"/>
    </contour>
  </outline>
</glyph>
<glyph name="M" format="2">
  <advance width="859.8352941176471"/>
  <unicode hex="004D"/>
  <anchor x="430.4470588235294" y="0.0" name="bottom"/>
  <anchor x="426.32941176470587" y="738.4941176470588" name="top"/>
  <outline>
    <contour>
      <point x="725.5176470588235" y="690.0" type="curve" smooth="yes"/>
      <point x="669.0235294117647" y="690.0" type="line" smooth="yes"/>
      <point x="659.2588235294118" y="690.0"/>
      <point x="652.3764705882353" y="685.1176470588235"/>
      <point x="649.4352941176471" y="675.5411764705882" type="curve" smooth="yes"/>
      <point x="475.2470588235294" y="194.18823529411765" type="line" smooth="yes"/>
      <point x="463.81176470588235" y="162.0"/>
      <point x="452.94117647058823" y="130.56470588235294"/>
      <point x="441.88235294117646" y="98.56470588235294" type="curve"/>
      <point x="417.7647058823529" y="98.56470588235294" type="line"/>
      <point x="406.70588235294116" y="129.75294117647059"/>
      <point x="396.6470588235294" y="161.18823529411765"/>
      <point x="385.21176470588233" y="192.3764705882353" type="curve" smooth="yes"/>
      <point x="210.21176470588236" y="675.5411764705882" type="line" smooth="yes"/>
      <point x="207.2705882352941" y="685.1176470588235"/>
      <point x="200.57647058823528" y="690.0"/>
      <point x="191.0" y="690.0" type="curve" smooth="yes"/>
      <point x="134.12941176470588" y="690.0" type="line" smooth="yes"/>
      <point x="121.36470588235294" y="690.0"/>
      <point x="113.67058823529412" y="682.1176470588235"/>
      <point x="113.48235294117647" y="669.3529411764706" type="curve" smooth="yes"/>
      <point x="84.23529411764706" y="0.0" type="line"/>
      <point x="125.4235294117647" y="0.0" type="line"/>
      <point x="153.91764705882352" y="654.8235294117648" type="line"/>
      <point x="176.78823529411764" y="654.8235294117648" type="line"/>
      <point x="384.34117647058827" y="79.16470588235293" type="line" smooth="yes"/>
      <point x="387.28235294117644" y="69.58823529411765"/>
      <point x="394.3529411764706" y="64.70588235294117"/>
      <point x="404.11764705882354" y="64.70588235294117" type="curve" smooth="yes"/>
      <point x="455.71764705882356" y="64.70588235294117" type="line" smooth="yes"/>
      <point x="465.4823529411765" y="64.70588235294117"/>
      <point x="472.36470588235295" y="69.58823529411765"/>
      <point x="475.3058823529412" y="79.16470588235293" type="curve" smooth="yes"/>
      <point x="682.6705882352941" y="654.8235294117648" type="line"/>
      <point x="705.7294117647059" y="654.8235294117648" type="line"/>
      <point x="734.6" y="0.0" type="line"/>
      <point x="775.7882352941176" y="0.0" type="line"/>
      <point x="746.1647058823529" y="669.3529411764706" type="line" smooth="yes"/>
      <point x="745.9764705882353" y="682.1176470588235"/>
      <point x="738.2823529411764" y="690.0"/>
    </contour>
  </outline>
</glyph>
<glyph name="N" format="2">
  <advance width="692.3294117647059"/>
  <unicode hex="004E"/>
  <anchor x="347.9529411764706" y="0.0" name="bottom"/>
  <anchor x="359.50588235294117" y="738.4941176470588" name="top"/>
  <outline>
    <contour>
      <point x="593.4705882352941" y="690.0" type="line"/>
      <point x="552.4705882352941" y="690.0" type="line"/>
      <point x="552.4705882352941" y="132.14117647058822" type="line" smooth="yes"/>
      <point x="552.4705882352941" y="100.82352941176471"/>
      <point x="552.8470588235294" y="69.69411764705882"/>
      <point x="553.4117647058823" y="38.37647058823529" type="curve"/>
      <point x="528.2352941176471" y="38.37647058823529" type="line"/>
      <point x="513.2352941176471" y="67.07058823529411"/>
      <point x="498.1058823529412" y="96.89411764705882"/>
      <point x="483.4823529411765" y="124.27058823529411" type="curve" smooth="yes"/>
      <point x="192.88235294117646" y="674.6705882352941" type="line" smooth="yes"/>
      <point x="187.75294117647059" y="685.4941176470588"/>
      <point x="180.43529411764706" y="690.0"/>
      <point x="169.42352941176472" y="690.0" type="curve" smooth="yes"/>
      <point x="118.94117647058823" y="690.0" type="line" smooth="yes"/>
      <point x="105.74117647058824" y="690.0"/>
      <point x="98.85882352941177" y="683.3058823529411"/>
      <point x="98.85882352941177" y="669.9176470588235" type="curve" smooth="yes"/>
      <point x="98.85882352941177" y="0.0" type="line"/>
      <point x="140.04705882352943" y="0.0" type="line"/>
      <point x="140.04705882352943" y="577.7294117647059" type="line" smooth="yes"/>
      <point x="140.04705882352943" y="602.6117647058824"/>
      <point x="139.85882352941178" y="627.6823529411765"/>
      <point x="139.1058823529412" y="652.5647058823529" type="curve"/>
      <point x="161.65882352941176" y="652.5647058823529" type="line"/>
      <point x="172.71764705882353" y="628.2470588235294"/>
      <point x="187.41176470588235" y="602.2941176470588"/>
      <point x="199.41176470588235" y="578.5411764705882" type="curve" smooth="yes"/>
      <point x="496.8235294117647" y="15.329411764705881" type="line" smooth="yes"/>
      <point x="501.9529411764706" y="4.5058823529411764"/>
      <point x="509.2705882352941" y="0.0"/>
      <point x="520.2823529411764" y="0.0" type="curve" smooth="yes"/>
      <point x="573.5764705882353" y="0.0" type="line" smooth="yes"/>
      <point x="586.7764705882353" y="0.0"/>
      <point x="593.4705882352941" y="6.694117647058824"/>
      <point x="593.4705882352941" y="20.08235294117647" type="curve" smooth="yes"/>
    </contour>
  </outline>
</glyph>
<glyph name="P" format="2">
  <advance width="583.4470588235295"/>
  <unicode hex="0050"/>
  <outline>
    <contour>
      <point x="324.0" y="698.1882352941177" type="curve" smooth="yes"/>
      <point x="218.9294117647059" y="698.1882352941177"/>
      <point x="170.1764705882353" y="697.1882352941177"/>
      <point x="98.85882352941177" y="690.0" type="curve"/>
      <point x="112.85882352941177" y="658.4470588235295" type="line"/>
      <point x="140.23529411764707" y="660.635294117647"/>
      <point x="220.5529411764706" y="661.635294117647"/>
      <point x="323.6235294117647" y="661.635294117647" type="curve" smooth="yes"/>
      <point x="443.84705882352944" y="661.635294117647"/>
      <point x="486.6470588235294" y="626.7058823529412"/>
      <point x="486.6470588235294" y="491.98823529411766" type="curve" smooth="yes"/>
      <point x="486.6470588235294" y="357.08235294117645"/>
      <point x="443.84705882352944" y="323.9647058823529"/>
      <point x="323.6235294117647" y="322.15294117647056" type="curve" smooth="yes"/>
      <point x="253.30588235294118" y="322.15294117647056"/>
      <point x="178.1764705882353" y="322.15294117647056"/>
      <point x="111.85882352941177" y="322.15294117647056" type="curve"/>
      <point x="108.85882352941177" y="294.9294117647059" type="line"/>
      <point x="131.61176470588236" y="291.2352941176471"/>
      <point x="219.12941176470588" y="285.6"/>
      <point x="326.63529411764705" y="285.6" type="curve" smooth="yes"/>
      <point x="475.08235294117645" y="285.6"/>
      <point x="528.8352941176471" y="329.3529411764706"/>
      <point x="528.8352941176471" y="491.98823529411766" type="curve" smooth="yes"/>
      <point x="528.8352941176471" y="652.6235294117647"/>
      <point x="475.08235294117645" y="698.1882352941177"/>
    </contour>
    <contour>
      <point x="140.04705882352943" y="690.0" type="line"/>
      <point x="98.85882352941177" y="690.0" type="line"/>
      <point x="98.85882352941177" y="0.0" type="line"/>
      <point x="140.04705882352943" y="0.0" type="line"/>
    </contour>
  </outline>
</glyph>
<glyph name="Q" format="2">
  <advance width="663.8823529411765"/>
  <unicode hex="0051"/>
  <outline>
    <contour>
      <point x="331.94117647058823" y="702.1882352941177" type="curve" smooth="yes"/>
      <point x="139.74117647058824" y="702.1882352941177"/>
      <point x="72.4235294117647" y="609.6941176470589"/>
      <point x="72.4235294117647" y="345.0" type="curve" smooth="yes"/>
      <point x="72.4235294117647" y="80.30588235294118"/>
      <point x="139.74117647058824" y="-12.188235294117646"/>
      <point x="331.94117647058823" y="-12.188235294117646" type="curve" smooth="yes"/>
      <point x="524.1411764705882" y="-12.188235294117646"/>
      <point x="591.4588235294118" y="80.30588235294118"/>
      <point x="591.4588235294118" y="345.0" type="curve" smooth="yes"/>
      <point x="591.4588235294118" y="609.6941176470589"/>
      <point x="524.1411764705882" y="702.1882352941177"/>
    </contour>
    <contour>
      <point x="296.8705882352941" y="-48.92941176470588" type="curve"/>
      <point x="281.67058823529413" y="-73.09411764705882" type="line"/>
      <point x="343.8705882352941" y="-120.4"/>
      <point x="427.0" y="-156.90588235294118"/>
      <point x="519.1411764705882" y="-171.35294117647058" type="curve"/>
      <point x="531.6" y="-130.16470588235293" type="line"/>
      <point x="436.90588235294115" y="-115.35294117647058"/>
      <point x="363.2" y="-90.29411764705883"/>
    </contour>
    <contour>
      <point x="331.94117647058823" y="664.8823529411765" type="curve" smooth="yes"/>
      <point x="493.09411764705885" y="664.8823529411765"/>
      <point x="548.3294117647059" y="583.4"/>
      <point x="548.3294117647059" y="345.0" type="curve" smooth="yes"/>
      <point x="548.3294117647059" y="106.6"/>
      <point x="493.09411764705885" y="25.11764705882353"/>
      <point x="331.94117647058823" y="25.11764705882353" type="curve" smooth="yes"/>
      <point x="170.78823529411764" y="25.11764705882353"/>
      <point x="115.5529411764706" y="106.6"/>
      <point x="115.5529411764706" y="345.0" type="curve" smooth="yes"/>
      <point x="115.5529411764706" y="583.4"/>
      <point x="170.78823529411764" y="664.8823529411765"/>
    </contour>
  </outline>
</glyph>
<glyph name="R" format="2">
  <advance width="609.8235294117648"/>
  <unicode hex="0052"/>
  <anchor x="305.38823529411764" y="0.0" name="bottom"/>
  <anchor x="303.0" y="738.4941176470588" name="top"/>
  <outline>
    <contour>
      <point x="324.18823529411765" y="698.1882352941177" type="curve" smooth="yes"/>
      <point x="219.11764705882354" y="698.1882352941177"/>
      <point x="170.1764705882353" y="697.1882352941177"/>
      <point x="98.85882352941177" y="690.0" type="curve"/>
      <point x="112.85882352941177" y="658.8235294117648" type="line"/>
      <point x="140.23529411764707" y="660.4470588235295"/>
      <point x="220.36470588235295" y="661.635294117647"/>
      <point x="323.81176470588235" y="661.635294117647" type="curve" smooth="yes"/>
      <point x="444.22352941176473" y="661.635294117647"/>
      <point x="487.21176470588233" y="628.7058823529412"/>
      <point x="487.21176470588233" y="501.5529411764706" type="curve" smooth="yes"/>
      <point x="487.21176470588233" y="376.0235294117647"/>
      <point x="444.22352941176473" y="342.71764705882356"/>
      <point x="323.81176470588235" y="340.90588235294115" type="curve" smooth="yes"/>
      <point x="111.85882352941177" y="340.90588235294115" type="line"/>
      <point x="108.85882352941177" y="308.78823529411767" type="line"/>
      <point x="134.43529411764706" y="306.9764705882353"/>
      <point x="214.23529411764707" y="304.3529411764706"/>
      <point x="331.3058823529412" y="304.3529411764706" type="curve" smooth="yes"/>
      <point x="382.4235294117647" y="304.3529411764706"/>
      <point x="417.16470588235296" y="280.67058823529413"/>
      <point x="438.6588235294118" y="217.43529411764706" type="curve" smooth="yes"/>
      <point x="509.45882352941175" y="0.0" type="line"/>
      <point x="554.4" y="0.0" type="line"/>
      <point x="480.84705882352944" y="220.24705882352941" type="line" smooth="yes"/>
      <point x="465.035294117647" y="269.4470588235294"/>
      <point x="437.21176470588233" y="305.7529411764706"/>
      <point x="402.4" y="316.3764705882353" type="curve"/>
      <point x="402.4" y="320.56470588235294" type="line"/>
      <point x="491.3411764705882" y="333.3764705882353"/>
      <point x="529.4" y="381.4470588235294"/>
      <point x="529.4" y="502.8705882352941" type="curve" smooth="yes"/>
      <point x="529.4" y="656.435294117647"/>
      <point x="473.7647058823529" y="698.1882352941177"/>
    </contour>
    <contour>
      <point x="139.85882352941178" y="690.0" type="line"/>
      <point x="98.85882352941177" y="690.0" type="line"/>
      <point x="98.85882352941177" y="0.0" type="line"/>
      <point x="139.85882352941178" y="0.0" type="line"/>
    </contour>
  </outline>
</glyph>
<glyph name="T" format="2">
  <advance width="568.3294117647059"/>
  <unicode hex="0054"/>
  <anchor x="283.88235294117646" y="0.0" name="bottom"/>
  <anchor x="283.6941176470588" y="345.0" name="center"/>
  <anchor x="284.88235294117646" y="738.4941176470588" name="top"/>
  <outline>
    <contour>
      <point x="304.3529411764706" y="690.0" type="line"/>
      <point x="262.9764705882353" y="690.0" type="line"/>
      <point x="262.9764705882353" y="0.0" type="line"/>
      <point x="304.3529411764706" y="0.0" type="line"/>
    </contour>
    <contour>
      <point x="542.0823529411765" y="690.0" type="line"/>
      <point x="26.24705882352941" y="690.0" type="line"/>
      <point x="26.24705882352941" y="653.5058823529412" type="line"/>
      <point x="542.0823529411765" y="653.5058823529412" type="line"/>
    </contour>
  </outline>
</glyph>
<glyph name="U" format="2">
  <advance width="666.8117647058823"/>
  <unicode hex="0055"/>
  <anchor x="333.2470588235294" y="0.0" name="bottom"/>
  <anchor x="374.0" y="-9.0" name="ogonek"/>
  <anchor x="334.81176470588235" y="738.4941176470588" name="top"/>
  <outline>
    <contour>
      <point x="572.9529411764706" y="690.0" type="line"/>
      <point x="531.5764705882353" y="690.0" type="line"/>
      <point x="531.5764705882353" y="257.4470588235294" type="line" smooth="yes"/>
      <point x="531.5764705882353" y="86.35294117647058"/>
      <point x="478.15294117647056" y="25.11764705882353"/>
      <point x="333.81176470588235" y="25.11764705882353" type="curve" smooth="yes"/>
      <point x="188.28235294117647" y="25.11764705882353"/>
      <point x="135.04705882352943" y="86.35294117647058"/>
      <point x="135.04705882352943" y="257.4470588235294" type="curve" smooth="yes"/>
      <point x="135.04705882352943" y="690.0" type="line"/>
      <point x="93.85882352941177" y="690.0" type="line"/>
      <point x="93.85882352941177" y="257.4470588235294" type="line" smooth="yes"/>
      <point x="93.85882352941177" y="63.188235294117646"/>
      <point x="158.1764705882353" y="-12.188235294117646"/>
      <point x="334.7529411764706" y="-12.188235294117646" type="curve" smooth="yes"/>
      <point x="509.01176470588234" y="-12.188235294117646"/>
      <point x="572.9529411764706" y="63.188235294117646"/>
      <point x="572.9529411764706" y="257.4470588235294" type="curve" smooth="yes"/>
    </contour>
  </outline>
</glyph>
<glyph name="V" format="2">
  <advance width="596.3294117647059"/>
  <unicode hex="0056"/>
  <outline>
    <contour>
      <point x="572.7764705882353" y="690.0" type="line"/>
      <point x="529.2117647058824" y="690.0" type="line"/>
      <point x="335.94117647058823" y="109.04705882352941" type="line" smooth="yes"/>
      <point x="327.3176470588235" y="84.04705882352941"/>
      <point x="319.50588235294117" y="58.858823529411765"/>
      <point x="312.0705882352941" y="33.858823529411765" type="curve"/>
      <point x="284.4470588235294" y="33.858823529411765" type="line"/>
      <point x="276.8235294117647" y="58.858823529411765"/>
      <point x="269.2" y="83.23529411764706"/>
      <point x="260.5764705882353" y="108.23529411764706" type="curve" smooth="yes"/>
      <point x="67.11764705882354" y="690.0" type="line"/>
      <point x="23.55294117647059" y="690.0" type="line"/>
      <point x="252.7764705882353" y="13.141176470588235" type="line" smooth="yes"/>
      <point x="255.34117647058824" y="5.694117647058824"/>
      <point x="262.4117647058824" y="0.0"/>
      <point x="271.0470588235294" y="0.0" type="curve" smooth="yes"/>
      <point x="325.28235294117644" y="0.0" type="line" smooth="yes"/>
      <point x="333.91764705882355" y="0.0"/>
      <point x="340.98823529411766" y="5.694117647058824"/>
      <point x="343.5529411764706" y="13.141176470588235" type="curve" smooth="yes"/>
    </contour>
  </outline>
</glyph>
<glyph name="X" format="2">
  <advance width="597.7058823529412"/>
  <unicode hex="0058"/>
  <outline>
    <contour>
      <point x="550.0941176470589" y="690.0" type="line"/>
      <point x="503.15294117647056" y="690.0" type="line"/>
      <point x="304.6823529411765" y="359.2470588235294" type="line"/>
      <point x="515.964705882353" y="0.0" type="line"/>
      <point x="563.0941176470589" y="0.0" type="line"/>
      <point x="350.3058823529412" y="359.2470588235294" type="line"/>
    </contour>
    <contour>
      <point x="94.36470588235295" y="690.0" type="line"/>
      <point x="47.61176470588235" y="690.0" type="line"/>
      <point x="247.21176470588236" y="359.2470588235294" type="line"/>
      <point x="34.61176470588235" y="0.0" type="line"/>
      <point x="81.5529411764706" y="0.0" type="line"/>
      <point x="292.83529411764704" y="359.2470588235294" type="line"/>
    </contour>
    <contour>
      <point x="335.09411764705885" y="377.2705882352941" type="line"/>
      <point x="268.9764705882353" y="377.2705882352941" type="line"/>
      <point x="268.9764705882353" y="343.4117647058824" type="line"/>
      <point x="335.09411764705885" y="343.4117647058824" type="line"/>
    </contour>
  </outline>
</glyph>
<glyph name="Y" format="2">
  <advance width="548.1529411764706"/>
  <unicode hex="0059"/>
  <anchor x="274.01176470588234" y="0.0" name="bottom"/>
  <anchor x="274.7647058823529" y="735.8588235294118" name="top"/>
  <outline>
    <contour>
      <point x="527.9764705882353" y="690.0" type="line"/>
      <point x="483.4117647058824" y="690.0" type="line"/>
      <point x="312.4470588235294" y="366.91764705882355" type="line" smooth="yes"/>
      <point x="301.25882352941176" y="345.16470588235296"/>
      <point x="288.2" y="320.035294117647"/>
      <point x="276.9529411764706" y="297.28235294117644" type="curve"/>
      <point x="271.38823529411764" y="297.28235294117644" type="line"/>
      <point x="259.32941176470587" y="320.035294117647"/>
      <point x="247.08235294117648" y="345.16470588235296"/>
      <point x="235.08235294117648" y="367.7294117647059" type="curve" smooth="yes"/>
      <point x="64.11764705882354" y="690.0" type="line"/>
      <point x="19.176470588235293" y="690.0" type="line"/>
      <point x="257.67058823529413" y="245.85882352941178" type="line"/>
      <point x="290.67058823529413" y="245.85882352941178" type="line"/>
    </contour>
    <contour>
      <point x="294.67058823529413" y="284.9529411764706" type="line"/>
      <point x="253.4823529411765" y="284.9529411764706" type="line"/>
      <point x="253.4823529411765" y="0.0" type="line"/>
      <point x="294.67058823529413" y="0.0" type="line"/>
    </contour>
  </outline>
</glyph>
<glyph name="Z" format="2">
  <advance width="560.0705882352942"/>
  <unicode hex="005A"/>
  <anchor x="281.01176470588234" y="0.0" name="bottom"/>
  <anchor x="279.56470588235294" y="738.4941176470588" name="top"/>
  <outline>
    <contour>
      <point x="459.1294117647059" y="654.635294117647" type="line"/>
      <point x="51.05882352941177" y="36.36470588235294" type="line"/>
      <point x="96.75294117647059" y="35.36470588235294" type="line"/>
      <point x="504.63529411764705" y="653.635294117647" type="line"/>
    </contour>
    <contour>
      <point x="510.01176470588234" y="36.36470588235294" type="line"/>
      <point x="51.05882352941177" y="36.36470588235294" type="line"/>
      <point x="51.05882352941177" y="0.0" type="line"/>
      <point x="510.01176470588234" y="0.0" type="line"/>
    </contour>
    <contour>
      <point x="504.63529411764705" y="690.0" type="line"/>
      <point x="54.62352941176471" y="690.0" type="line"/>
      <point x="54.62352941176471" y="653.635294117647" type="line"/>
      <point x="504.63529411764705" y="653.635294117647" type="line"/>
    </contour>
  </outline>
</glyph>
<glyph name="bracketleft" format="2">
  <advance width="316.32941176470587"/>
  <unicode hex="005B"/>
  <outline>
    <contour>
      <point x="268.5882352941176" y="768.0" type="line"/>
      <point x="139.0705882352941" y="768.0" type="line" smooth="yes"/>
      <point x="117.68235294117648" y="768.0"/>
      <point x="102.23529411764706" y="752.5529411764705"/>
      <point x="102.23529411764706" y="731.1647058823529" type="curve" smooth="yes"/>
      <point x="102.23529411764706" y="-128.16470588235293" type="line" smooth="yes"/>
      <point x="102.23529411764706" y="-151.24705882352941"/>
      <point x="117.68235294117648" y="-165.0"/>
      <point x="139.0705882352941" y="-165.0" type="curve" smooth="yes"/>
      <point x="268.5882352941176" y="-165.0" type="line"/>
      <point x="268.5882352941176" y="-134.1529411764706" type="line"/>
      <point x="153.4823529411765" y="-134.1529411764706" type="line" smooth="yes"/>
      <point x="146.1058823529412" y="-134.1529411764706"/>
      <point x="140.72941176470587" y="-128.7764705882353"/>
      <point x="140.72941176470587" y="-121.21176470588236" type="curve" smooth="yes"/>
      <point x="140.72941176470587" y="724.2117647058824" type="line" smooth="yes"/>
      <point x="140.72941176470587" y="731.7764705882353"/>
      <point x="146.1058823529412" y="737.1529411764706"/>
      <point x="153.4823529411765" y="737.1529411764706" type="curve" smooth="yes"/>
      <point x="268.5882352941176" y="737.1529411764706" type="line"/>
    </contour>
  </outline>
</glyph>
<glyph name="backslash" format="2">
  <advance width="500.21176470588233"/>
  <unicode hex="005C"/>
  <outline>
    <contour>
      <point x="72.03529411764706" y="690.0" type="line"/>
      <point x="35.17647058823529" y="690.0" type="line"/>
      <point x="428.1764705882353" y="-60.694117647058825" type="line"/>
      <point x="465.035294117647" y="-60.694117647058825" type="line"/>
    </contour>
  </outline>
</glyph>
<glyph name="bracketright" format="2">
  <advance width="316.32941176470587"/>
  <unicode hex="005D"/>
  <outline>
    <contour>
      <point x="177.0705882352941" y="768.0" type="curve" smooth="yes"/>
      <point x="47.741176470588236" y="768.0" type="line"/>
      <point x="47.741176470588236" y="737.1529411764706" type="line"/>
      <point x="162.65882352941176" y="737.1529411764706" type="line" smooth="yes"/>
      <point x="170.2235294117647" y="737.1529411764706"/>
      <point x="175.6" y="731.7764705882353"/>
      <point x="175.6" y="724.2117647058824" type="curve" smooth="yes"/>
      <point x="175.6" y="-121.21176470588236" type="line" smooth="yes"/>
      <point x="175.6" y="-128.7764705882353"/>
      <point x="170.2235294117647" y="-134.1529411764706"/>
      <point x="162.65882352941176" y="-134.1529411764706" type="curve" smooth="yes"/>
      <point x="47.741176470588236" y="-134.1529411764706" type="line"/>
      <point x="47.741176470588236" y="-165.0" type="line"/>
      <point x="177.0705882352941" y="-165.0" type="line" smooth="yes"/>
      <point x="198.64705882352942" y="-165.0"/>
      <point x="214.09411764705882" y="-149.5529411764706"/>
      <point x="214.09411764705882" y="-128.16470588235293" type="curve" smooth="yes"/>
      <point x="214.09411764705882" y="731.1647058823529" type="line" smooth="yes"/>
      <point x="214.09411764705882" y="752.5529411764705"/>
      <point x="198.64705882352942" y="768.0"/>
    </contour>
  </outline>
</glyph>
<glyph name="asciicircum" format="2">
  <advance width="400.84705882352944"/>
  <unicode hex="005E"/>
  <outline>
    <contour>
      <point x="215.1895529411765" y="581.5684705882353" type="line"/>
      <point x="185.90522352941176" y="581.5684705882353" type="line"/>
      <point x="30.0" y="381.0315294117647" type="line"/>
      <point x="48.64216470588235" y="366.50522352941175" type="line"/>
      <point x="196.5473882352941" y="546.4" type="line"/>
      <point x="204.5473882352941" y="546.4" type="line"/>
      <point x="353.0315294117647" y="366.50522352941175" type="line"/>
      <point x="370.84216470588234" y="381.0315294117647" type="line"/>
    </contour>
  </outline>
</glyph>
<glyph name="underscore" format="2">
  <advance width="432.6941176470588"/>
  <unicode hex="005F"/>
  <outline>
    <contour>
      <point x="432.6941176470588" y="0.0" type="line"/>
      <point x="0.0" y="0.0" type="line"/>
      <point x="0.0" y="-33.10588235294118" type="line"/>
      <point x="432.6941176470588" y="-33.10588235294118" type="line"/>
    </contour>
  </outline>
</glyph>
<glyph name="grave" format="2">
  <advance width="286.6841411764706"/>
  <unicode hex="0060"/>
  <anchor x="183.72630588235293" y="551.3895529411765" name="_top"/>
  <outline>
    <contour>
      <point x="72.32941176470588" y="711.9529411764706" type="line"/>
      <point x="46.423529411764704" y="682.5294117647059" type="line"/>
      <point x="209.4" y="546.8" type="line"/>
      <point x="227.35294117647058" y="566.5764705882353" type="line"/>
    </contour>
  </outline>
</glyph>
<glyph name="a" format="2">
  <advance width="540.8235294117648"/>
  <unicode hex="0061"/>
  <anchor x="260.1294117647059" y="-12.0" name="bottom"/>
  <anchor x="453.77647058823527" y="0.0" name="ogonek"/>
  <anchor x="268.6941176470588" y="556.8705882352941" name="top"/>
  <outline>
    <contour>
      <point x="312.49411764705883" y="493.88235294117646" type="curve" smooth="yes"/>
      <point x="219.45882352941177" y="493.88235294117646"/>
      <point x="146.74117647058824" y="482.0705882352941"/>
      <point x="81.8" y="472.50588235294117" type="curve"/>
      <point x="86.11764705882354" y="443.0235294117647" type="line"/>
      <point x="158.05882352941177" y="451.45882352941175"/>
      <point x="240.43529411764706" y="458.08235294117645"/>
      <point x="307.16470588235296" y="458.08235294117645" type="curve" smooth="yes"/>
      <point x="390.09411764705885" y="458.08235294117645"/>
      <point x="414.15294117647056" y="414.8588235294118"/>
      <point x="414.34117647058827" y="354.0470588235294" type="curve" smooth="yes"/>
      <point x="414.34117647058827" y="113.31764705882352" type="line"/>
      <point x="415.6588235294118" y="106.0" type="line"/>
      <point x="423.54117647058825" y="0.0" type="line"/>
      <point x="454.15294117647056" y="0.0" type="line"/>
      <point x="454.15294117647056" y="354.0470588235294" type="line" smooth="yes"/>
      <point x="454.15294117647056" y="455.88235294117646"/>
      <point x="401.2705882352941" y="493.88235294117646"/>
    </contour>
    <contour>
      <point x="429.0705882352941" y="292.63529411764705" type="line"/>
      <point x="182.31764705882352" y="292.63529411764705" type="line" smooth="yes"/>
      <point x="106.11764705882354" y="292.63529411764705"/>
      <point x="62.23529411764706" y="250.88235294117646"/>
      <point x="62.23529411764706" y="177.75294117647059" type="curve" smooth="yes"/>
      <point x="62.23529411764706" y="118.01176470588236" type="line" smooth="yes"/>
      <point x="62.23529411764706" y="37.56470588235294"/>
      <point x="111.43529411764706" y="-6.752941176470588"/>
      <point x="192.50588235294117" y="-6.752941176470588" type="curve" smooth="yes"/>
      <point x="290.32941176470587" y="-6.752941176470588"/>
      <point x="389.05882352941177" y="56.694117647058825"/>
      <point x="424.61176470588236" y="97.75294117647059" type="curve"/>
      <point x="424.61176470588236" y="132.54117647058823" type="line"/>
      <point x="369.1058823529412" y="74.15294117647059"/>
      <point x="269.18823529411765" y="28.235294117647058"/>
      <point x="196.83529411764707" y="29.858823529411765" type="curve" smooth="yes"/>
      <point x="134.41176470588235" y="30.67058823529412"/>
      <point x="103.04705882352941" y="60.84705882352941"/>
      <point x="103.04705882352941" y="120.64705882352942" type="curve" smooth="yes"/>
      <point x="103.04705882352941" y="174.74117647058824" type="line" smooth="yes"/>
      <point x="103.04705882352941" y="227.6"/>
      <point x="130.28235294117647" y="256.71764705882356"/>
      <point x="186.27058823529413" y="257.90588235294115" type="curve" smooth="yes"/>
      <point x="428.0705882352941" y="261.15294117647056" type="line"/>
    </contour>
  </outline>
</glyph>
<glyph name="b" format="2">
  <advance width="561.2"/>
  <unicode hex="0062"/>
  <outline>
    <contour>
      <point x="320.5882352941176" y="493.88235294117646" type="curve" smooth="yes"/>
      <point x="254.0235294117647" y="493.88235294117646"/>
      <point x="189.27058823529413" y="456.38823529411764"/>
      <point x="121.28235294117647" y="393.2" type="curve"/>
      <point x="122.78823529411764" y="361.3529411764706" type="line"/>
      <point x="199.7058823529412" y="423.6470588235294"/>
      <point x="251.69411764705882" y="457.70588235294116"/>
      <point x="313.05882352941177" y="457.70588235294116" type="curve" smooth="yes"/>
      <point x="416.67058823529413" y="457.70588235294116"/>
      <point x="453.77647058823527" y="400.47058823529414"/>
      <point x="453.964705882353" y="241.31764705882352" type="curve" smooth="yes"/>
      <point x="453.77647058823527" y="81.03529411764706"/>
      <point x="408.9764705882353" y="23.799999999999997"/>
      <point x="295.1294117647059" y="23.61176470588235" type="curve" smooth="yes"/>
      <point x="239.95294117647057" y="23.423529411764704"/>
      <point x="186.57647058823528" y="29.423529411764704"/>
      <point x="121.09411764705882" y="48.48235294117647" type="curve"/>
      <point x="87.85882352941177" y="19.941176470588236" type="line"/>
      <point x="157.35294117647058" y="0.0"/>
      <point x="228.31764705882352" y="-12.0"/>
      <point x="295.50588235294117" y="-12.0" type="curve" smooth="yes"/>
      <point x="442.47058823529414" y="-12.0"/>
      <point x="495.15294117647056" y="63.27058823529411"/>
      <point x="495.15294117647056" y="241.31764705882352" type="curve" smooth="yes"/>
      <point x="495.15294117647056" y="423.50588235294117"/>
      <point x="445.2705882352941" y="493.88235294117646"/>
    </contour>
    <contour>
      <point x="127.67058823529412" y="700.0" type="line"/>
      <point x="87.85882352941177" y="700.0" type="line"/>
      <point x="87.85882352941177" y="19.941176470588236" type="line"/>
      <point x="127.67058823529412" y="19.0" type="line"/>
      <point x="127.48235294117647" y="379.08235294117645" type="line"/>
      <point x="122.97647058823529" y="394.70588235294116" type="line"/>
      <point x="128.1058823529412" y="426.83529411764704"/>
      <point x="127.67058823529412" y="452.28235294117644"/>
      <point x="127.67058823529412" y="492.035294117647" type="curve" smooth="yes"/>
    </contour>
  </outline>
</glyph>
<glyph name="c" format="2">
  <advance width="480.8235294117647"/>
  <unicode hex="0063"/>
  <anchor x="283.9294117647059" y="-12.0" name="bottom"/>
  <anchor x="271.6823529411765" y="557.0588235294117" name="top"/>
  <outline>
    <contour>
      <point x="287.43529411764706" y="493.88235294117646" type="curve" smooth="yes"/>
      <point x="125.98823529411764" y="493.88235294117646"/>
      <point x="65.23529411764706" y="426.6941176470588"/>
      <point x="65.23529411764706" y="240.94117647058823" type="curve" smooth="yes"/>
      <point x="65.23529411764706" y="55.188235294117646"/>
      <point x="125.8" y="-12.0"/>
      <point x="288.05882352941177" y="-12.0" type="curve" smooth="yes"/>
      <point x="338.3176470588235" y="-12.0"/>
      <point x="393.38823529411764" y="-4.623529411764705"/>
      <point x="438.5176470588235" y="7.070588235294117" type="curve"/>
      <point x="433.38823529411764" y="35.23529411764706" type="line"/>
      <point x="387.88235294117646" y="26.423529411764704"/>
      <point x="322.4470588235294" y="23.61176470588235"/>
      <point x="294.0705882352941" y="23.61176470588235" type="curve" smooth="yes"/>
      <point x="156.6" y="23.61176470588235"/>
      <point x="106.8" y="72.78823529411764"/>
      <point x="106.8" y="240.94117647058823" type="curve" smooth="yes"/>
      <point x="106.8" y="408.90588235294115"/>
      <point x="156.6" y="458.08235294117645"/>
      <point x="294.0705882352941" y="458.08235294117645" type="curve" smooth="yes"/>
      <point x="326.63529411764705" y="458.08235294117645"/>
      <point x="383.50588235294117" y="455.45882352941175"/>
      <point x="420.7647058823529" y="447.77647058823527" type="curve"/>
      <point x="428.08235294117645" y="475.18823529411765" type="line"/>
      <point x="384.5764705882353" y="489.50588235294117"/>
      <point x="325.3176470588235" y="493.88235294117646"/>
    </contour>
  </outline>
</glyph>
<glyph name="d" format="2">
  <advance width="564.0117647058823"/>
  <unicode hex="0064"/>
  <anchor x="288.0705882352941" y="-12.0" name="bottom"/>
  <anchor x="452.43529411764706" y="706.0" name="top"/>
  <outline>
    <contour>
      <point x="243.68235294117648" y="493.88235294117646" type="curve" smooth="yes"/>
      <point x="118.05882352941177" y="493.88235294117646"/>
      <point x="67.04705882352941" y="425.38823529411764"/>
      <point x="67.04705882352941" y="241.31764705882352" type="curve" smooth="yes"/>
      <point x="67.04705882352941" y="62.32941176470588"/>
      <point x="115.04705882352941" y="-12.0"/>
      <point x="240.4823529411765" y="-12.0" type="curve" smooth="yes"/>
      <point x="309.6823529411765" y="-12.0"/>
      <point x="373.3764705882353" y="22.88235294117647"/>
      <point x="439.8588235294118" y="82.11764705882354" type="curve"/>
      <point x="439.4117647058824" y="116.96470588235294" type="line"/>
      <point x="359.67058823529413" y="52.10588235294118"/>
      <point x="309.7529411764706" y="24.176470588235297"/>
      <point x="247.63529411764705" y="24.176470588235297" type="curve" smooth="yes"/>
      <point x="147.78823529411764" y="24.176470588235297"/>
      <point x="108.23529411764706" y="79.71764705882353"/>
      <point x="108.23529411764706" y="241.50588235294117" type="curve" smooth="yes"/>
      <point x="108.23529411764706" y="403.29411764705884"/>
      <point x="147.78823529411764" y="457.70588235294116"/>
      <point x="248.95294117647057" y="457.70588235294116" type="curve" smooth="yes"/>
      <point x="310.3176470588235" y="457.70588235294116"/>
      <point x="362.3058823529412" y="441.83529411764704"/>
      <point x="439.22352941176473" y="412.78823529411767" type="curve"/>
      <point x="440.54117647058825" y="443.50588235294117" type="line"/>
      <point x="372.9294117647059" y="475.4470588235294"/>
      <point x="309.11764705882354" y="493.88235294117646"/>
    </contour>
    <contour>
      <point x="473.3411764705882" y="700.0" type="line"/>
      <point x="433.52941176470586" y="700.0" type="line"/>
      <point x="433.52941176470586" y="538.9529411764706" type="line" smooth="yes"/>
      <point x="433.52941176470586" y="502.8235294117647"/>
      <point x="433.09411764705885" y="477.3764705882353"/>
      <point x="437.28235294117644" y="441.6235294117647" type="curve"/>
      <point x="433.52941176470586" y="426.0" type="line"/>
      <point x="433.52941176470586" y="89.12941176470588" type="line"/>
      <point x="437.4117647058824" y="84.18823529411765" type="line"/>
      <point x="442.7294117647059" y="0.0" type="line"/>
      <point x="473.3411764705882" y="0.0" type="line"/>
    </contour>
  </outline>
</glyph>
<glyph name="e" format="2">
  <advance width="529.635294117647"/>
  <unicode hex="0065"/>
  <anchor x="264.6941176470588" y="-2.258823529411764" name="bottom"/>
  <anchor x="458.83529411764704" y="8.635294117647058" name="ogonek"/>
  <anchor x="278.1294117647059" y="556.8705882352941" name="top"/>
  <outline>
    <contour>
      <point x="275.7529411764706" y="493.88235294117646" type="curve" smooth="yes"/>
      <point x="125.49411764705883" y="493.88235294117646"/>
      <point x="65.23529411764706" y="428.63529411764705"/>
      <point x="65.23529411764706" y="242.75294117647059" type="curve" smooth="yes"/>
      <point x="65.23529411764706" y="58.62352941176471"/>
      <point x="127.98823529411764" y="-12.0"/>
      <point x="283.94117647058823" y="-12.0" type="curve" smooth="yes"/>
      <point x="337.0705882352941" y="-12.0"/>
      <point x="423.4470588235294" y="-4.0"/>
      <point x="458.83529411764704" y="8.447058823529412" type="curve"/>
      <point x="453.70588235294116" y="36.423529411764704" type="line"/>
      <point x="413.3176470588235" y="30.235294117647058"/>
      <point x="350.81176470588235" y="23.61176470588235"/>
      <point x="289.01176470588234" y="23.61176470588235" type="curve" smooth="yes"/>
      <point x="160.65882352941176" y="23.61176470588235"/>
      <point x="106.61176470588235" y="76.02352941176471"/>
      <point x="106.61176470588235" y="244.69411764705882" type="curve" smooth="yes"/>
      <point x="106.61176470588235" y="403.54117647058825"/>
      <point x="150.65882352941176" y="458.2705882352941"/>
      <point x="277.50588235294117" y="458.2705882352941" type="curve" smooth="yes"/>
      <point x="379.4235294117647" y="458.2705882352941"/>
      <point x="427.77647058823527" y="425.71764705882356"/>
      <point x="429.4" y="350.4235294117647" type="curve" smooth="yes"/>
      <point x="431.0235294117647" y="290.5176470588235"/>
      <point x="413.0352941176471" y="253.89411764705883"/>
      <point x="357.98823529411766" y="253.89411764705883" type="curve" smooth="yes"/>
      <point x="83.94117647058823" y="253.89411764705883" type="line"/>
      <point x="83.94117647058823" y="220.6" type="line"/>
      <point x="363.63529411764705" y="220.6" type="line" smooth="yes"/>
      <point x="442.38823529411764" y="220.6"/>
      <point x="471.6470588235294" y="266.29411764705884"/>
      <point x="470.0235294117647" y="351.8588235294118" type="curve" smooth="yes"/>
      <point x="468.4" y="446.43529411764706"/>
      <point x="406.4" y="493.88235294117646"/>
    </contour>
  </outline>
</glyph>
<glyph name="f" format="2">
  <advance width="360.77647058823527"/>
  <unicode hex="0066"/>
  <outline>
    <contour>
      <point x="249.8235294117647" y="714.7529411764706" type="curve" smooth="yes"/>
      <point x="154.6235294117647" y="714.7529411764706"/>
      <point x="120.49411764705883" y="667.8705882352941"/>
      <point x="120.49411764705883" y="579.3058823529411" type="curve" smooth="yes"/>
      <point x="120.49411764705883" y="0.0" type="line"/>
      <point x="160.30588235294118" y="0.0" type="line"/>
      <point x="160.30588235294118" y="576.8588235294118" type="line" smooth="yes"/>
      <point x="160.30588235294118" y="653.0235294117647"/>
      <point x="187.61176470588236" y="680.3294117647059"/>
      <point x="263.47058823529414" y="680.3294117647059" type="curve" smooth="yes"/>
      <point x="371.0235294117647" y="680.3294117647059" type="line"/>
      <point x="372.71764705882356" y="710.0" type="line"/>
      <point x="337.5882352941176" y="713.564705882353"/>
      <point x="278.7647058823529" y="714.7529411764706"/>
    </contour>
    <contour>
      <point x="332.47058823529414" y="481.6941176470588" type="line"/>
      <point x="126.11764705882354" y="481.6941176470588" type="line"/>
      <point x="33.305882352941175" y="476.6941176470588" type="line"/>
      <point x="33.305882352941175" y="448.21176470588233" type="line"/>
      <point x="332.47058823529414" y="448.21176470588233" type="line"/>
    </contour>
  </outline>
</glyph>
<glyph name="g" format="2">
  <advance width="548.3882352941176"/>
  <unicode hex="0067"/>
  <anchor x="270.56470588235294" y="557.0588235294117" name="top"/>
  <outline>
    <contour>
      <point x="269.56470588235294" y="493.88235294117646" type="curve" smooth="yes"/>
      <point x="126.67058823529412" y="493.88235294117646"/>
      <point x="73.04705882352941" y="444.2"/>
      <point x="73.04705882352941" y="343.0" type="curve" smooth="yes"/>
      <point x="73.04705882352941" y="242.11764705882354"/>
      <point x="127.48235294117647" y="194.30588235294118"/>
      <point x="269.3764705882353" y="194.30588235294118" type="curve" smooth="yes"/>
      <point x="411.2705882352941" y="194.30588235294118"/>
      <point x="464.08235294117645" y="242.11764705882354"/>
      <point x="464.08235294117645" y="343.18823529411765" type="curve" smooth="yes"/>
      <point x="464.08235294117645" y="444.2"/>
      <point x="412.08235294117645" y="493.88235294117646"/>
    </contour>
    <contour>
      <point x="269.3764705882353" y="460.77647058823527" type="curve" smooth="yes"/>
      <point x="385.78823529411767" y="460.77647058823527"/>
      <point x="425.964705882353" y="422.4823529411765"/>
      <point x="425.964705882353" y="343.18823529411765" type="curve" smooth="yes"/>
      <point x="425.964705882353" y="263.6470588235294"/>
      <point x="384.9764705882353" y="227.2235294117647"/>
      <point x="269.3764705882353" y="227.2235294117647" type="curve" smooth="yes"/>
      <point x="153.7764705882353" y="227.2235294117647"/>
      <point x="110.97647058823529" y="263.6470588235294"/>
      <point x="110.97647058823529" y="343.18823529411765" type="curve" smooth="yes"/>
      <point x="110.97647058823529" y="422.4823529411765"/>
      <point x="152.96470588235294" y="460.77647058823527"/>
    </contour>
    <contour>
      <point x="521.2705882352941" y="481.6941176470588" type="line"/>
      <point x="363.01176470588234" y="481.6941176470588" type="line"/>
      <point x="398.01176470588234" y="450.6588235294118" type="line"/>
      <point x="517.7058823529412" y="456.3529411764706" type="line"/>
    </contour>
    <contour>
      <point x="135.24705882352941" y="227.74117647058824" type="line"/>
      <point x="72.68235294117648" y="183.94117647058823"/>
      <point x="67.55294117647058" y="79.78823529411764"/>
      <point x="172.5529411764706" y="61.91764705882353" type="curve" smooth="yes"/>
      <point x="365.52941176470586" y="29.55294117647059" type="line" smooth="yes"/>
      <point x="436.77647058823527" y="17.305882352941175"/>
      <point x="451.77647058823527" y="-6.800000000000001"/>
      <point x="451.77647058823527" y="-67.03529411764706" type="curve" smooth="yes"/>
      <point x="451.77647058823527" y="-147.32941176470587"/>
      <point x="404.8588235294118" y="-173.75294117647059"/>
      <point x="274.3764705882353" y="-173.75294117647059" type="curve" smooth="yes"/>
      <point x="138.83529411764707" y="-173.75294117647059"/>
      <point x="92.10588235294118" y="-147.8941176470588"/>
      <point x="92.10588235294118" y="-67.03529411764706" type="curve" smooth="yes"/>
      <point x="92.10588235294118" y="-8.552941176470588"/>
      <point x="103.74117647058824" y="19.941176470588236"/>
      <point x="149.85882352941178" y="48.50588235294118" type="curve" smooth="yes"/>
      <point x="200.29411764705884" y="81.2" type="line"/>
      <point x="171.71764705882353" y="89.89411764705882" type="line"/>
      <point x="125.01176470588236" y="64.44705882352942" type="line" smooth="yes"/>
      <point x="67.18823529411765" y="33.50588235294118"/>
      <point x="52.858823529411765" y="-2.858823529411765"/>
      <point x="52.858823529411765" y="-68.91764705882353" type="curve" smooth="yes"/>
      <point x="52.858823529411765" y="-173.1764705882353"/>
      <point x="111.04705882352941" y="-209.36470588235295"/>
      <point x="274.56470588235294" y="-209.36470588235295" type="curve" smooth="yes"/>
      <point x="432.21176470588233" y="-209.36470588235295"/>
      <point x="491.0235294117647" y="-173.1764705882353"/>
      <point x="491.0235294117647" y="-68.16470588235293" type="curve" smooth="yes"/>
      <point x="491.0235294117647" y="9.152941176470588"/>
      <point x="468.01176470588234" y="46.65882352941176"/>
      <point x="381.94117647058823" y="61.470588235294116" type="curve" smooth="yes"/>
      <point x="191.76470588235293" y="94.15294117647059" type="line" smooth="yes"/>
      <point x="105.4235294117647" y="109.27058823529411"/>
      <point x="113.85882352941177" y="178.88235294117646"/>
      <point x="162.58823529411765" y="223.61176470588236" type="curve"/>
    </contour>
  </outline>
</glyph>
<glyph name="h" format="2">
  <advance width="572.0117647058823"/>
  <unicode hex="0068"/>
  <anchor x="290.8235294117647" y="-2.258823529411764" name="bottom"/>
  <anchor x="285.88235294117646" y="240.0" name="center"/>
  <anchor x="108.76470588235294" y="705.1882352941177" name="top"/>
  <outline>
    <contour>
      <point x="355.4" y="493.88235294117646" type="curve" smooth="yes"/>
      <point x="280.5882352941176" y="493.88235294117646"/>
      <point x="205.1529411764706" y="456.4470588235294"/>
      <point x="124.03529411764706" y="395.5764705882353" type="curve"/>
      <point x="124.97647058823529" y="362.78823529411767" type="line"/>
      <point x="216.1529411764706" y="425.4"/>
      <point x="276.08235294117645" y="458.08235294117645"/>
      <point x="345.6941176470588" y="458.08235294117645" type="curve" smooth="yes"/>
      <point x="413.67058823529413" y="458.08235294117645"/>
      <point x="445.34117647058827" y="426.6588235294118"/>
      <point x="445.34117647058827" y="353.67058823529413" type="curve" smooth="yes"/>
      <point x="445.34117647058827" y="0.0" type="line"/>
      <point x="485.15294117647056" y="0.0" type="line"/>
      <point x="485.15294117647056" y="362.1294117647059" type="line" smooth="yes"/>
      <point x="485.15294117647056" y="448.50588235294117"/>
      <point x="440.5882352941176" y="493.88235294117646"/>
    </contour>
    <contour>
      <point x="129.67058823529413" y="700.0" type="line"/>
      <point x="89.85882352941177" y="700.0" type="line"/>
      <point x="89.85882352941177" y="0.0" type="line"/>
      <point x="129.67058823529413" y="0.0" type="line"/>
      <point x="129.67058823529413" y="376.7529411764706" type="line"/>
      <point x="125.16470588235293" y="392.56470588235294" type="line"/>
      <point x="129.72941176470587" y="419.94117647058823"/>
      <point x="131.4823529411765" y="453.38823529411764"/>
      <point x="131.4823529411765" y="490.6470588235294" type="curve" smooth="yes"/>
    </contour>
  </outline>
</glyph>
<glyph name="i" format="2">
  <advance width="227.34117647058824"/>
  <unicode hex="0069"/>
  <anchor x="114.76470588235294" y="-2.258823529411764" name="bottom"/>
  <anchor x="131.9764705882353" y="0.0" name="ogonek"/>
  <anchor x="113.14117647058823" y="557.0588235294117" name="top"/>
  <outline>
    <contour>
      <point x="133.4823529411765" y="481.6941176470588" type="line"/>
      <point x="93.85882352941177" y="481.6941176470588" type="line"/>
      <point x="93.85882352941177" y="0.0" type="line"/>
      <point x="133.4823529411765" y="0.0" type="line"/>
    </contour>
    <contour>
      <point x="122.52941176470588" y="682.7647058823529" type="curve" smooth="yes"/>
      <point x="104.81176470588235" y="682.7647058823529" type="line" smooth="yes"/>
      <point x="94.36470588235294" y="682.7647058823529"/>
      <point x="89.23529411764706" y="677.2588235294118"/>
      <point x="89.23529411764706" y="667.1882352941177" type="curve" smooth="yes"/>
      <point x="89.23529411764706" y="606.5058823529412" type="line" smooth="yes"/>
      <point x="89.23529411764706" y="596.0588235294117"/>
      <point x="94.36470588235294" y="590.9294117647058"/>
      <point x="104.81176470588235" y="590.9294117647058" type="curve" smooth="yes"/>
      <point x="122.52941176470588" y="590.9294117647058" type="line" smooth="yes"/>
      <point x="132.9764705882353" y="590.9294117647058"/>
      <point x="138.1058823529412" y="596.0588235294117"/>
      <point x="138.1058823529412" y="606.5058823529412" type="curve" smooth="yes"/>
      <point x="138.1058823529412" y="667.1882352941177" type="line" smooth="yes"/>
      <point x="138.1058823529412" y="677.2588235294118"/>
      <point x="132.9764705882353" y="682.7647058823529"/>
    </contour>
  </outline>
</glyph>
<glyph name="j" format="2">
  <advance width="227.71764705882353"/>
  <unicode hex="006A"/>
  <outline>
    <contour>
      <point x="133.85882352941178" y="481.6941176470588" type="line"/>
      <point x="94.04705882352941" y="481.6941176470588" type="line"/>
      <point x="94.04705882352941" y="-37.15294117647059" type="line" smooth="yes"/>
      <point x="94.04705882352941" y="-101.58823529411765"/>
      <point x="73.8" y="-145.7764705882353"/>
      <point x="38.858823529411765" y="-191.34117647058824" type="curve"/>
      <point x="60.705882352941174" y="-208.30588235294118" type="line"/>
      <point x="105.2235294117647" y="-163.68235294117648"/>
      <point x="133.85882352941178" y="-105.54117647058824"/>
      <point x="133.85882352941178" y="-37.15294117647059" type="curve" smooth="yes"/>
    </contour>
    <contour>
      <point x="122.90588235294118" y="682.7647058823529" type="curve" smooth="yes"/>
      <point x="105.18823529411765" y="682.7647058823529" type="line"/>
      <point x="94.74117647058824" y="682.7647058823529"/>
      <point x="89.61176470588235" y="677.2588235294118"/>
      <point x="89.61176470588235" y="667.1882352941177" type="curve" smooth="yes"/>
      <point x="89.61176470588235" y="606.5058823529412" type="line"/>
      <point x="89.61176470588235" y="596.0588235294117"/>
      <point x="94.74117647058824" y="590.9294117647058"/>
      <point x="105.18823529411765" y="590.9294117647058" type="curve" smooth="yes"/>
      <point x="122.90588235294118" y="590.9294117647058" type="line"/>
      <point x="133.35294117647058" y="590.9294117647058"/>
      <point x="138.4823529411765" y="596.0588235294117"/>
      <point x="138.4823529411765" y="606.5058823529412" type="curve" smooth="yes"/>
      <point x="138.4823529411765" y="667.1882352941177" type="line"/>
      <point x="138.4823529411765" y="677.2588235294118"/>
      <point x="133.35294117647058" y="682.7647058823529"/>
    </contour>
  </outline>
</glyph>
<glyph name="k" format="2">
  <advance width="482.4117647058824"/>
  <unicode hex="006B"/>
  <anchor x="241.64705882352942" y="0.0" name="bottom"/>
  <outline>
    <contour>
      <point x="437.36470588235295" y="481.6941176470588" type="line"/>
      <point x="388.0470588235294" y="481.6941176470588" type="line"/>
      <point x="191.8235294117647" y="276.7529411764706" type="line"/>
      <point x="404.8588235294118" y="0.0" type="line"/>
      <point x="453.36470588235295" y="0.0" type="line"/>
      <point x="263.70588235294116" y="244.42352941176472" type="line" smooth="yes"/>
      <point x="256.9529411764706" y="254.11764705882354"/>
      <point x="244.63529411764705" y="266.81176470588235"/>
      <point x="237.88235294117646" y="273.0" type="curve"/>
      <point x="237.88235294117646" y="275.0" type="line"/>
      <point x="244.63529411764705" y="279.56470588235294"/>
      <point x="256.9529411764706" y="290.6941176470588"/>
      <point x="263.70588235294116" y="298.38823529411764" type="curve" smooth="yes"/>
    </contour>
    <contour>
      <point x="129.67058823529413" y="700.0" type="line"/>
      <point x="89.85882352941177" y="700.0" type="line"/>
      <point x="89.85882352941177" y="0.0" type="line"/>
      <point x="129.67058823529413" y="0.0" type="line"/>
      <point x="129.67058823529413" y="174.1764705882353" type="line" smooth="yes"/>
      <point x="129.67058823529413" y="207.5529411764706"/>
      <point x="128.72941176470587" y="238.81176470588235"/>
      <point x="125.16470588235293" y="275.3764705882353" type="curve"/>
      <point x="129.91764705882352" y="311.3176470588235"/>
      <point x="131.4823529411765" y="336.9529411764706"/>
      <point x="131.4823529411765" y="373.45882352941175" type="curve" smooth="yes"/>
    </contour>
    <contour>
      <point x="225.34117647058824" y="291.08235294117645" type="line"/>
      <point x="110.71764705882353" y="291.08235294117645" type="line"/>
      <point x="110.71764705882353" y="258.91764705882355" type="line"/>
      <point x="225.34117647058824" y="258.91764705882355" type="line"/>
    </contour>
  </outline>
</glyph>
<glyph name="l" format="2">
  <advance width="276.9647058823529"/>
  <unicode hex="006C"/>
  <anchor x="186.3764705882353" y="-2.258823529411764" name="bottom"/>
  <anchor x="111.5764705882353" y="759.8" name="top"/>
  <outline>
    <contour>
      <point x="130.67058823529413" y="700.0" type="line"/>
      <point x="90.85882352941177" y="700.0" type="line"/>
      <point x="90.85882352941177" y="100.27058823529411" type="line" smooth="yes"/>
      <point x="90.85882352941177" y="31.31764705882353"/>
      <point x="132.5529411764706" y="-6.752941176470588"/>
      <point x="196.56470588235294" y="-6.752941176470588" type="curve" smooth="yes"/>
      <point x="216.0705882352941" y="-6.752941176470588"/>
      <point x="252.45882352941177" y="-4.188235294117647"/>
      <point x="266.9647058823529" y="0.9411764705882355" type="curve"/>
      <point x="262.08235294117645" y="29.55294117647059" type="line"/>
      <point x="206.90588235294118" y="29.55294117647059" type="line" smooth="yes"/>
      <point x="157.9764705882353" y="29.55294117647059"/>
      <point x="130.4823529411765" y="56.04705882352941"/>
      <point x="130.4823529411765" y="105.78823529411764" type="curve" smooth="yes"/>
    </contour>
  </outline>
</glyph>
<glyph name="m" format="2">
  <advance width="878.8705882352941"/>
  <unicode hex="006D"/>
  <anchor x="441.43529411764706" y="-2.258823529411764" name="bottom"/>
  <anchor x="450.0" y="558.0" name="top"/>
  <outline>
    <contour>
      <point x="666.5058823529412" y="493.88235294117646" type="curve" smooth="yes"/>
      <point x="597.6941176470589" y="493.88235294117646"/>
      <point x="528.8235294117648" y="460.63529411764705"/>
      <point x="455.1411764705882" y="395.38823529411764" type="curve"/>
      <point x="456.45882352941175" y="362.78823529411767" type="line"/>
      <point x="540.9529411764706" y="426.71764705882356"/>
      <point x="591.8705882352941" y="458.08235294117645"/>
      <point x="655.1058823529412" y="458.08235294117645" type="curve" smooth="yes"/>
      <point x="720.3411764705883" y="458.08235294117645"/>
      <point x="752.3882352941176" y="425.52941176470586"/>
      <point x="752.5764705882353" y="353.67058823529413" type="curve" smooth="yes"/>
      <point x="752.5764705882353" y="0.0" type="line"/>
      <point x="792.0117647058823" y="0.0" type="line"/>
      <point x="792.0117647058823" y="362.1294117647059" type="line" smooth="yes"/>
      <point x="792.0117647058823" y="448.50588235294117"/>
      <point x="747.635294117647" y="493.88235294117646"/>
    </contour>
    <contour>
      <point x="122.03529411764706" y="481.6941176470588" type="line"/>
      <point x="90.67058823529412" y="481.6941176470588" type="line"/>
      <point x="90.67058823529412" y="0.0" type="line"/>
      <point x="130.29411764705884" y="0.0" type="line"/>
      <point x="130.29411764705884" y="376.7529411764706" type="line"/>
      <point x="125.78823529411764" y="392.56470588235294" type="line"/>
    </contour>
    <contour>
      <point x="335.6470588235294" y="493.88235294117646" type="curve" smooth="yes"/>
      <point x="266.45882352941175" y="493.88235294117646"/>
      <point x="197.58823529411765" y="460.25882352941176"/>
      <point x="124.09411764705882" y="395.38823529411764" type="curve"/>
      <point x="125.6" y="362.78823529411767" type="line"/>
      <point x="210.47058823529412" y="427.09411764705885"/>
      <point x="261.5764705882353" y="458.08235294117645"/>
      <point x="324.43529411764706" y="458.08235294117645" type="curve" smooth="yes"/>
      <point x="388.91764705882355" y="458.08235294117645"/>
      <point x="422.09411764705885" y="426.28235294117644"/>
      <point x="421.90588235294115" y="353.67058823529413" type="curve" smooth="yes"/>
      <point x="421.90588235294115" y="0.0" type="line"/>
      <point x="460.9647058823529" y="0.0" type="line"/>
      <point x="460.9647058823529" y="362.1294117647059" type="line" smooth="yes"/>
      <point x="460.77647058823527" y="448.6941176470588"/>
      <point x="416.4" y="493.88235294117646"/>
    </contour>
  </outline>
</glyph>
<glyph name="n" format="2">
  <advance width="572.8235294117648"/>
  <unicode hex="006E"/>
  <anchor x="288.01176470588234" y="-2.258823529411764" name="bottom"/>
  <anchor x="295.63529411764705" y="556.8705882352941" name="top"/>
  <outline>
    <contour>
      <point x="356.21176470588233" y="493.88235294117646" type="curve" smooth="yes"/>
      <point x="281.4" y="493.88235294117646"/>
      <point x="205.96470588235294" y="459.6941176470588"/>
      <point x="124.84705882352941" y="395.5764705882353" type="curve"/>
      <point x="125.78823529411764" y="362.78823529411767" type="line"/>
      <point x="216.96470588235294" y="425.0235294117647"/>
      <point x="276.8941176470588" y="458.08235294117645"/>
      <point x="346.50588235294117" y="458.08235294117645" type="curve" smooth="yes"/>
      <point x="414.4823529411765" y="458.08235294117645"/>
      <point x="446.15294117647056" y="426.6588235294118"/>
      <point x="446.15294117647056" y="353.67058823529413" type="curve" smooth="yes"/>
      <point x="446.15294117647056" y="0.0" type="line"/>
      <point x="485.9647058823529" y="0.0" type="line"/>
      <point x="485.9647058823529" y="362.1294117647059" type="line" smooth="yes"/>
      <point x="485.9647058823529" y="448.50588235294117"/>
      <point x="441.4" y="493.88235294117646"/>
    </contour>
    <contour>
      <point x="122.6" y="481.6941176470588" type="line"/>
      <point x="90.67058823529412" y="481.6941176470588" type="line"/>
      <point x="90.67058823529412" y="0.0" type="line"/>
      <point x="130.4823529411765" y="0.0" type="line"/>
      <point x="130.29411764705884" y="376.7529411764706" type="line"/>
      <point x="126.54117647058823" y="392.56470588235294" type="line"/>
    </contour>
  </outline>
</glyph>
<glyph name="o" format="2">
  <advance width="562.0705882352942"/>
  <unicode hex="006F"/>
  <anchor x="280.56470588235294" y="-2.258823529411764" name="bottom"/>
  <anchor x="314.9529411764706" y="2.0" name="ogonek"/>
  <anchor x="280.6941176470588" y="555.9294117647058" name="top"/>
  <outline>
    <contour>
      <point x="281.1294117647059" y="493.88235294117646" type="curve" smooth="yes"/>
      <point x="122.92941176470589" y="493.88235294117646"/>
      <point x="66.04705882352941" y="426.1294117647059"/>
      <point x="66.04705882352941" y="240.75294117647059" type="curve" smooth="yes"/>
      <point x="66.04705882352941" y="55.37647058823529"/>
      <point x="122.92941176470589" y="-12.188235294117646"/>
      <point x="281.1294117647059" y="-12.188235294117646" type="curve" smooth="yes"/>
      <point x="439.32941176470587" y="-12.188235294117646"/>
      <point x="496.0235294117647" y="55.37647058823529"/>
      <point x="496.0235294117647" y="240.75294117647059" type="curve" smooth="yes"/>
      <point x="496.0235294117647" y="426.1294117647059"/>
      <point x="439.32941176470587" y="493.88235294117646"/>
    </contour>
    <contour>
      <point x="281.1294117647059" y="458.2705882352941" type="curve" smooth="yes"/>
      <point x="409.4117647058824" y="458.2705882352941"/>
      <point x="454.6470588235294" y="405.84705882352944"/>
      <point x="454.6470588235294" y="240.75294117647059" type="curve" smooth="yes"/>
      <point x="454.6470588235294" y="75.84705882352941"/>
      <point x="409.4117647058824" y="23.423529411764704"/>
      <point x="281.1294117647059" y="23.423529411764704" type="curve" smooth="yes"/>
      <point x="152.65882352941176" y="23.423529411764704"/>
      <point x="107.61176470588235" y="75.84705882352941"/>
      <point x="107.61176470588235" y="240.75294117647059" type="curve" smooth="yes"/>
      <point x="107.61176470588235" y="405.84705882352944"/>
      <point x="152.65882352941176" y="458.2705882352941"/>
    </contour>
  </outline>
</glyph>
<glyph name="q" format="2">
  <advance width="561.8235294117648"/>
  <unicode hex="0071"/>
  <outline>
    <contour>
      <point x="269.50588235294117" y="493.88235294117646" type="curve" smooth="yes"/>
      <point x="118.72941176470589" y="493.88235294117646"/>
      <point x="66.04705882352941" y="420.61176470588236"/>
      <point x="66.04705882352941" y="240.56470588235294" type="curve" smooth="yes"/>
      <point x="66.04705882352941" y="65.62352941176471"/>
      <point x="115.74117647058824" y="-12.188235294117646"/>
      <point x="230.98823529411766" y="-12.188235294117646" type="curve" smooth="yes"/>
      <point x="307.61176470588236" y="-12.188235294117646"/>
      <point x="369.8705882352941" y="22.811764705882354"/>
      <point x="444.7294117647059" y="84.55294117647058" type="curve"/>
      <point x="438.22352941176473" y="113.34117647058824" type="line"/>
      <point x="360.11764705882354" y="55.04705882352941"/>
      <point x="309.56470588235294" y="24.176470588235297"/>
      <point x="241.2" y="24.176470588235297" type="curve" smooth="yes"/>
      <point x="144.34117647058824" y="24.176470588235297"/>
      <point x="107.23529411764706" y="86.54117647058823"/>
      <point x="107.23529411764706" y="238.24705882352941" type="curve" smooth="yes"/>
      <point x="107.23529411764706" y="405.6588235294118"/>
      <point x="151.65882352941176" y="457.70588235294116"/>
      <point x="272.3764705882353" y="458.2705882352941" type="curve" smooth="yes"/>
      <point x="316.81176470588235" y="458.45882352941175"/>
      <point x="375.2470588235294" y="451.6470588235294"/>
      <point x="439.91764705882355" y="433.4" type="curve"/>
      <point x="473.15294117647056" y="461.94117647058823" type="line"/>
      <point x="403.65882352941173" y="481.88235294117646"/>
      <point x="330.88235294117646" y="493.88235294117646"/>
    </contour>
    <contour>
      <point x="433.52941176470586" y="462.88235294117646" type="line"/>
      <point x="433.52941176470586" y="96.74117647058824" type="line"/>
      <point x="438.0352941176471" y="81.11764705882354" type="line"/>
      <point x="432.90588235294115" y="48.98823529411764"/>
      <point x="433.34117647058827" y="23.541176470588237"/>
      <point x="433.34117647058827" y="-16.211764705882352" type="curve" smooth="yes"/>
      <point x="433.52941176470586" y="-207.5529411764706" type="line"/>
      <point x="473.15294117647056" y="-207.5529411764706" type="line"/>
      <point x="473.15294117647056" y="461.94117647058823" type="line"/>
    </contour>
  </outline>
</glyph>
<glyph name="r" format="2">
  <advance width="387.5176470588235"/>
  <unicode hex="0072"/>
  <anchor x="111.5764705882353" y="-2.258823529411764" name="bottom"/>
  <anchor x="220.81176470588235" y="557.0588235294117" name="top"/>
  <outline>
    <contour>
      <point x="121.09411764705882" y="481.6941176470588" type="line"/>
      <point x="90.67058823529412" y="481.6941176470588" type="line"/>
      <point x="90.67058823529412" y="0.0" type="line"/>
      <point x="130.4823529411765" y="0.0" type="line"/>
      <point x="130.4823529411765" y="376.7529411764706" type="line"/>
      <point x="125.97647058823529" y="392.56470588235294" type="line"/>
    </contour>
    <contour>
      <point x="366.0235294117647" y="493.88235294117646" type="line"/>
      <point x="346.2705882352941" y="493.88235294117646" type="line"/>
      <point x="275.21176470588233" y="493.88235294117646"/>
      <point x="202.0235294117647" y="457.4470588235294"/>
      <point x="123.90588235294118" y="395.38823529411764" type="curve"/>
      <point x="125.78823529411764" y="364.67058823529413" type="line"/>
      <point x="214.52941176470588" y="423.0235294117647"/>
      <point x="273.2705882352941" y="456.2"/>
      <point x="339.88235294117646" y="456.2" type="curve" smooth="yes"/>
      <point x="359.70588235294116" y="456.2" type="line"/>
    </contour>
  </outline>
</glyph>
<glyph name="s" format="2">
  <advance width="501.25882352941176"/>
  <unicode hex="0073"/>
  <anchor x="248.18823529411765" y="-11.0" name="bottom"/>
  <anchor x="254.31764705882352" y="557.0588235294117" name="top"/>
  <outline>
    <contour>
      <point x="239.3764705882353" y="493.88235294117646" type="curve" smooth="yes"/>
      <point x="118.23529411764706" y="495.6941176470588"/>
      <point x="58.98823529411764" y="483.9294117647059"/>
      <point x="58.98823529411764" y="365.0" type="curve" smooth="yes"/>
      <point x="58.98823529411764" y="282.7529411764706"/>
      <point x="94.48235294117647" y="248.6235294117647"/>
      <point x="164.49411764705883" y="237.8" type="curve" smooth="yes"/>
      <point x="320.84705882352944" y="214.78823529411764" type="line" smooth="yes"/>
      <point x="368.47058823529414" y="207.47058823529412"/>
      <point x="403.5882352941176" y="188.23529411764707"/>
      <point x="403.5882352941176" y="123.69411764705882" type="curve" smooth="yes"/>
      <point x="403.5882352941176" y="37.67058823529412"/>
      <point x="362.22352941176473" y="25.423529411764704"/>
      <point x="245.04705882352943" y="23.799999999999997" type="curve" smooth="yes"/>
      <point x="181.42352941176472" y="22.988235294117644"/>
      <point x="133.2235294117647" y="24.799999999999997"/>
      <point x="74.17647058823529" y="30.235294117647058" type="curve"/>
      <point x="70.4235294117647" y="0.7529411764705882" type="line"/>
      <point x="145.87058823529412" y="-10.0"/>
      <point x="204.76470588235293" y="-11.0"/>
      <point x="248.75294117647059" y="-11.0" type="curve" smooth="yes"/>
      <point x="375.0235294117647" y="-11.0"/>
      <point x="442.6470588235294" y="2.258823529411764"/>
      <point x="442.6470588235294" y="123.69411764705882" type="curve" smooth="yes"/>
      <point x="442.6470588235294" y="201.57647058823528"/>
      <point x="404.4" y="237.4470588235294"/>
      <point x="332.5176470588235" y="248.89411764705883" type="curve" smooth="yes"/>
      <point x="175.78823529411764" y="272.09411764705885" type="line" smooth="yes"/>
      <point x="125.72941176470587" y="279.4117647058824"/>
      <point x="98.04705882352941" y="299.2705882352941"/>
      <point x="98.04705882352941" y="365.0" type="curve" smooth="yes"/>
      <point x="98.04705882352941" y="457.8941176470588"/>
      <point x="139.90588235294118" y="460.5176470588235"/>
      <point x="242.57647058823528" y="458.8941176470588" type="curve" smooth="yes"/>
      <point x="302.1411764705882" y="458.08235294117645"/>
      <point x="366.5764705882353" y="455.2705882352941"/>
      <point x="426.1411764705882" y="451.6470588235294" type="curve"/>
      <point x="430.08235294117645" y="480.94117647058823" type="line"/>
      <point x="370.8941176470588" y="488.50588235294117"/>
      <point x="298.6941176470588" y="492.88235294117646"/>
    </contour>
  </outline>
</glyph>
<glyph name="t" format="2">
  <advance width="355.84705882352944"/>
  <unicode hex="0074"/>
  <anchor x="234.32941176470587" y="-6.752941176470588" name="bottom"/>
  <anchor x="140.58823529411765" y="641.9411764705883" name="top"/>
  <outline>
    <contour>
      <point x="159.11764705882354" y="631.0" type="line"/>
      <point x="119.49411764705883" y="631.0" type="line"/>
      <point x="119.49411764705883" y="102.15294117647059" type="line" smooth="yes"/>
      <point x="119.49411764705883" y="32.07058823529412"/>
      <point x="157.18823529411765" y="-6.752941176470588"/>
      <point x="233.25882352941176" y="-6.752941176470588" type="curve" smooth="yes"/>
      <point x="252.14117647058822" y="-6.752941176470588"/>
      <point x="296.52941176470586" y="-4.188235294117647"/>
      <point x="324.65882352941173" y="0.9411764705882355" type="curve"/>
      <point x="319.9647058823529" y="29.55294117647059" type="line"/>
      <point x="235.54117647058823" y="29.55294117647059" type="line" smooth="yes"/>
      <point x="185.4823529411765" y="29.55294117647059"/>
      <point x="159.11764705882354" y="54.294117647058826"/>
      <point x="159.11764705882354" y="105.78823529411764" type="curve" smooth="yes"/>
    </contour>
    <contour>
      <point x="331.28235294117644" y="481.6941176470588" type="line"/>
      <point x="125.87058823529412" y="481.6941176470588" type="line"/>
      <point x="32.11764705882353" y="476.6941176470588" type="line"/>
      <point x="32.11764705882353" y="448.21176470588233" type="line"/>
      <point x="331.28235294117644" y="448.21176470588233" type="line"/>
    </contour>
  </outline>
</glyph>
<glyph name="u" format="2">
  <advance width="562.635294117647"/>
  <unicode hex="0075"/>
  <anchor x="276.0" y="-11.0" name="bottom"/>
  <anchor x="472.52941176470586" y="0.0" name="ogonek"/>
  <anchor x="281.3176470588235" y="557.8117647058823" name="top"/>
  <outline>
    <contour>
      <point x="126.67058823529412" y="481.6941176470588" type="line"/>
      <point x="86.85882352941177" y="481.6941176470588" type="line"/>
      <point x="86.85882352941177" y="119.56470588235294" type="line" smooth="yes"/>
      <point x="86.85882352941177" y="33.0"/>
      <point x="131.23529411764707" y="-12.188235294117646"/>
      <point x="216.8" y="-12.188235294117646" type="curve" smooth="yes"/>
      <point x="289.1764705882353" y="-12.188235294117646"/>
      <point x="361.4235294117647" y="20.870588235294118"/>
      <point x="439.67058823529413" y="85.36470588235294" type="curve"/>
      <point x="436.84705882352944" y="117.58823529411765" type="line"/>
      <point x="350.4235294117647" y="55.917647058823526"/>
      <point x="293.8705882352941" y="23.799999999999997"/>
      <point x="228.01176470588234" y="23.799999999999997" type="curve" smooth="yes"/>
      <point x="158.71764705882353" y="23.799999999999997"/>
      <point x="126.48235294117647" y="55.6"/>
      <point x="126.67058823529412" y="128.0235294117647" type="curve" smooth="yes"/>
    </contour>
    <contour>
      <point x="471.9647058823529" y="481.6941176470588" type="line"/>
      <point x="432.34117647058827" y="481.6941176470588" type="line"/>
      <point x="432.34117647058827" y="104.75294117647059" type="line"/>
      <point x="436.6588235294118" y="89.12941176470588" type="line"/>
      <point x="441.16470588235296" y="0.0" type="line"/>
      <point x="471.9647058823529" y="0.0" type="line"/>
    </contour>
  </outline>
</glyph>
<glyph name="v" format="2">
  <advance width="512.8352941176471"/>
  <unicode hex="0076"/>
  <outline>
    <contour>
      <point x="485.84705882352944" y="481.6941176470588" type="line"/>
      <point x="443.28235294117644" y="481.6941176470588" type="line"/>
      <point x="299.56470588235294" y="122.28235294117647" type="line" smooth="yes"/>
      <point x="287.3176470588235" y="92.03529411764706"/>
      <point x="275.0705882352941" y="62.22352941176471"/>
      <point x="262.8235294117647" y="31.976470588235294" type="curve"/>
      <point x="249.8235294117647" y="31.976470588235294" type="line"/>
      <point x="237.76470588235293" y="61.411764705882355"/>
      <point x="226.32941176470587" y="92.03529411764706"/>
      <point x="214.08235294117648" y="121.47058823529412" type="curve" smooth="yes"/>
      <point x="69.5529411764706" y="481.6941176470588" type="line"/>
      <point x="26.988235294117647" y="481.6941176470588" type="line"/>
      <point x="219.09411764705882" y="11.388235294117647" type="line" smooth="yes"/>
      <point x="222.47058823529412" y="4.317647058823529"/>
      <point x="228.35294117647058" y="0.0"/>
      <point x="236.42352941176472" y="0.0" type="curve" smooth="yes"/>
      <point x="276.22352941176473" y="0.0" type="line" smooth="yes"/>
      <point x="284.4823529411765" y="0.0"/>
      <point x="290.1764705882353" y="4.317647058823529"/>
      <point x="293.74117647058824" y="11.388235294117647" type="curve" smooth="yes"/>
    </contour>
  </outline>
</glyph>
<glyph name="w" format="2">
  <advance width="815.0117647058823"/>
  <unicode hex="0077"/>
  <anchor x="407.6941176470588" y="557.0588235294117" name="top"/>
  <outline>
    <contour>
      <point x="783.4588235294118" y="481.6941176470588" type="line"/>
      <point x="741.4588235294118" y="481.6941176470588" type="line"/>
      <point x="612.8705882352941" y="97.54117647058823" type="line" smooth="yes"/>
      <point x="605.0588235294117" y="74.78823529411764"/>
      <point x="599.6235294117647" y="53.22352941176471"/>
      <point x="592.3764705882353" y="30.470588235294116" type="curve"/>
      <point x="578.564705882353" y="30.470588235294116" type="line"/>
      <point x="571.9411764705883" y="53.22352941176471"/>
      <point x="565.1294117647059" y="74.97647058823529"/>
      <point x="558.5058823529412" y="97.54117647058823" type="curve" smooth="yes"/>
      <point x="444.36470588235295" y="467.98823529411766" type="line" smooth="yes"/>
      <point x="441.98823529411766" y="476.0"/>
      <point x="435.1058823529412" y="481.6941176470588"/>
      <point x="426.47058823529414" y="481.6941176470588" type="curve" smooth="yes"/>
      <point x="388.7294117647059" y="481.6941176470588" type="line" smooth="yes"/>
      <point x="379.90588235294115" y="481.6941176470588"/>
      <point x="373.21176470588233" y="476.0"/>
      <point x="370.83529411764704" y="468.1764705882353" type="curve" smooth="yes"/>
      <point x="256.50588235294117" y="97.54117647058823" type="line" smooth="yes"/>
      <point x="249.88235294117646" y="74.97647058823529"/>
      <point x="243.0705882352941" y="53.035294117647055"/>
      <point x="236.4470588235294" y="30.470588235294116" type="curve"/>
      <point x="222.63529411764705" y="30.470588235294116" type="line"/>
      <point x="215.57647058823528" y="52.22352941176471"/>
      <point x="209.76470588235293" y="74.97647058823529"/>
      <point x="202.14117647058822" y="96.72941176470587" type="curve" smooth="yes"/>
      <point x="73.5529411764706" y="481.6941176470588" type="line"/>
      <point x="31.55294117647059" y="481.6941176470588" type="line"/>
      <point x="192.34117647058824" y="12.952941176470588" type="line" smooth="yes"/>
      <point x="194.71764705882353" y="4.5058823529411764"/>
      <point x="201.78823529411764" y="0.0"/>
      <point x="210.42352941176472" y="0.0" type="curve" smooth="yes"/>
      <point x="249.2235294117647" y="0.0" type="line" smooth="yes"/>
      <point x="258.0470588235294" y="0.0"/>
      <point x="265.3058823529412" y="5.694117647058824"/>
      <point x="267.6823529411765" y="13.705882352941178" type="curve" smooth="yes"/>
      <point x="380.01176470588234" y="378.6588235294118" type="line" smooth="yes"/>
      <point x="387.4470588235294" y="403.0352941176471"/>
      <point x="394.88235294117646" y="427.4117647058824"/>
      <point x="402.3176470588235" y="451.9764705882353" type="curve"/>
      <point x="412.6941176470588" y="451.9764705882353" type="line"/>
      <point x="420.3176470588235" y="427.4117647058824"/>
      <point x="426.56470588235294" y="403.0352941176471"/>
      <point x="434.0" y="378.6588235294118" type="curve" smooth="yes"/>
      <point x="547.3294117647059" y="13.705882352941178" type="line" smooth="yes"/>
      <point x="549.7058823529412" y="5.694117647058824"/>
      <point x="556.964705882353" y="0.0"/>
      <point x="565.6" y="0.0" type="curve" smooth="yes"/>
      <point x="604.7764705882353" y="0.0" type="line" smooth="yes"/>
      <point x="613.4117647058823" y="0.0"/>
      <point x="620.2941176470588" y="4.5058823529411764"/>
      <point x="622.8588235294118" y="12.952941176470588" type="curve" smooth="yes"/>
    </contour>
  </outline>
</glyph>
<glyph name="x" format="2">
  <advance width="511.0235294117647"/>
  <unicode hex="0078"/>
  <outline>
    <contour>
      <point x="465.6" y="481.6941176470588" type="line"/>
      <point x="419.6" y="481.6941176470588" type="line"/>
      <point x="256.2470588235294" y="250.3764705882353" type="line"/>
      <point x="432.22352941176473" y="0.0" type="line"/>
      <point x="478.4117647058824" y="0.0" type="line"/>
      <point x="301.3058823529412" y="250.3764705882353" type="line"/>
    </contour>
    <contour>
      <point x="91.4235294117647" y="481.6941176470588" type="line"/>
      <point x="45.423529411764704" y="481.6941176470588" type="line"/>
      <point x="209.71764705882353" y="250.3764705882353" type="line"/>
      <point x="32.61176470588235" y="0.0" type="line"/>
      <point x="78.8" y="0.0" type="line"/>
      <point x="254.7764705882353" y="250.3764705882353" type="line"/>
    </contour>
    <contour>
      <point x="287.9764705882353" y="268.21176470588233" type="line"/>
      <point x="222.42352941176472" y="268.21176470588233" type="line"/>
      <point x="222.42352941176472" y="234.72941176470587" type="line"/>
      <point x="287.9764705882353" y="234.72941176470587" type="line"/>
    </contour>
  </outline>
</glyph>
<glyph name="y" format="2">
  <advance width="511.83529411764704"/>
  <unicode hex="0079"/>
  <anchor x="403.78823529411767" y="-11.0" name="bottom"/>
  <anchor x="258.8235294117647" y="557.0588235294117" name="top"/>
  <outline>
    <contour>
      <point x="485.47058823529414" y="481.6941176470588" type="line"/>
      <point x="442.52941176470586" y="481.6941176470588" type="line"/>
      <point x="284.25882352941176" y="88.4235294117647" type="line" smooth="yes"/>
      <point x="275.25882352941176" y="65.29411764705883"/>
      <point x="264.88235294117646" y="38.470588235294116"/>
      <point x="255.50588235294117" y="16.341176470588234" type="curve" smooth="yes"/>
      <point x="235.18823529411765" y="-33.67058823529412" type="line" smooth="yes"/>
      <point x="208.75294117647059" y="-101.2235294117647"/>
      <point x="174.43529411764706" y="-154.64705882352942"/>
      <point x="94.62352941176471" y="-184.14117647058822" type="curve"/>
      <point x="101.37647058823529" y="-208.87058823529412" type="line"/>
      <point x="196.41176470588235" y="-188.95294117647057"/>
      <point x="237.6235294117647" y="-122.61176470588235"/>
      <point x="271.2470588235294" y="-41.91764705882353" type="curve" smooth="yes"/>
    </contour>
    <contour>
      <point x="69.74117647058824" y="481.6941176470588" type="line"/>
      <point x="26.988235294117647" y="481.6941176470588" type="line"/>
      <point x="218.71764705882353" y="11.576470588235294" type="line" smooth="yes"/>
      <point x="222.09411764705882" y="4.317647058823529"/>
      <point x="227.9764705882353" y="0.0"/>
      <point x="236.23529411764707" y="0.0" type="curve" smooth="yes"/>
      <point x="254.68235294117648" y="0.0" type="line"/>
      <point x="269.38823529411764" y="33.10588235294118" type="line"/>
      <point x="249.4470588235294" y="33.10588235294118" type="line"/>
      <point x="243.01176470588234" y="50.858823529411765"/>
      <point x="235.38823529411764" y="69.23529411764706"/>
      <point x="228.38823529411764" y="86.8" type="curve" smooth="yes"/>
    </contour>
  </outline>
</glyph>
<glyph name="z" format="2">
  <advance width="501.8235294117647"/>
  <unicode hex="007A"/>
  <anchor x="255.94117647058823" y="-11.0" name="bottom"/>
  <anchor x="247.4470588235294" y="557.0588235294117" name="top"/>
  <outline>
    <contour>
      <point x="400.2" y="448.45882352941175" type="line"/>
      <point x="51.87058823529412" y="34.23529411764706" type="line"/>
      <point x="98.62352941176471" y="33.23529411764706" type="line"/>
      <point x="446.7647058823529" y="447.45882352941175" type="line"/>
    </contour>
    <contour>
      <point x="449.9529411764706" y="34.23529411764706" type="line"/>
      <point x="51.87058823529412" y="34.23529411764706" type="line"/>
      <point x="51.87058823529412" y="0.0" type="line"/>
      <point x="449.9529411764706" y="0.0" type="line"/>
    </contour>
    <contour>
      <point x="446.7647058823529" y="481.6941176470588" type="line"/>
      <point x="55.05882352941177" y="481.6941176470588" type="line"/>
      <point x="55.05882352941177" y="447.45882352941175" type="line"/>
      <point x="446.7647058823529" y="447.45882352941175" type="line"/>
    </contour>
  </outline>
</glyph>
<glyph name="braceleft" format="2">
  <advance width="303.45882352941175"/>
  <unicode hex="007B"/>
  <outline>
    <contour>
      <point x="255.1529411764706" y="768.0" type="line"/>
      <point x="155.24705882352941" y="770.4470588235295"/>
      <point x="116.67058823529412" y="730.435294117647"/>
      <point x="116.67058823529412" y="640.3058823529411" type="curve" smooth="yes"/>
      <point x="116.67058823529412" y="429.4470588235294" type="line" smooth="yes"/>
      <point x="116.67058823529412" y="362.9529411764706"/>
      <point x="105.04705882352941" y="362.9529411764706"/>
      <point x="53.36470588235294" y="347.1411764705882" type="curve"/>
      <point x="53.36470588235294" y="308.8588235294118" type="line"/>
      <point x="101.23529411764706" y="291.0470588235294"/>
      <point x="120.67058823529412" y="286.2352941176471"/>
      <point x="120.67058823529412" y="230.5529411764706" type="curve" smooth="yes"/>
      <point x="120.67058823529412" y="-37.305882352941175" type="line" smooth="yes"/>
      <point x="120.67058823529412" y="-127.43529411764706"/>
      <point x="159.24705882352941" y="-167.4470588235294"/>
      <point x="259.15294117647056" y="-165.0" type="curve"/>
      <point x="259.15294117647056" y="-137.7764705882353" type="line"/>
      <point x="181.78823529411764" y="-137.7764705882353"/>
      <point x="159.54117647058823" y="-103.35294117647058"/>
      <point x="159.54117647058823" y="-35.8" type="curve" smooth="yes"/>
      <point x="159.54117647058823" y="219.61176470588236" type="line" smooth="yes"/>
      <point x="159.35294117647058" y="289.61176470588236"/>
      <point x="141.78823529411764" y="305.81176470588235"/>
      <point x="76.15294117647059" y="328.0" type="curve"/>
      <point x="138.9764705882353" y="342.0"/>
      <point x="155.72941176470587" y="359.01176470588234"/>
      <point x="155.54117647058823" y="440.38823529411764" type="curve" smooth="yes"/>
      <point x="155.54117647058823" y="638.6117647058824" type="line" smooth="yes"/>
      <point x="155.54117647058823" y="706.9764705882353"/>
      <point x="177.78823529411764" y="740.7764705882353"/>
      <point x="255.1529411764706" y="740.7764705882353" type="curve"/>
    </contour>
  </outline>
</glyph>
<glyph name="bar" format="2">
  <advance width="237.2"/>
  <unicode hex="007C"/>
  <outline>
    <contour>
      <point x="134.7764705882353" y="781.0" type="line"/>
      <point x="102.4235294117647" y="781.0" type="line"/>
      <point x="102.4235294117647" y="-169.0" type="line"/>
      <point x="134.7764705882353" y="-169.0" type="line"/>
    </contour>
  </outline>
</glyph>
<glyph name="braceright" format="2">
  <advance width="303.6470588235294"/>
  <unicode hex="007D"/>
  <outline>
    <contour>
      <point x="48.49411764705882" y="768.0" type="curve"/>
      <point x="48.49411764705882" y="740.7764705882353" type="line"/>
      <point x="125.85882352941177" y="740.7764705882353"/>
      <point x="148.10588235294117" y="706.9764705882353"/>
      <point x="148.10588235294117" y="638.6117647058824" type="curve" smooth="yes"/>
      <point x="148.10588235294117" y="440.38823529411764" type="line" smooth="yes"/>
      <point x="147.91764705882352" y="359.01176470588234"/>
      <point x="164.67058823529413" y="342.0"/>
      <point x="227.49411764705883" y="328.0" type="curve"/>
      <point x="161.85882352941178" y="305.81176470588235"/>
      <point x="144.2941176470588" y="289.61176470588236"/>
      <point x="144.10588235294117" y="219.61176470588236" type="curve" smooth="yes"/>
      <point x="144.10588235294117" y="-35.8" type="line" smooth="yes"/>
      <point x="144.10588235294117" y="-103.35294117647058"/>
      <point x="121.85882352941177" y="-137.7764705882353"/>
      <point x="44.49411764705882" y="-137.7764705882353" type="curve"/>
      <point x="44.49411764705882" y="-165.0" type="line"/>
      <point x="144.4" y="-167.4470588235294"/>
      <point x="182.9764705882353" y="-127.43529411764706"/>
      <point x="182.9764705882353" y="-37.305882352941175" type="curve" smooth="yes"/>
      <point x="182.9764705882353" y="230.5529411764706" type="line" smooth="yes"/>
      <point x="182.9764705882353" y="286.2352941176471"/>
      <point x="202.41176470588235" y="291.0470588235294"/>
      <point x="250.28235294117647" y="308.8588235294118" type="curve"/>
      <point x="250.28235294117647" y="347.1411764705882" type="line"/>
      <point x="198.6" y="362.9529411764706"/>
      <point x="186.9764705882353" y="362.9529411764706"/>
      <point x="186.9764705882353" y="429.4470588235294" type="curve" smooth="yes"/>
      <point x="186.9764705882353" y="640.3058823529411" type="line" smooth="yes"/>
      <point x="186.9764705882353" y="730.435294117647"/>
      <point x="148.4" y="770.4470588235295"/>
    </contour>
  </outline>
</glyph>
<glyph name="asciitilde" format="2">
  <advance width="530.9294117647058"/>
  <unicode hex="007E"/>
  <outline>
    <contour>
      <point x="159.9294117647059" y="334.5176470588235" type="curve" smooth="yes"/>
      <point x="112.17647058823529" y="338.1411764705882"/>
      <point x="80.48235294117647" y="304.4470588235294"/>
      <point x="84.36470588235294" y="237.61176470588236" type="curve"/>
      <point x="108.32941176470588" y="237.61176470588236" type="line"/>
      <point x="108.32941176470588" y="284.91764705882355"/>
      <point x="123.25882352941176" y="305.78823529411767"/>
      <point x="162.94117647058823" y="301.78823529411767" type="curve" smooth="yes"/>
      <point x="236.04705882352943" y="296.6"/>
      <point x="275.83529411764704" y="240.85882352941178"/>
      <point x="372.0" y="236.23529411764707" type="curve" smooth="yes"/>
      <point x="420.3176470588235" y="232.42352941176472"/>
      <point x="451.4470588235294" y="265.8705882352941"/>
      <point x="447.56470588235294" y="329.5176470588235" type="curve"/>
      <point x="423.6" y="329.5176470588235" type="line"/>
      <point x="423.6" y="284.0235294117647"/>
      <point x="408.4823529411765" y="265.77647058823527"/>
      <point x="368.8" y="268.9647058823529" type="curve" smooth="yes"/>
      <point x="288.2" y="274.15294117647056"/>
      <point x="242.6" y="329.8941176470588"/>
    </contour>
  </outline>
</glyph>
<glyph name="exclamdown" format="2">
  <advance width="239.0235294117647"/>
  <unicode hex="00A1"/>
  <outline>
    <contour>
      <point x="136.03529411764706" y="278.3176470588235" type="line"/>
      <point x="102.98823529411764" y="278.3176470588235" type="line"/>
      <point x="99.29411764705883" y="120.35294117647058" type="line"/>
      <point x="99.29411764705883" y="-202.5529411764706" type="line"/>
      <point x="139.72941176470587" y="-202.5529411764706" type="line"/>
      <point x="139.72941176470587" y="120.35294117647058" type="line"/>
    </contour>
    <contour>
      <point x="126.51764705882353" y="483.38823529411764" type="curve" smooth="yes"/>
      <point x="113.50588235294117" y="483.38823529411764" type="line" smooth="yes"/>
      <point x="101.55294117647058" y="483.38823529411764"/>
      <point x="96.4235294117647" y="478.25882352941176"/>
      <point x="96.4235294117647" y="466.3058823529412" type="curve" smooth="yes"/>
      <point x="96.4235294117647" y="406.0" type="line" smooth="yes"/>
      <point x="96.4235294117647" y="394.0470588235294"/>
      <point x="101.55294117647058" y="389.1058823529412"/>
      <point x="113.50588235294117" y="389.1058823529412" type="curve" smooth="yes"/>
      <point x="126.51764705882353" y="389.1058823529412" type="line" smooth="yes"/>
      <point x="138.47058823529412" y="389.1058823529412"/>
      <point x="143.6" y="394.0470588235294"/>
      <point x="143.6" y="406.0" type="curve" smooth="yes"/>
      <point x="143.6" y="466.3058823529412" type="line" smooth="yes"/>
      <point x="143.6" y="478.25882352941176"/>
      <point x="138.47058823529412" y="483.38823529411764"/>
    </contour>
  </outline>
</glyph>
<glyph name="cent" format="2">
  <advance width="504.94117647058823"/>
  <unicode hex="00A2"/>
  <outline>
    <contour>
      <point x="287.2470588235294" y="602.7529411764706" type="curve" smooth="yes"/>
      <point x="125.8" y="602.7529411764706"/>
      <point x="65.04705882352941" y="535.3764705882353"/>
      <point x="65.04705882352941" y="349.81176470588235" type="curve" smooth="yes"/>
      <point x="65.04705882352941" y="164.05882352941177"/>
      <point x="125.61176470588235" y="96.87058823529412"/>
      <point x="287.8705882352941" y="96.87058823529412" type="curve" smooth="yes"/>
      <point x="338.1294117647059" y="96.87058823529412"/>
      <point x="393.2" y="104.24705882352941"/>
      <point x="438.32941176470587" y="115.94117647058823" type="curve"/>
      <point x="433.2" y="144.1058823529412" type="line"/>
      <point x="387.6941176470588" y="135.29411764705884"/>
      <point x="322.25882352941176" y="132.4823529411765"/>
      <point x="293.88235294117646" y="132.4823529411765" type="curve" smooth="yes"/>
      <point x="155.47058823529412" y="132.4823529411765"/>
      <point x="105.48235294117647" y="181.65882352941176"/>
      <point x="105.48235294117647" y="349.81176470588235" type="curve" smooth="yes"/>
      <point x="105.48235294117647" y="517.7764705882353"/>
      <point x="155.47058823529412" y="566.9529411764706"/>
      <point x="293.88235294117646" y="566.9529411764706" type="curve" smooth="yes"/>
      <point x="326.63529411764705" y="566.9529411764706"/>
      <point x="383.3176470588235" y="564.1411764705882"/>
      <point x="420.5764705882353" y="555.8941176470588" type="curve"/>
      <point x="427.8941176470588" y="584.0588235294117" type="line"/>
      <point x="384.38823529411764" y="598.3764705882353"/>
      <point x="325.1294117647059" y="602.7529411764706"/>
    </contour>
    <contour>
      <point x="277.4" y="118.27058823529411" type="line"/>
      <point x="250.18823529411765" y="118.27058823529411" type="line"/>
      <point x="241.05882352941177" y="0.0" type="line"/>
      <point x="268.2705882352941" y="0.0" type="line"/>
    </contour>
    <contour>
      <point x="311.15294117647056" y="580.7176470588236" type="line"/>
      <point x="283.7529411764706" y="580.7176470588236" type="line"/>
      <point x="250.3764705882353" y="115.45882352941176" type="line"/>
      <point x="277.5882352941176" y="115.45882352941176" type="line"/>
    </contour>
    <contour>
      <point x="319.65882352941173" y="690.0" type="line"/>
      <point x="292.4470588235294" y="690.0" type="line"/>
      <point x="283.94117647058823" y="577.9058823529411" type="line"/>
      <point x="311.3411764705882" y="577.9058823529411" type="line"/>
    </contour>
  </outline>
</glyph>
<glyph name="currency" format="2">
  <advance width="599.9294117647058"/>
  <unicode hex="00A4"/>
  <outline>
    <contour>
      <point x="299.05882352941177" y="516.2235294117647" type="curve" smooth="yes"/>
      <point x="388.1058823529412" y="516.2235294117647"/>
      <point x="461.28235294117644" y="442.4235294117647"/>
      <point x="461.28235294117644" y="352.0" type="curve" smooth="yes"/>
      <point x="461.28235294117644" y="261.5764705882353"/>
      <point x="388.1058823529412" y="187.58823529411765"/>
      <point x="299.05882352941177" y="188.58823529411765" type="curve" smooth="yes"/>
      <point x="208.8235294117647" y="187.58823529411765"/>
      <point x="135.64705882352942" y="261.5764705882353"/>
      <point x="135.64705882352942" y="352.0" type="curve" smooth="yes"/>
      <point x="135.64705882352942" y="442.4235294117647"/>
      <point x="208.8235294117647" y="516.2235294117647"/>
    </contour>
    <contour>
      <point x="100.07058823529411" y="571.8235294117648" type="line"/>
      <point x="80.04705882352941" y="550.9882352941177" type="line"/>
      <point x="161.61176470588236" y="469.4235294117647" type="line"/>
      <point x="182.4470588235294" y="489.25882352941176" type="line"/>
    </contour>
    <contour>
      <point x="499.2352941176471" y="571.8235294117648" type="line"/>
      <point x="418.8588235294118" y="491.4470588235294" type="line"/>
      <point x="438.6941176470588" y="471.4235294117647" type="line"/>
      <point x="519.2588235294118" y="550.9882352941177" type="line"/>
    </contour>
    <contour>
      <point x="165.42352941176472" y="239.32941176470587" type="line"/>
      <point x="78.67058823529412" y="152.57647058823528" type="line"/>
      <point x="100.07058823529411" y="131.98823529411766" type="line"/>
      <point x="186.01176470588234" y="218.74117647058824" type="line"/>
    </contour>
    <contour>
      <point x="434.3176470588235" y="236.57647058823528" type="line"/>
      <point x="414.29411764705884" y="216.5529411764706" type="line"/>
      <point x="499.0470588235294" y="131.8" type="line"/>
      <point x="520.0705882352942" y="151.8235294117647" type="line"/>
    </contour>
    <contour>
      <point x="299.05882352941177" y="544.3176470588236" type="curve" smooth="yes"/>
      <point x="192.30588235294118" y="544.3176470588236"/>
      <point x="106.55294117647058" y="458.56470588235294"/>
      <point x="106.55294117647058" y="351.81176470588235" type="curve" smooth="yes"/>
      <point x="106.55294117647058" y="246.05882352941177"/>
      <point x="192.30588235294118" y="160.30588235294118"/>
      <point x="299.05882352941177" y="160.30588235294118" type="curve" smooth="yes"/>
      <point x="404.81176470588235" y="160.30588235294118"/>
      <point x="490.56470588235294" y="246.05882352941177"/>
      <point x="490.56470588235294" y="351.81176470588235" type="curve" smooth="yes"/>
      <point x="490.56470588235294" y="458.56470588235294"/>
      <point x="405.81176470588235" y="544.3176470588236"/>
    </contour>
  </outline>
</glyph>
<glyph name="yen" format="2">
  <advance width="606.1411764705882"/>
  <unicode hex="00A5"/>
  <outline>
    <contour>
      <point x="556.6588235294117" y="690.0" type="line"/>
      <point x="512.2823529411764" y="690.0" type="line"/>
      <point x="343.7529411764706" y="393.3411764705882" type="line" smooth="yes"/>
      <point x="331.94117647058823" y="371.5882352941176"/>
      <point x="317.88235294117646" y="345.6470588235294"/>
      <point x="305.63529411764705" y="322.8941176470588" type="curve"/>
      <point x="300.0705882352941" y="322.8941176470588" type="line"/>
      <point x="287.63529411764705" y="345.6470588235294"/>
      <point x="273.7647058823529" y="371.5882352941176"/>
      <point x="260.9529411764706" y="394.15294117647056" type="curve" smooth="yes"/>
      <point x="92.23529411764706" y="690.0" type="line"/>
      <point x="47.858823529411765" y="690.0" type="line"/>
      <point x="286.16470588235296" y="273.6" type="line"/>
      <point x="319.3529411764706" y="273.6" type="line"/>
    </contour>
    <contour>
      <point x="323.3529411764706" y="312.50588235294117" type="line"/>
      <point x="282.16470588235296" y="312.50588235294117" type="line"/>
      <point x="282.16470588235296" y="0.0" type="line"/>
      <point x="323.3529411764706" y="0.0" type="line"/>
    </contour>
    <contour>
      <point x="516.2705882352941" y="199.57647058823528" type="line"/>
      <point x="94.05882352941177" y="199.57647058823528" type="line"/>
      <point x="94.24705882352941" y="171.67058823529413" type="line"/>
      <point x="516.2705882352941" y="171.67058823529413" type="line"/>
    </contour>
    <contour>
      <point x="516.2705882352941" y="310.32941176470587" type="line"/>
      <point x="93.87058823529412" y="310.32941176470587" type="line"/>
      <point x="94.24705882352941" y="282.2352941176471" type="line"/>
      <point x="516.2705882352941" y="282.2352941176471" type="line"/>
    </contour>
  </outline>
</glyph>
<glyph name="brokenbar" format="2">
  <advance width="239.2"/>
  <unicode hex="00A6"/>
  <outline>
    <contour>
      <point x="135.7764705882353" y="781.0" type="line"/>
      <point x="103.4235294117647" y="781.0" type="line"/>
      <point x="103.4235294117647" y="381.0" type="line"/>
      <point x="135.7764705882353" y="381.0" type="line"/>
    </contour>
    <contour>
      <point x="135.7764705882353" y="231.0" type="line"/>
      <point x="103.4235294117647" y="231.0" type="line"/>
      <point x="103.4235294117647" y="-169.0" type="line"/>
      <point x="135.7764705882353" y="-169.0" type="line"/>
    </contour>
  </outline>
</glyph>
<glyph name="section" format="2">
  <advance width="543.3764705882353"/>
  <unicode hex="00A7"/>
  <outline>
    <contour>
      <point x="116.28235294117647" y="408.84705882352944" type="curve"/>
      <point x="83.92941176470589" y="408.84705882352944" type="line"/>
      <point x="70.10588235294118" y="302.34117647058827"/>
      <point x="83.91764705882353" y="235.64705882352942"/>
      <point x="171.9294117647059" y="186.70588235294116" type="curve" smooth="yes"/>
      <point x="355.4" y="83.2235294117647" type="line" smooth="yes"/>
      <point x="398.32941176470587" y="59.35294117647059"/>
      <point x="431.2" y="26.364705882352943"/>
      <point x="430.63529411764705" y="-31.24705882352941" type="curve" smooth="yes"/>
      <point x="430.4470588235294" y="-114.15294117647059"/>
      <point x="368.5882352941176" y="-114.52941176470588"/>
      <point x="285.0352941176471" y="-113.71764705882353" type="curve" smooth="yes"/>
      <point x="215.09411764705882" y="-112.71764705882353"/>
      <point x="153.04705882352943" y="-110.09411764705882"/>
      <point x="77.87058823529412" y="-106.09411764705882" type="curve"/>
      <point x="73.92941176470589" y="-136.5176470588235" type="line"/>
      <point x="150.98823529411766" y="-143.7058823529412"/>
      <point x="222.12941176470588" y="-147.5176470588235"/>
      <point x="290.49411764705883" y="-148.5176470588235" type="curve" smooth="yes"/>
      <point x="393.5764705882353" y="-149.32941176470587"/>
      <point x="472.5764705882353" y="-143.69411764705882"/>
      <point x="472.5764705882353" y="-32.0" type="curve" smooth="yes"/>
      <point x="472.5764705882353" y="36.705882352941174"/>
      <point x="442.3764705882353" y="77.5764705882353"/>
      <point x="370.1411764705882" y="118.69411764705882" type="curve" smooth="yes"/>
      <point x="182.41176470588235" y="224.87058823529412" type="line" smooth="yes"/>
      <point x="119.2235294117647" y="260.8705882352941"/>
      <point x="106.2235294117647" y="317.54117647058825"/>
    </contour>
    <contour>
      <point x="253.25882352941176" y="702.1882352941177" type="curve" smooth="yes"/>
      <point x="139.9294117647059" y="703.0"/>
      <point x="70.98823529411764" y="687.3058823529411"/>
      <point x="70.98823529411764" y="588.2941176470588" type="curve" smooth="yes"/>
      <point x="70.98823529411764" y="520.5882352941177"/>
      <point x="99.37647058823529" y="481.52941176470586"/>
      <point x="174.23529411764707" y="438.78823529411767" type="curve" smooth="yes"/>
      <point x="361.15294117647056" y="331.61176470588236" type="line" smooth="yes"/>
      <point x="421.71764705882356" y="297.2352941176471"/>
      <point x="437.34117647058827" y="236.12941176470588"/>
      <point x="427.28235294117644" y="145.01176470588234" type="curve"/>
      <point x="459.63529411764705" y="145.01176470588234" type="line"/>
      <point x="473.6470588235294" y="251.32941176470587"/>
      <point x="461.6470588235294" y="319.83529411764704"/>
      <point x="372.8235294117647" y="369.77647058823527" type="curve" smooth="yes"/>
      <point x="188.54117647058823" y="474.0705882352941" type="line" smooth="yes"/>
      <point x="143.61176470588236" y="499.7529411764706"/>
      <point x="112.5529411764706" y="530.9294117647058"/>
      <point x="112.92941176470589" y="587.7294117647059" type="curve" smooth="yes"/>
      <point x="113.30588235294118" y="665.3882352941176"/>
      <point x="173.54117647058823" y="668.2"/>
      <point x="258.90588235294115" y="667.2" type="curve" smooth="yes"/>
      <point x="362.70588235294116" y="666.3882352941176"/>
      <point x="401.5764705882353" y="663.7647058823529"/>
      <point x="465.88235294117646" y="659.7647058823529" type="curve"/>
      <point x="469.63529411764705" y="690.1882352941177" type="line"/>
      <point x="406.0705882352941" y="697.1882352941177"/>
      <point x="325.05882352941177" y="701.1882352941177"/>
    </contour>
  </outline>
</glyph>
<glyph name="dieresis" format="2">
  <advance width="402.11585882352944"/>
  <unicode hex="00A8"/>
  <anchor x="201.68414117647058" y="557.0148705882353" name="_top"/>
  <outline>
    <contour>
      <point x="297.1411764705882" y="678.0823529411765" type="curve" smooth="yes"/>
      <point x="282.43529411764706" y="678.0823529411765" type="line" smooth="yes"/>
      <point x="272.98823529411766" y="678.0823529411765"/>
      <point x="268.8588235294118" y="672.7647058823529"/>
      <point x="268.8588235294118" y="663.6941176470589" type="curve" smooth="yes"/>
      <point x="268.8588235294118" y="608.0705882352942" type="line" smooth="yes"/>
      <point x="268.8588235294118" y="598.6235294117647"/>
      <point x="272.98823529411766" y="593.6823529411764"/>
      <point x="282.43529411764706" y="593.6823529411764" type="curve" smooth="yes"/>
      <point x="297.1411764705882" y="593.6823529411764" type="line" smooth="yes"/>
      <point x="306.21176470588233" y="593.6823529411764"/>
      <point x="310.71764705882356" y="598.6235294117647"/>
      <point x="310.71764705882356" y="608.0705882352942" type="curve" smooth="yes"/>
      <point x="310.71764705882356" y="663.6941176470589" type="line" smooth="yes"/>
      <point x="310.71764705882356" y="672.7647058823529"/>
      <point x="306.21176470588233" y="678.0823529411765"/>
    </contour>
    <contour>
      <point x="120.14117647058823" y="678.0823529411765" type="curve" smooth="yes"/>
      <point x="105.24705882352941" y="678.0823529411765" type="line" smooth="yes"/>
      <point x="95.98823529411764" y="678.0823529411765"/>
      <point x="91.85882352941177" y="672.7647058823529"/>
      <point x="91.85882352941177" y="663.6941176470589" type="curve" smooth="yes"/>
      <point x="91.85882352941177" y="608.0705882352942" type="line" smooth="yes"/>
      <point x="91.85882352941177" y="598.6235294117647"/>
      <point x="95.98823529411764" y="593.6823529411764"/>
      <point x="105.24705882352941" y="593.6823529411764" type="curve" smooth="yes"/>
      <point x="120.14117647058823" y="593.6823529411764" type="line" smooth="yes"/>
      <point x="129.4" y="593.6823529411764"/>
      <point x="133.52941176470588" y="598.6235294117647"/>
      <point x="133.52941176470588" y="608.0705882352942" type="curve" smooth="yes"/>
      <point x="133.52941176470588" y="663.6941176470589" type="line" smooth="yes"/>
      <point x="133.52941176470588" y="672.7647058823529"/>
      <point x="129.4" y="678.0823529411765"/>
    </contour>
  </outline>
</glyph>
<glyph name="copyright" format="2">
  <advance width="852.3529411764706"/>
  <unicode hex="00A9"/>
  <outline>
    <contour>
      <point x="426.1764705882353" y="702.1882352941177" type="curve" smooth="yes"/>
      <point x="228.61176470588236" y="702.1882352941177"/>
      <point x="68.61176470588235" y="552.1882352941177"/>
      <point x="68.61176470588235" y="345.0" type="curve" smooth="yes"/>
      <point x="68.61176470588235" y="137.81176470588235"/>
      <point x="228.61176470588236" y="-12.188235294117646"/>
      <point x="426.1764705882353" y="-12.188235294117646" type="curve" smooth="yes"/>
      <point x="624.7411764705882" y="-12.188235294117646"/>
      <point x="783.7411764705882" y="137.81176470588235"/>
      <point x="783.7411764705882" y="345.0" type="curve" smooth="yes"/>
      <point x="783.7411764705882" y="552.1882352941177"/>
      <point x="624.7411764705882" y="702.1882352941177"/>
    </contour>
    <contour>
      <point x="431.1764705882353" y="576.8" type="curve" smooth="yes"/>
      <point x="287.36470588235295" y="576.8"/>
      <point x="236.1764705882353" y="515.5529411764705"/>
      <point x="236.1764705882353" y="347.81176470588235" type="curve" smooth="yes"/>
      <point x="236.1764705882353" y="179.88235294117646"/>
      <point x="287.36470588235295" y="118.82352941176471"/>
      <point x="431.1764705882353" y="118.82352941176471" type="curve" smooth="yes"/>
      <point x="496.1764705882353" y="118.82352941176471"/>
      <point x="535.1764705882352" y="123.01176470588236"/>
      <point x="575.364705882353" y="131.57647058823528" type="curve"/>
      <point x="570.8" y="156.04705882352943" type="line"/>
      <point x="530.6117647058824" y="150.42352941176472"/>
      <point x="492.8" y="148.61176470588236"/>
      <point x="430.98823529411766" y="148.61176470588236" type="curve" smooth="yes"/>
      <point x="311.08235294117645" y="148.61176470588236"/>
      <point x="269.65882352941173" y="199.65882352941176"/>
      <point x="269.65882352941173" y="347.81176470588235" type="curve" smooth="yes"/>
      <point x="269.65882352941173" y="495.964705882353"/>
      <point x="311.08235294117645" y="546.2"/>
      <point x="430.98823529411766" y="546.2" type="curve" smooth="yes"/>
      <point x="487.98823529411766" y="546.2"/>
      <point x="515.9882352941177" y="545.2"/>
      <point x="558.9882352941177" y="540.7647058823529" type="curve"/>
      <point x="564.5529411764705" y="564.4235294117647" type="line"/>
      <point x="525.364705882353" y="573.6117647058824"/>
      <point x="492.5529411764706" y="576.8"/>
    </contour>
    <contour>
      <point x="426.1764705882353" y="674.7882352941176" type="curve" smooth="yes"/>
      <point x="607.7882352941176" y="674.7882352941176"/>
      <point x="755.964705882353" y="535.4235294117647"/>
      <point x="755.964705882353" y="345.0" type="curve" smooth="yes"/>
      <point x="755.964705882353" y="154.57647058823528"/>
      <point x="607.7882352941176" y="15.211764705882352"/>
      <point x="426.1764705882353" y="15.211764705882352" type="curve" smooth="yes"/>
      <point x="245.56470588235294" y="15.211764705882352"/>
      <point x="96.38823529411765" y="154.57647058823528"/>
      <point x="96.38823529411765" y="345.0" type="curve" smooth="yes"/>
      <point x="96.38823529411765" y="535.4235294117647"/>
      <point x="245.56470588235294" y="674.7882352941176"/>
    </contour>
  </outline>
</glyph>
<glyph name="ordfeminine" format="2">
  <advance width="443.2470588235294"/>
  <unicode hex="00AA"/>
  <outline>
    <contour>
      <point x="256.8705882352941" y="601.8823529411765" type="curve" smooth="yes"/>
      <point x="187.56470588235294" y="601.8823529411765"/>
      <point x="135.8" y="593.8823529411765"/>
      <point x="89.4235294117647" y="587.6941176470589" type="curve"/>
      <point x="93.36470588235294" y="563.6" type="line"/>
      <point x="143.9294117647059" y="569.035294117647"/>
      <point x="202.36470588235295" y="573.035294117647"/>
      <point x="252.04705882352943" y="573.035294117647" type="curve" smooth="yes"/>
      <point x="308.22352941176473" y="573.035294117647"/>
      <point x="325.47058823529414" y="543.8588235294118"/>
      <point x="325.47058823529414" y="505.9294117647059" type="curve" smooth="yes"/>
      <point x="325.47058823529414" y="347.50588235294117" type="line"/>
      <point x="326.4117647058824" y="341.7529411764706" type="line"/>
      <point x="332.54117647058825" y="270.56470588235294" type="line"/>
      <point x="358.38823529411764" y="270.56470588235294" type="line"/>
      <point x="358.38823529411764" y="505.74117647058824" type="line" smooth="yes"/>
      <point x="358.38823529411764" y="576.3176470588236"/>
      <point x="320.0705882352941" y="601.8823529411765"/>
    </contour>
    <contour>
      <point x="339.81176470588235" y="466.6941176470588" type="line"/>
      <point x="161.49411764705883" y="466.6941176470588" type="line" smooth="yes"/>
      <point x="106.17647058823529" y="466.6941176470588"/>
      <point x="75.04705882352941" y="438.1294117647059"/>
      <point x="75.04705882352941" y="389.56470588235294" type="curve" smooth="yes"/>
      <point x="75.04705882352941" y="349.3176470588235" type="line" smooth="yes"/>
      <point x="75.04705882352941" y="295.3764705882353"/>
      <point x="109.74117647058824" y="266.0"/>
      <point x="167.30588235294118" y="266.0" type="curve" smooth="yes"/>
      <point x="238.56470588235294" y="266.0"/>
      <point x="308.36470588235295" y="311.01176470588234"/>
      <point x="334.0470588235294" y="340.2" type="curve"/>
      <point x="334.0470588235294" y="363.28235294117644" type="line"/>
      <point x="297.5529411764706" y="327.22352941176473"/>
      <point x="227.56470588235294" y="294.22352941176473"/>
      <point x="174.63529411764705" y="295.035294117647" type="curve" smooth="yes"/>
      <point x="131.08235294117648" y="295.84705882352944"/>
      <point x="108.4" y="314.4"/>
      <point x="108.4" y="353.5176470588235" type="curve" smooth="yes"/>
      <point x="108.4" y="388.05882352941177" type="line" smooth="yes"/>
      <point x="108.4" y="421.2352941176471"/>
      <point x="127.32941176470588" y="439.91764705882355"/>
      <point x="168.01176470588234" y="441.1058823529412" type="curve" smooth="yes"/>
      <point x="338.81176470588235" y="445.98823529411766" type="line"/>
    </contour>
  </outline>
</glyph>
<glyph name="logicalnot" format="2">
  <advance width="592.2470588235294"/>
  <unicode hex="00AC"/>
  <outline>
    <contour>
      <point x="505.25882352941176" y="312.83529411764704" type="line"/>
      <point x="82.8" y="312.83529411764704" type="line"/>
      <point x="82.8" y="279.91764705882355" type="line"/>
      <point x="505.25882352941176" y="279.91764705882355" type="line"/>
    </contour>
    <contour>
      <point x="505.25882352941176" y="300.9647058823529" type="line"/>
      <point x="471.34117647058827" y="300.9647058823529" type="line"/>
      <point x="471.34117647058827" y="129.75294117647059" type="line"/>
      <point x="505.25882352941176" y="129.75294117647059" type="line"/>
    </contour>
  </outline>
</glyph>
<glyph name="registered" format="2">
  <advance width="573.8470588235294"/>
  <unicode hex="00AE"/>
  <outline>
    <contour>
      <point x="287.4235294117647" y="701.1882352941177" type="curve" smooth="yes"/>
      <point x="163.42352941176472" y="701.1882352941177"/>
      <point x="64.4235294117647" y="602.1882352941177"/>
      <point x="64.4235294117647" y="479.18823529411765" type="curve" smooth="yes"/>
      <point x="64.4235294117647" y="355.18823529411765"/>
      <point x="163.42352941176472" y="256.18823529411765"/>
      <point x="287.4235294117647" y="256.18823529411765" type="curve" smooth="yes"/>
      <point x="410.4235294117647" y="256.18823529411765"/>
      <point x="509.4235294117647" y="355.18823529411765"/>
      <point x="509.4235294117647" y="479.18823529411765" type="curve" smooth="yes"/>
      <point x="509.4235294117647" y="602.1882352941177"/>
      <point x="410.4235294117647" y="701.1882352941177"/>
    </contour>
    <contour>
      <point x="210.25882352941176" y="616.5529411764705" type="line"/>
      <point x="186.61176470588236" y="616.5529411764705" type="line"/>
      <point x="186.61176470588236" y="339.9529411764706" type="line"/>
      <point x="210.25882352941176" y="339.9529411764706" type="line"/>
    </contour>
    <contour>
      <point x="287.4235294117647" y="681.8" type="curve" smooth="yes"/>
      <point x="397.54117647058825" y="681.8"/>
      <point x="488.0352941176471" y="591.3058823529411"/>
      <point x="488.0352941176471" y="479.18823529411765" type="curve" smooth="yes"/>
      <point x="488.0352941176471" y="366.25882352941176"/>
      <point x="397.54117647058825" y="275.7647058823529"/>
      <point x="287.4235294117647" y="275.7647058823529" type="curve" smooth="yes"/>
      <point x="176.30588235294118" y="275.7647058823529"/>
      <point x="85.81176470588235" y="366.25882352941176"/>
      <point x="85.81176470588235" y="479.18823529411765" type="curve" smooth="yes"/>
      <point x="85.81176470588235" y="591.3058823529411"/>
      <point x="176.30588235294118" y="681.8"/>
    </contour>
    <contour>
      <point x="297.8588235294118" y="619.5529411764705" type="curve" smooth="yes"/>
      <point x="246.04705882352943" y="619.5529411764705"/>
      <point x="222.23529411764707" y="619.5529411764705"/>
      <point x="186.61176470588236" y="616.5529411764705" type="curve"/>
      <point x="193.61176470588236" y="598.6" type="line"/>
      <point x="207.42352941176472" y="599.6"/>
      <point x="247.04705882352943" y="599.6"/>
      <point x="297.67058823529413" y="599.6" type="curve" smooth="yes"/>
      <point x="355.09411764705885" y="599.6"/>
      <point x="376.4" y="588.5411764705882"/>
      <point x="376.21176470588233" y="539.3058823529411" type="curve" smooth="yes"/>
      <point x="376.4" y="492.25882352941176"/>
      <point x="355.09411764705885" y="479.2"/>
      <point x="297.67058823529413" y="478.2" type="curve" smooth="yes"/>
      <point x="192.61176470588236" y="478.2" type="line"/>
      <point x="191.61176470588236" y="462.05882352941177" type="line"/>
      <point x="204.74117647058824" y="461.05882352941177"/>
      <point x="242.4823529411765" y="460.2470588235294"/>
      <point x="301.1058823529412" y="460.2470588235294" type="curve" smooth="yes"/>
      <point x="324.9764705882353" y="460.2470588235294"/>
      <point x="341.6588235294118" y="451.0"/>
      <point x="351.90588235294115" y="425.6941176470588" type="curve" smooth="yes"/>
      <point x="385.83529411764704" y="339.9529411764706" type="line"/>
      <point x="411.67058823529413" y="339.9529411764706" type="line"/>
      <point x="376.36470588235295" y="427.6941176470588" type="line" smooth="yes"/>
      <point x="368.5529411764706" y="449.63529411764705"/>
      <point x="354.1764705882353" y="463.6941176470588"/>
      <point x="337.36470588235295" y="466.50588235294117" type="curve"/>
      <point x="337.36470588235295" y="468.50588235294117" type="line"/>
      <point x="381.8" y="474.3176470588235"/>
      <point x="400.0470588235294" y="494.50588235294117"/>
      <point x="400.0470588235294" y="541.0588235294117" type="curve" smooth="yes"/>
      <point x="400.0470588235294" y="601.9294117647058"/>
      <point x="371.67058823529413" y="619.5529411764705"/>
    </contour>
  </outline>
</glyph>
<glyph name="degree" format="2">
  <advance width="377.91764705882355"/>
  <unicode hex="00B0"/>
  <outline>
    <contour>
      <point x="189.36470588235295" y="702.1882352941177" type="curve" smooth="yes"/>
      <point x="120.4235294117647" y="702.1882352941177"/>
      <point x="63.858823529411765" y="645.8117647058823"/>
      <point x="63.858823529411765" y="578.2470588235294" type="curve" smooth="yes"/>
      <point x="63.858823529411765" y="509.6823529411765"/>
      <point x="120.61176470588235" y="453.11764705882354"/>
      <point x="189.36470588235295" y="453.11764705882354" type="curve" smooth="yes"/>
      <point x="257.3058823529412" y="453.11764705882354"/>
      <point x="314.05882352941177" y="509.6823529411765"/>
      <point x="314.05882352941177" y="578.2470588235294" type="curve" smooth="yes"/>
      <point x="314.05882352941177" y="646.0"/>
      <point x="257.11764705882354" y="702.1882352941177"/>
    </contour>
    <contour>
      <point x="189.36470588235295" y="673.9058823529411" type="curve" smooth="yes"/>
      <point x="242.41176470588235" y="673.9058823529411"/>
      <point x="285.21176470588233" y="631.8588235294118"/>
      <point x="285.21176470588233" y="578.2470588235294" type="curve" smooth="yes"/>
      <point x="285.21176470588233" y="526.2588235294118"/>
      <point x="242.2235294117647" y="481.4"/>
      <point x="189.36470588235295" y="481.4" type="curve" smooth="yes"/>
      <point x="135.50588235294117" y="481.4"/>
      <point x="92.70588235294117" y="526.2588235294118"/>
      <point x="92.70588235294117" y="578.2470588235294" type="curve" smooth="yes"/>
      <point x="92.70588235294117" y="631.8588235294118"/>
      <point x="135.50588235294117" y="673.9058823529411"/>
    </contour>
  </outline>
</glyph>
<glyph name="plusminus" format="2">
  <advance width="596.1764705882352"/>
  <unicode hex="00B1"/>
  <outline>
    <contour>
      <point x="509.3176470588235" y="366.47058823529414" type="line"/>
      <point x="86.85882352941177" y="366.47058823529414" type="line"/>
      <point x="86.85882352941177" y="333.5529411764706" type="line"/>
      <point x="509.3176470588235" y="333.5529411764706" type="line"/>
    </contour>
    <contour>
      <point x="509.3176470588235" y="120.51764705882353" type="line"/>
      <point x="86.85882352941177" y="120.51764705882353" type="line"/>
      <point x="86.85882352941177" y="87.78823529411764" type="line"/>
      <point x="509.3176470588235" y="87.78823529411764" type="line"/>
    </contour>
    <contour>
      <point x="315.1411764705882" y="509.8941176470588" type="line"/>
      <point x="281.0352941176471" y="509.8941176470588" type="line"/>
      <point x="281.84705882352944" y="190.12941176470588" type="line"/>
      <point x="314.1411764705882" y="190.12941176470588" type="line"/>
    </contour>
  </outline>
</glyph>
<glyph name="twosuperior" format="2">
  <advance width="376.98823529411766"/>
  <unicode hex="00B2"/>
  <outline>
    <contour>
      <point x="193.4470588235294" y="758.2705882352941" type="curve" smooth="yes"/>
      <point x="161.25882352941176" y="758.2705882352941"/>
      <point x="118.50588235294117" y="754.6470588235294"/>
      <point x="64.24705882352941" y="740.2117647058824" type="curve"/>
      <point x="68.24705882352941" y="713.7411764705882" type="line"/>
      <point x="118.12941176470588" y="724.4235294117647"/>
      <point x="156.6235294117647" y="728.6705882352941"/>
      <point x="194.75294117647059" y="728.6705882352941" type="curve" smooth="yes"/>
      <point x="246.24705882352941" y="728.6705882352941"/>
      <point x="277.49411764705883" y="715.7411764705882"/>
      <point x="278.74117647058824" y="665.6941176470589" type="curve" smooth="yes"/>
      <point x="279.98823529411766" y="619.0823529411765"/>
      <point x="257.8588235294118" y="590.8235294117648"/>
      <point x="203.42352941176472" y="532.8941176470588" type="curve" smooth="yes"/>
      <point x="62.694117647058825" y="383.5529411764706" type="line" smooth="yes"/>
      <point x="59.188235294117646" y="380.0470588235294"/>
      <point x="57.0" y="376.3529411764706"/>
      <point x="57.0" y="370.47058823529414" type="curve" smooth="yes"/>
      <point x="57.0" y="355.94117647058823" type="line"/>
      <point x="336.035294117647" y="355.94117647058823" type="line"/>
      <point x="336.22352941176473" y="384.4823529411765" type="line"/>
      <point x="170.5529411764706" y="384.67058823529413" type="line" smooth="yes"/>
      <point x="147.36470588235295" y="384.67058823529413"/>
      <point x="129.5529411764706" y="384.67058823529413"/>
      <point x="106.36470588235295" y="384.1058823529412" type="curve"/>
      <point x="230.04705882352943" y="514.964705882353" type="line" smooth="yes"/>
      <point x="285.4823529411765" y="574.2705882352941"/>
      <point x="316.9764705882353" y="614.8352941176471"/>
      <point x="316.9764705882353" y="669.0117647058823" type="curve" smooth="yes"/>
      <point x="316.9764705882353" y="736.5882352941177"/>
      <point x="269.65882352941173" y="758.2705882352941"/>
    </contour>
  </outline>
</glyph>
<glyph name="threesuperior" format="2">
  <advance width="392.08235294117645"/>
  <unicode hex="00B3"/>
  <outline>
    <contour>
      <point x="179.08235294117648" y="758.4588235294118" type="curve" smooth="yes"/>
      <point x="142.8235294117647" y="758.4588235294118"/>
      <point x="101.07058823529411" y="752.0235294117647"/>
      <point x="63.0" y="741.7764705882353" type="curve"/>
      <point x="67.81176470588235" y="716.4941176470588" type="line"/>
      <point x="94.94117647058823" y="722.5529411764705"/>
      <point x="139.75294117647059" y="729.2352941176471"/>
      <point x="177.4470588235294" y="729.2352941176471" type="curve" smooth="yes"/>
      <point x="248.56470588235294" y="729.2352941176471"/>
      <point x="271.43529411764706" y="715.9882352941177"/>
      <point x="273.05882352941177" y="662.564705882353" type="curve" smooth="yes"/>
      <point x="273.8705882352941" y="627.0705882352942"/>
      <point x="267.8705882352941" y="579.2117647058824"/>
      <point x="191.50588235294117" y="577.5882352941177" type="curve" smooth="yes"/>
      <point x="108.12941176470588" y="575.964705882353" type="line"/>
      <point x="108.12941176470588" y="549.6823529411764" type="line"/>
      <point x="191.50588235294117" y="548.8705882352941" type="line" smooth="yes"/>
      <point x="270.49411764705883" y="548.0588235294117"/>
      <point x="282.49411764705883" y="511.50588235294117"/>
      <point x="282.49411764705883" y="467.32941176470587" type="curve" smooth="yes"/>
      <point x="282.49411764705883" y="401.28235294117644"/>
      <point x="254.0" y="377.9764705882353"/>
      <point x="184.3764705882353" y="377.9764705882353" type="curve" smooth="yes"/>
      <point x="143.81176470588235" y="377.9764705882353"/>
      <point x="99.25882352941176" y="382.22352941176473"/>
      <point x="63.87058823529412" y="389.28235294117644" type="curve"/>
      <point x="57.43529411764706" y="363.81176470588235" type="line"/>
      <point x="94.07058823529411" y="355.3764705882353"/>
      <point x="142.01176470588234" y="347.94117647058823"/>
      <point x="189.14117647058822" y="347.94117647058823" type="curve" smooth="yes"/>
      <point x="281.4117647058824" y="347.94117647058823"/>
      <point x="319.9764705882353" y="386.56470588235294"/>
      <point x="318.78823529411767" y="465.25882352941176" type="curve" smooth="yes"/>
      <point x="317.78823529411767" y="520.3882352941176"/>
      <point x="298.6" y="553.7647058823529"/>
      <point x="247.21176470588236" y="565.2" type="curve"/>
      <point x="247.21176470588236" y="567.2" type="line"/>
      <point x="291.16470588235296" y="579.4470588235295"/>
      <point x="308.6" y="615.3882352941176"/>
      <point x="308.6" y="667.3294117647059" type="curve" smooth="yes"/>
      <point x="308.6" y="735.4588235294118"/>
      <point x="269.78823529411767" y="758.4588235294118"/>
    </contour>
  </outline>
</glyph>
<glyph name="micro" format="2">
  <advance width="573.3176470588236"/>
  <unicode hex="00B5"/>
  <outline>
    <contour>
      <point x="129.4823529411765" y="481.6941176470588" type="line"/>
      <point x="90.67058823529412" y="481.6941176470588" type="line"/>
      <point x="90.67058823529412" y="122.5764705882353" type="line"/>
      <point x="90.67058823529412" y="31.31764705882353"/>
      <point x="142.3764705882353" y="-12.0"/>
      <point x="229.81176470588235" y="-12.0" type="curve" smooth="yes"/>
      <point x="310.1294117647059" y="-12.0"/>
      <point x="402.09411764705885" y="35.94117647058823"/>
      <point x="443.08235294117645" y="130.83529411764707" type="curve"/>
      <point x="440.08235294117645" y="219.87058823529412" type="line"/>
      <point x="437.45882352941175" y="112.87058823529412"/>
      <point x="338.3058823529412" y="25.11764705882353"/>
      <point x="232.57647058823528" y="25.11764705882353" type="curve" smooth="yes"/>
      <point x="163.8470588235294" y="25.11764705882353"/>
      <point x="129.4823529411765" y="55.976470588235294"/>
      <point x="129.4823529411765" y="130.28235294117647" type="curve" smooth="yes"/>
    </contour>
    <contour>
      <point x="129.29411764705884" y="83.37647058823529" type="line"/>
      <point x="90.67058823529412" y="145.42352941176472" type="line"/>
      <point x="90.67058823529412" y="-207.5529411764706" type="line"/>
      <point x="121.97647058823529" y="-207.5529411764706" type="line"/>
      <point x="129.1058823529412" y="-97.47058823529412" type="line"/>
    </contour>
    <contour>
      <point x="479.8941176470588" y="481.6941176470588" type="line"/>
      <point x="440.08235294117645" y="481.6941176470588" type="line"/>
      <point x="440.08235294117645" y="146.83529411764707" type="line"/>
      <point x="443.08235294117645" y="130.83529411764707" type="line"/>
      <point x="443.08235294117645" y="82.30588235294118" type="line" smooth="yes"/>
      <point x="443.08235294117645" y="29.858823529411765"/>
      <point x="454.16470588235296" y="-6.9411764705882355"/>
      <point x="499.54117647058825" y="-6.9411764705882355" type="curve" smooth="yes"/>
      <point x="519.0470588235294" y="-6.9411764705882355"/>
      <point x="537.6823529411764" y="-4.188235294117647"/>
      <point x="554.0705882352942" y="0.9411764705882355" type="curve"/>
      <point x="550.3176470588236" y="25.352941176470587" type="line"/>
      <point x="513.0117647058823" y="25.352941176470587" type="line" smooth="yes"/>
      <point x="479.83529411764704" y="25.352941176470587"/>
      <point x="479.8941176470588" y="58.64705882352941"/>
      <point x="479.8941176470588" y="94.70588235294117" type="curve" smooth="yes"/>
    </contour>
  </outline>
</glyph>
<glyph name="paragraph" format="2">
  <advance width="596.0588235294117"/>
  <unicode hex="00B6"/>
  <outline>
    <contour>
      <point x="351.11764705882354" y="702.0" type="curve" smooth="yes"/>
      <point x="134.98823529411766" y="702.0"/>
      <point x="50.423529411764704" y="635.0"/>
      <point x="50.423529411764704" y="450.0" type="curve" smooth="yes"/>
      <point x="50.423529411764704" y="284.0"/>
      <point x="119.23529411764706" y="213.0"/>
      <point x="291.67058823529413" y="200.0" type="curve"/>
      <point x="309.32941176470587" y="670.5294117647059" type="line"/>
      <point x="353.9529411764706" y="670.5294117647059"/>
      <point x="434.8235294117647" y="667.5294117647059"/>
      <point x="484.25882352941176" y="658.5294117647059" type="curve"/>
      <point x="490.25882352941176" y="685.0" type="line"/>
      <point x="447.1294117647059" y="698.0"/>
      <point x="388.43529411764706" y="702.0"/>
    </contour>
    <contour>
      <point x="316.83529411764704" y="685.0" type="line"/>
      <point x="281.67058823529413" y="685.0" type="line"/>
      <point x="281.67058823529413" y="-210.0" type="line"/>
      <point x="316.83529411764704" y="-210.0" type="line"/>
    </contour>
    <contour>
      <point x="490.25882352941176" y="685.0" type="line"/>
      <point x="454.90588235294115" y="685.0" type="line"/>
      <point x="454.90588235294115" y="0.0" type="line"/>
      <point x="490.25882352941176" y="0.0" type="line"/>
    </contour>
  </outline>
</glyph>
<glyph name="cedilla" format="2">
  <advance width="222.76470588235293"/>
  <unicode hex="00B8"/>
  <guideline x="71.91764705882353" y="-108.87058823529412" angle="56.408199999999965"/>
  <anchor x="132.18823529411765" y="0.0" name="_bottom"/>
  <outline>
    <contour>
      <point x="99.61176470588235" y="-47.49411764705882" type="curve"/>
      <point x="95.10588235294118" y="-68.27058823529411" type="line"/>
      <point x="140.04705882352943" y="-69.08235294117647"/>
      <point x="154.2941176470588" y="-80.5764705882353"/>
      <point x="154.10588235294117" y="-114.18823529411765" type="curve" smooth="yes"/>
      <point x="153.72941176470587" y="-161.9294117647059"/>
      <point x="113.04705882352941" y="-201.54117647058823"/>
      <point x="46.37647058823529" y="-198.91764705882352" type="curve"/>
      <point x="39.92941176470588" y="-221.63529411764705" type="line"/>
      <point x="127.56470588235294" y="-233.01176470588234"/>
      <point x="184.89411764705883" y="-184.01176470588234"/>
      <point x="186.27058823529413" y="-112.49411764705883" type="curve" smooth="yes"/>
      <point x="187.45882352941177" y="-61.294117647058826"/>
      <point x="157.38823529411764" y="-43.36470588235294"/>
    </contour>
  </outline>
</glyph>
<glyph name="onesuperior" format="2">
  <advance width="288.88235294117646"/>
  <unicode hex="00B9"/>
  <outline>
    <contour>
      <point x="178.1058823529412" y="752.0823529411765" type="line"/>
      <point x="144.6235294117647" y="752.0823529411765" type="line"/>
      <point x="32.247058823529414" y="710.0823529411765" type="line"/>
      <point x="37.37647058823529" y="686.9882352941177" type="line"/>
      <point x="146.81176470588235" y="721.1058823529412" type="line"/>
      <point x="145.43529411764706" y="710.9764705882353"/>
      <point x="144.6235294117647" y="701.035294117647"/>
      <point x="144.6235294117647" y="691.9058823529411" type="curve" smooth="yes"/>
      <point x="144.6235294117647" y="355.94117647058823" type="line"/>
      <point x="178.1058823529412" y="355.94117647058823" type="line"/>
    </contour>
  </outline>
</glyph>
<glyph name="ordmasculine" format="2">
  <advance width="447.6823529411765"/>
  <unicode hex="00BA"/>
  <outline>
    <contour>
      <point x="223.43529411764706" y="601.8823529411765" type="curve" smooth="yes"/>
      <point x="110.8" y="601.8823529411765"/>
      <point x="70.85882352941177" y="556.6941176470589"/>
      <point x="70.85882352941177" y="432.1294117647059" type="curve" smooth="yes"/>
      <point x="70.85882352941177" y="307.7529411764706"/>
      <point x="110.8" y="262.56470588235294"/>
      <point x="223.43529411764706" y="262.56470588235294" type="curve" smooth="yes"/>
      <point x="336.88235294117646" y="262.56470588235294"/>
      <point x="376.8235294117647" y="307.7529411764706"/>
      <point x="376.8235294117647" y="432.1294117647059" type="curve" smooth="yes"/>
      <point x="376.8235294117647" y="556.6941176470589"/>
      <point x="336.88235294117646" y="601.8823529411765"/>
    </contour>
    <contour>
      <point x="223.43529411764706" y="574.035294117647" type="curve" smooth="yes"/>
      <point x="310.9764705882353" y="574.035294117647"/>
      <point x="341.52941176470586" y="540.4823529411765"/>
      <point x="341.52941176470586" y="432.1294117647059" type="curve" smooth="yes"/>
      <point x="341.52941176470586" y="324.77647058823527"/>
      <point x="310.9764705882353" y="291.22352941176473"/>
      <point x="223.43529411764706" y="291.22352941176473" type="curve" smooth="yes"/>
      <point x="135.89411764705883" y="291.22352941176473"/>
      <point x="105.34117647058824" y="324.77647058823527"/>
      <point x="105.15294117647059" y="432.1294117647059" type="curve" smooth="yes"/>
      <point x="105.34117647058824" y="540.4823529411765"/>
      <point x="135.89411764705883" y="574.035294117647"/>
    </contour>
  </outline>
</glyph>
<glyph name="onequarter" format="2">
  <advance width="845.8352941176471"/>
  <unicode hex="00BC"/>
  <outline>
    <contour>
      <point x="633.9529411764706" y="690.0" type="line"/>
      <point x="600.3529411764706" y="690.0" type="line"/>
      <point x="128.8235294117647" y="0.0" type="line"/>
      <point x="162.42352941176472" y="0.0" type="line"/>
    </contour>
    <contour>
      <point x="206.27058823529413" y="690.0" type="line"/>
      <point x="173.6" y="690.0" type="line"/>
      <point x="49.858823529411765" y="646.3764705882353" type="line"/>
      <point x="54.98823529411764" y="624.0941176470589" type="line"/>
      <point x="175.9764705882353" y="659.0235294117647" type="line"/>
      <point x="173.78823529411764" y="648.0823529411765"/>
      <point x="173.6" y="637.3294117647059"/>
      <point x="173.6" y="626.5764705882353" type="curve" smooth="yes"/>
      <point x="173.6" y="276.0" type="line"/>
      <point x="206.27058823529413" y="276.0" type="line"/>
    </contour>
    <contour>
      <point x="641.8470588235294" y="414.0" type="line"/>
      <point x="608.1176470588235" y="414.0" type="line"/>
      <point x="465.5764705882353" y="162.81176470588235" type="line" smooth="yes"/>
      <point x="450.88235294117646" y="135.4823529411765"/>
      <point x="470.1411764705882" y="110.48235294117647"/>
      <point x="499.45882352941175" y="110.48235294117647" type="curve" smooth="yes"/>
      <point x="734.1647058823529" y="110.48235294117647" type="line"/>
      <point x="796.4705882352941" y="114.23529411764706" type="line"/>
      <point x="796.4705882352941" y="137.32941176470587" type="line"/>
      <point x="519.0588235294117" y="137.32941176470587" type="line" smooth="yes"/>
      <point x="501.81176470588235" y="137.32941176470587"/>
      <point x="492.3764705882353" y="151.2"/>
      <point x="499.81176470588235" y="164.63529411764705" type="curve" smooth="yes"/>
    </contour>
    <contour>
      <point x="750.7176470588236" y="335.6235294117647" type="line"/>
      <point x="725.6823529411764" y="335.6235294117647" type="line"/>
      <point x="718.9882352941177" y="266.3764705882353" type="line"/>
      <point x="718.9882352941177" y="0.0" type="line"/>
      <point x="750.7176470588236" y="0.0" type="line"/>
    </contour>
  </outline>
</glyph>
